<svg width="1715" height="370" viewBox="0 0 1715 370" fill="none" xmlns="http://www.w3.org/2000/svg">
<mask id="mask0_338_282" style="mask-type:luminance" maskUnits="userSpaceOnUse" x="0" y="0" width="1715" height="370">
<path d="M1714.33 0H0V370H1714.33V0Z" fill="white"/>
</mask>
<g mask="url(#mask0_338_282)">
<path d="M187.21 0C244.636 0.00113424 294.495 20.8628 324.14 61.837L324.115 61.8494C329.989 69.6118 331.358 78.808 329.15 87.1051C331.083 89.0787 332.77 91.3117 334.135 93.7584C342.892 95.1046 350.993 100.234 355.674 108.623L357.073 111.476L357.161 111.675C366.577 134.206 371.652 158.15 371.653 183.343C371.653 195.59 370.526 207.467 368.267 218.927C368.048 223.702 366.711 227.803 366.206 229.269C355.305 270.974 330.234 306.99 296.541 331.874C296.246 332.092 295.935 332.305 295.629 332.51C295.714 332.452 295.724 332.437 294.992 333.02C294.834 333.146 294.615 333.311 294.368 333.506C292.662 335.184 290.865 336.388 289.258 337.269C260.015 356.708 225.165 368.342 187.21 368.343C104.406 368.342 33.7704 313.554 10.4242 238.065C10.0305 236.792 9.76073 235.485 9.59966 234.166C9.58089 234.088 9.55577 234.009 9.53719 233.929C9.45462 233.572 9.40954 233.185 9.33729 232.795C5.16309 217.475 2.76593 200.996 2.76562 183.904C2.76731 82.0562 85.3785 -0.529456 187.21 0.0249189V0ZM135.173 337.381C139.263 338.768 143.429 339.982 147.655 341.044C141.314 339.45 135.116 337.492 129.089 335.175L135.173 337.381ZM199.29 316.685C195.053 326.088 190.879 330.984 187.76 330.989H186.659L186.647 331.002H187.76C189.492 331.002 191.554 329.486 193.769 326.528C194.654 325.346 195.568 323.932 196.492 322.293C197.416 320.653 198.35 318.772 199.29 316.685ZM123.979 316.623C125.156 317.175 126.342 317.717 127.54 318.243C131.139 319.822 134.838 321.269 138.61 322.591C133.582 320.829 128.693 318.834 123.979 316.623ZM274.84 302.232C267.769 307.416 260.225 311.981 252.276 315.863C254.924 314.57 257.53 313.206 260.085 311.764C265.199 308.877 270.124 305.688 274.84 302.232ZM119.431 313.372C120.31 314.312 121.277 315.03 122.317 315.514L120.818 314.617C120.336 314.258 119.872 313.844 119.431 313.372ZM80.1263 305.584C81.7178 306.978 83.3412 308.338 84.9863 309.67L80.1263 305.584C78.534 304.189 76.9654 302.754 75.4286 301.298L80.1263 305.584ZM136.485 297.61C149.528 303.351 163.831 307.188 178.414 308.25C178.713 307.61 179.027 306.923 179.339 306.195C173.735 305.308 168.223 304.291 162.834 303.217C162.539 303.157 162.24 303.088 161.947 303.017C153.308 300.929 144.676 298.555 136.172 295.878C136.275 296.552 136.382 297.129 136.485 297.61ZM61.8606 230.353C70.1791 237.816 79.7488 244.97 90.0963 251.347C84.9214 248.159 79.9426 244.775 75.2163 241.255C70.4915 237.736 66.0191 234.084 61.8606 230.353ZM117.87 248.606C121.029 250.127 124.269 251.554 127.552 252.942C124.27 251.554 121.041 250.114 117.882 248.594L117.87 248.606ZM166.383 179.069C156.462 200.076 149.219 218.934 144.369 235.511C152.175 238.422 160.33 240.919 168.769 242.925L175.103 244.332L175.816 244.494C181.295 245.806 186.75 246.795 192.07 247.51C194.277 230.276 195.637 209.705 195.743 186.283C192.154 185.718 188.569 185.024 184.998 184.191C184.971 184.184 184.937 184.183 184.911 184.178C184.888 184.173 184.859 184.17 184.835 184.165V184.152C178.568 182.727 172.416 181.027 166.383 179.069ZM272.753 181.425C267.411 183.218 261.903 184.701 256.261 185.847C256.198 206.056 255.144 227.026 253.101 247.036C259.878 245.75 266.351 244.117 272.404 242.177L272.578 242.128C275.929 241.083 278.883 239.98 281.512 238.863C281.65 236.505 281.748 234.039 281.748 231.461C281.748 231.303 281.759 231.133 281.761 230.977C282.095 215.311 279.007 198.411 272.753 181.425ZM299.452 191.64C302.425 203.374 304.07 215.11 304.25 226.566C304.147 220.018 303.56 213.381 302.526 206.704C302.268 205.038 301.99 203.367 301.677 201.695C301.046 198.349 300.301 194.995 299.452 191.64ZM345.828 216.535V217.632L345.841 216.522L345.828 216.535ZM334.185 183.343C334.185 189.424 333.772 195.372 333.011 201.248C333.392 198.311 333.686 195.356 333.884 192.377C333.984 190.888 334.058 189.392 334.11 187.891C334.161 186.386 334.185 184.864 334.185 183.343ZM98.6169 138.65C93.465 143.6 88.8759 148.787 84.9364 154.101L84.8365 154.224C78.0876 163.196 73.1752 172.366 70.1814 180.889C73.6771 187.732 79.2858 195.155 87.4101 202.581C88.6506 203.669 89.9033 204.743 91.1707 205.795C97.3076 187.692 104.853 169.248 113.247 151.508C110.108 149.036 107.19 146.513 104.464 144.046C102.407 142.309 100.467 140.505 98.6169 138.65ZM90.8458 96.3625C77.1619 106.513 64.9055 118.302 55.2015 131.361V131.374C60.7476 123.909 67.1275 116.859 74.1293 110.292C75.8794 108.652 77.6646 107.037 79.4892 105.458C83.1399 102.298 86.935 99.2638 90.8458 96.3625ZM287.596 129.716C289.261 128.057 290.79 126.288 292.169 124.446L294.117 121.631C292.276 124.497 290.091 127.228 287.596 129.716ZM309.235 100.399C310.205 100.676 311.099 101.129 311.896 101.708C311.5 101.42 311.077 101.166 310.634 100.948C310.187 100.727 309.721 100.538 309.235 100.399ZM304.787 85.4728C304.441 85.7484 304.087 85.9877 303.725 86.1955C303 86.6137 302.249 86.8976 301.489 87.0552C302.63 86.8202 303.744 86.3039 304.787 85.4728ZM110.661 73.8605C110.107 77.1762 110.107 80.5 110.661 83.8156C110.524 82.9936 110.43 82.1583 110.361 81.3362C110.152 78.8452 110.245 76.3503 110.661 73.8605ZM289.282 82.6819C289.651 82.8532 290.017 83.0305 290.381 83.2051C288.895 82.4946 287.383 81.8069 285.847 81.1493L289.282 82.6819ZM124.529 53.4018C119.121 57.5493 114.966 62.6317 112.522 68.1789L113.884 65.4502C116.387 60.967 120.021 56.859 124.529 53.4018ZM233.235 53.95C239.613 54.5029 245.859 55.2025 251.89 56.0308C257.922 56.8602 263.745 57.8278 269.293 58.9339L269.256 58.9089C258.175 56.7015 245.987 55.0546 233.248 53.95H233.235Z" fill="#00244D"/>
<path d="M1603.39 54.624C1611.01 54.6257 1617.74 58.427 1621.81 64.2182C1629.46 58.22 1639.09 54.6364 1649.58 54.6364C1652.19 54.6367 1654.75 54.8583 1657.23 55.2843C1671.37 55.8037 1685.34 59.643 1696.23 69.189C1708.45 79.8948 1713.51 94.8147 1713.51 110.231C1713.51 125.412 1708.26 139.799 1696.66 150.151C1687.2 158.619 1675.31 162.744 1663.04 163.845V172.716C1663.04 185.1 1652.96 195.142 1640.55 195.143H1620.58C1612.76 195.142 1605.88 191.145 1601.85 185.101C1590.02 193.249 1576.71 195.142 1566.79 195.143C1551.16 195.142 1535.25 190.677 1523.71 179.17C1522.89 178.351 1522.1 177.508 1521.34 176.654C1520.64 177.391 1519.91 178.118 1519.15 178.821C1506.02 191.137 1489.4 195.691 1474.71 195.692C1464.92 195.691 1454.29 193.651 1444.4 188.665C1440.96 191.81 1436.56 193.919 1431.67 194.446C1431.03 194.572 1430.32 194.73 1429.52 194.856C1426.79 195.293 1423.09 195.691 1418.7 195.692C1406.43 195.691 1396.34 191.738 1388.6 185.101C1384.58 191.142 1377.71 195.142 1369.89 195.143H1349.36C1342.49 195.141 1336.34 192.061 1332.22 187.219C1323.06 193.028 1311.79 196.252 1298.89 196.252C1282.87 196.251 1268.01 191.392 1256.38 181.376C1256.21 181.795 1256.04 182.223 1255.83 182.634C1252.05 190.293 1244.22 195.142 1235.65 195.143H1211.26C1205.15 195.142 1199.38 192.648 1195.18 188.353C1191.09 192.53 1185.4 195.143 1179.08 195.143H1158.57C1155.42 195.142 1152.41 194.481 1149.69 193.311C1146.96 194.479 1143.97 195.143 1140.82 195.143H1120.3C1113.89 195.142 1107.89 192.379 1103.67 187.742C1099.56 192.274 1093.63 195.142 1087.02 195.143H1066.49C1065.56 195.143 1064.63 195.067 1063.73 194.956C1062.81 195.071 1061.88 195.143 1060.94 195.143H1039.87C1030.37 195.14 1021.9 189.184 1018.7 180.267L1015.93 172.529L1013.51 179.805C1010.45 188.959 1001.85 195.14 992.179 195.143H971.102C966.692 195.142 962.455 193.824 958.859 191.493C951.429 194.074 943.468 195.143 935.595 195.143H895.665C883.249 195.141 873.177 185.1 873.177 172.716V163.558C870.775 168.052 867.823 172.275 864.219 176.105C851.604 189.51 834.209 195.143 815.794 195.143H783.622C782.008 195.142 780.43 194.956 778.913 194.632C777.394 194.956 775.817 195.143 774.202 195.143H712.634C710.547 195.143 708.528 194.827 706.612 194.296C706.297 194.343 705.981 194.411 705.663 194.446C705.022 194.573 704.3 194.729 703.5 194.856C700.765 195.293 697.067 195.691 692.668 195.692C680.403 195.691 670.308 191.748 662.572 185.114C658.543 191.15 651.673 195.142 643.856 195.143H623.329C615.778 195.14 609.114 191.408 605.038 185.711C593.751 192.863 581.051 195.691 569.531 195.692C554.848 195.689 538.229 191.135 525.091 178.821C523.298 177.14 521.615 175.346 520.044 173.464L518.508 178.858C515.755 188.491 506.923 195.141 496.88 195.143H474.13C467.484 195.141 461.384 192.214 457.213 187.455C453.04 192.215 446.941 195.142 440.297 195.143H417.558C407.517 195.14 398.684 188.49 395.932 178.858L368.759 83.7542C366.828 76.9909 368.196 69.7057 372.444 64.0932C376.693 58.4835 383.336 55.1858 390.385 55.1846H413.686L415.623 55.2594C421.967 55.8048 427.65 59.0153 431.426 63.8559C435.593 58.5108 442.079 55.1858 449.18 55.1846H466.372L468.27 55.2594C474.469 55.7808 480.049 58.8456 483.837 63.5076C488.004 58.3758 494.356 55.1857 501.316 55.1846H524.055C529.903 55.1853 535.443 57.4879 539.597 61.4637C549.386 56.6149 559.876 54.6249 569.531 54.624C581.049 54.6243 593.753 57.4548 605.038 64.6036C609.114 58.9107 615.781 55.1878 623.329 55.1846H657.174C669.915 55.1855 683.31 57.2796 694.418 64.4926C698.502 58.8608 705.133 55.1858 712.634 55.1846H733.161C745.572 55.1888 755.631 65.2223 755.637 77.5995V133.706H761.147V77.5995C761.152 65.2223 771.211 55.189 783.622 55.1846H811.909C831.351 55.185 849.515 61.3348 862.732 75.0707C866.972 79.4776 870.43 84.4049 873.177 89.6972V77.5995C873.182 65.2198 883.252 55.1865 895.665 55.1846H931.722C944.738 55.1857 958.475 57.9304 969.266 66.8223C974.459 71.1028 978.21 76.1807 980.773 81.6733L984.945 70.3972L985.607 68.7909C989.25 60.8857 997.206 55.7359 1006.03 55.7329H1026.01C1034.83 55.7357 1042.43 60.8143 1046.11 68.1798C1049.69 60.5131 1057.46 55.1876 1066.49 55.1846H1087.02L1088.53 55.2345C1094.51 55.6364 1100.04 58.4174 1103.93 62.8594C1108.06 58.1626 1114.1 55.1857 1120.85 55.1846H1140.82C1143.97 55.1849 1146.97 55.838 1149.69 57.0038C1152.41 55.8349 1155.42 55.1851 1158.57 55.1846H1179.08C1185.25 55.1851 1190.84 57.676 1194.9 61.6882C1199.08 57.5651 1204.74 55.1855 1210.7 55.1846H1234.56C1243.05 55.1867 1250.83 59.9722 1254.65 67.5444C1255.07 68.3878 1255.42 69.2617 1255.73 70.1357C1267.39 59.9211 1282.35 55.1854 1298.34 55.1846C1311.72 55.1849 1322.62 58.8146 1331.22 64.3918C1335.31 58.8179 1341.9 55.1868 1349.36 55.1846H1383.2C1397.6 55.1849 1412.85 57.8384 1424.69 67.5699C1426.47 69.0346 1428.07 70.6052 1429.54 72.2294C1429.78 71.9895 1430.02 71.7305 1430.27 71.4945C1443.4 59.1837 1460.02 54.6254 1474.71 54.624C1486.48 54.6243 1499.49 57.5733 1510.97 65.0782C1515.01 59.1084 1521.85 55.1872 1529.62 55.1846H1550.14C1556.61 55.1855 1562.42 57.9284 1566.53 62.2866C1570.65 57.6011 1576.69 54.625 1583.43 54.624H1603.39ZM1424.53 172.89C1425.03 172.83 1425.49 172.793 1425.9 172.729L1425.97 172.716C1425.54 172.785 1425.06 172.826 1424.53 172.89ZM783.622 172.716L783.635 77.6123H811.92C816.51 77.6123 820.816 78.0511 824.813 78.92C820.812 78.0499 816.503 77.5995 811.909 77.5995H783.622V172.716ZM623.329 172.716L623.342 77.6123H657.174C660.106 77.6123 662.854 77.7488 665.421 78.0231C662.854 77.7488 660.107 77.5995 657.174 77.5995H623.329V172.716ZM1533.52 154.426C1535.07 157.877 1537.1 160.833 1539.6 163.321C1537.1 160.832 1535.08 157.878 1533.52 154.426ZM685.46 143.96C687.122 147.276 688.642 150.469 690.583 152.818C691.312 153.701 692.105 154.461 692.982 155.074C693.564 155.481 694.186 155.821 694.855 156.083C695.525 156.343 696.243 156.527 697.017 156.619C691.214 155.927 688.581 150.181 685.46 143.96ZM1299.45 155.584C1302.15 155.584 1304.42 155.214 1306.34 154.575L1308.13 153.84C1305.9 154.919 1303.05 155.584 1299.45 155.584ZM1474.71 155.584C1475.59 155.584 1476.58 155.515 1477.59 155.385C1476.58 155.515 1475.61 155.584 1474.71 155.584ZM1313.18 149.566C1312.3 150.837 1311.15 151.998 1309.69 152.954L1311.06 151.934C1311.89 151.212 1312.59 150.412 1313.18 149.566ZM946.477 146.862C946.123 149.113 945.317 150.94 944.004 152.357L944.741 151.46C945.629 150.199 946.193 148.657 946.477 146.862ZM390.385 77.6123H413.686L429.764 146.726L413.686 77.5995H390.385V77.6123ZM429.764 146.726L449.18 77.6123H466.372L484.674 146.726L501.316 77.6123H524.055V77.5995H501.316L484.674 146.726L466.372 77.5995H449.18L429.764 146.726ZM946.59 142.177C946.464 141.057 946.225 140.052 945.877 139.15L945.866 139.137C946.215 140.043 946.463 141.052 946.59 142.177ZM1384.15 139.125C1384.68 139.409 1385.21 139.743 1385.69 140.109C1385.21 139.743 1384.7 139.409 1384.15 139.125ZM839.082 126.815L838.982 130.154C838.807 132.92 838.398 135.494 837.795 137.866C838.633 134.567 839.094 130.877 839.095 126.827L839.082 126.815ZM1066.49 77.6123H1087.02L1120.3 136.222L1087.02 77.5995H1066.49V77.6123ZM1495.4 135.811C1495.5 135.251 1495.65 134.683 1495.73 134.091L1495.76 133.842C1495.67 134.521 1495.51 135.173 1495.4 135.811ZM940.468 133.531C940.643 133.614 940.81 133.714 940.98 133.805C940.422 133.513 939.847 133.239 939.244 133.019L940.468 133.531ZM1227.23 124.945L1234.03 133.767C1233.82 131.112 1233.69 128.422 1233.69 125.719C1233.69 122.327 1233.85 118.954 1234.18 115.638L1227.23 124.945ZM612.247 125.157V125.17C612.247 128.033 612.088 130.747 611.81 133.319C612.088 130.743 612.247 128.025 612.247 125.157ZM1403.72 131.251C1404.29 131.923 1404.84 132.616 1405.36 133.319C1404.83 132.612 1404.29 131.926 1403.72 131.251ZM1517.43 125.157V125.17C1517.43 128.033 1517.26 130.747 1516.99 133.319C1517.26 130.743 1517.43 128.025 1517.43 125.157ZM936.62 132.297C937.071 132.389 937.517 132.5 937.957 132.621L936.62 132.297C935.722 132.116 934.816 131.991 933.896 131.91L936.62 132.297ZM952.237 122.404C954.165 122.996 956.249 123.908 958.271 125.196C956.251 123.908 954.175 122.983 952.249 122.391L952.237 122.404ZM670.381 116.835C667.292 120.448 661.879 122.391 654.95 122.391H643.856V122.404H654.95C659.111 122.404 662.728 121.702 665.62 120.361C666.103 120.137 666.566 119.897 667.007 119.638C668.771 118.602 670.196 117.28 671.242 115.701L670.381 116.835ZM1396.71 115.701C1393.83 120.044 1388.05 122.391 1380.42 122.391H1369.34V122.404H1380.42C1388.74 122.404 1394.88 119.598 1397.42 114.467L1396.71 115.701ZM1158.57 77.6123H1179.08V77.5995L1158.57 77.6123ZM1179.08 120.186L1210.7 77.6123H1234.54L1234.56 77.5995H1210.7L1179.08 120.186ZM1689.96 119.177C1689.95 119.255 1689.94 119.335 1689.91 119.413C1689.94 119.327 1689.96 119.24 1689.99 119.152L1689.96 119.177ZM528.365 110.194C527.967 111.98 527.637 113.847 527.39 115.8L527.828 112.935C527.989 112.001 528.166 111.087 528.365 110.194ZM1433.54 110.194C1433.14 111.98 1432.81 113.847 1432.57 115.8L1433 112.935C1433.17 112.001 1433.35 111.087 1433.54 110.194ZM1393.8 97.9329C1396.99 100.286 1398.72 103.878 1398.72 108.574C1398.72 108.024 1398.7 107.488 1398.67 106.967C1398.56 105.921 1398.37 104.935 1398.1 104.014C1397.34 101.485 1395.86 99.4537 1393.8 97.9329ZM941.705 105.26V105.247C941.705 106.217 941.64 107.118 941.517 107.951L941.655 106.655C941.685 106.207 941.705 105.742 941.705 105.26ZM1322.92 86.1835C1326.55 89.4637 1329.12 93.3054 1330.89 96.999C1331.32 97.9214 1331.7 98.8349 1332.05 99.728C1330.32 95.2612 1327.46 90.2803 1322.92 86.1835ZM940.23 99.5035C940.33 99.6643 940.415 99.8339 940.505 100.002C940.24 99.5035 939.946 99.0289 939.593 98.5938L940.23 99.5035ZM1389.12 95.6657C1390.16 95.9681 1391.1 96.3406 1391.97 96.7872C1391.54 96.5626 1391.09 96.3649 1390.62 96.1773C1389.66 95.8022 1388.64 95.4947 1387.54 95.2676L1389.12 95.6657ZM1298.34 77.5995C1286.68 77.6008 1277.17 80.9946 1270.14 87.3547C1271.14 86.4476 1272.19 85.5991 1273.3 84.8132C1274.96 83.633 1276.73 82.5958 1278.61 81.6988C1284.24 79.0106 1290.85 77.6123 1298.34 77.6123C1300.13 77.6123 1301.84 77.6965 1303.47 77.8738C1301.84 77.6965 1300.13 77.5995 1298.34 77.5995ZM837.858 83.8538C837.988 83.9303 838.115 84.0145 838.245 84.0911C837.471 83.6343 836.683 83.1929 835.871 82.782L837.858 83.8538ZM895.665 77.6123H931.722C939.414 77.6123 945.706 78.8473 950.562 81.2752C945.704 78.8447 939.414 77.6008 931.722 77.5995H895.665V77.6123ZM1402.38 80.4153C1403.08 80.6743 1403.76 80.9792 1404.42 81.2752C1402.79 80.5467 1401.03 79.9011 1399.13 79.3934L1402.38 80.4153ZM569.531 77.0509C572.097 77.0509 574.694 77.2576 577.264 77.6748C575.976 77.4655 574.684 77.3022 573.392 77.2001L569.531 77.0509ZM1474.71 77.0509C1477.27 77.0509 1479.87 77.2576 1482.44 77.6748C1481.16 77.4655 1479.87 77.3022 1478.57 77.2001L1474.71 77.0509ZM1349.36 77.6123H1383.2C1386.13 77.6123 1388.88 77.7488 1391.44 78.0231C1388.87 77.7488 1386.13 77.5995 1383.2 77.5995H1349.36V77.6123ZM712.634 77.6123H733.161V77.5995H712.634V77.6123ZM1120.85 77.6123H1140.82V77.5995H1120.85V77.6123ZM1529.62 77.6123H1550.14V77.5995H1529.62V77.6123Z" fill="#00244D"/>
<path d="M1653.85 77.613C1677.71 77.613 1691.02 89.2259 1691.02 110.239C1691.02 130.147 1677.71 141.76 1656.08 141.76H1640.55V172.726H1620.58V77.613M1641.1 125.723H1653.3C1664.96 125.723 1671.05 120.746 1671.05 110.239C1671.05 99.7326 1664.39 94.203 1652.75 94.203H1641.1V125.723ZM1583.42 134.57C1583.42 148.395 1577.87 155.031 1566.78 155.031C1555.69 155.031 1550.14 147.842 1550.14 134.57V77.613H1529.61V132.911C1529.61 146.735 1532.94 156.69 1539.61 163.325C1545.71 169.407 1555.14 172.726 1566.78 172.726C1583.42 172.726 1603.38 165.536 1603.38 132.359V77.0605H1583.42V134.57ZM1474.71 77.0605C1495.23 77.0605 1517.42 89.7796 1517.42 125.169C1517.42 160.561 1495.23 173.278 1474.71 173.278C1454.18 173.278 1432 160.561 1432 125.169C1432 89.7796 1454.18 77.0605 1474.71 77.0605ZM1474.71 155.583C1482.47 155.583 1496.34 151.713 1496.34 125.169C1496.34 98.6264 1483.03 94.7555 1474.71 94.7555C1460.84 94.7555 1453.08 105.816 1453.08 125.169C1453.08 145.077 1460.84 155.583 1474.71 155.583ZM1411.48 143.971C1414.81 150.606 1417.58 156.69 1424.23 156.69H1429.22V172.172H1428.67C1428.67 172.172 1424.78 173.278 1418.7 173.278C1402.6 173.278 1397.61 162.219 1393.74 152.819C1390.41 145.077 1387.07 137.889 1378.75 137.889H1369.88V172.726H1349.35V77.613H1383.19C1407.6 77.613 1419.25 87.0135 1419.25 107.475C1419.25 120.192 1411.48 127.934 1403.71 131.253C1407.04 135.124 1409.27 139.547 1411.48 143.971ZM1369.33 122.405H1380.42C1391.51 122.405 1398.72 117.428 1398.72 108.581C1398.72 99.7326 1392.62 94.7555 1382.08 94.7555H1369.33V122.405ZM1295.01 137.889H1316.08V138.995C1316.08 145.077 1313.87 155.583 1299.45 155.583C1285.58 155.583 1277.26 144.524 1277.26 125.723C1277.26 106.368 1285.02 95.3092 1298.88 95.3092C1314.97 95.3092 1315.53 111.898 1315.53 112.452V113.557L1334.39 110.792V110.239C1334.39 103.604 1328.28 77.613 1298.33 77.613C1271.71 77.613 1256.18 95.3092 1256.18 125.723C1256.18 155.583 1272.26 173.832 1298.88 173.832C1325.51 173.832 1334.94 155.031 1334.94 139.547V122.957H1295.01V137.889ZM1234.55 77.613H1210.7L1179.08 120.192V77.613H1158.56V172.726H1179.08V129.04L1211.25 172.726H1235.66L1199.05 125.169L1234.55 77.613ZM1120.29 136.229L1087.01 77.613H1066.49V172.726H1087.01V116.321L1120.29 172.726H1140.81V77.613H1120.85V136.229H1120.29ZM1026 78.7192L1060.95 172.726H1039.87L1031.55 149.5H999.935L992.169 172.726H971.093L1006.04 78.1667H1026V78.7192ZM1016.02 103.604L1006.04 133.464H1026.56L1016.02 103.604ZM952.235 122.405C959.446 124.617 968.875 131.253 968.875 145.629C968.875 162.772 956.672 172.726 935.596 172.726H895.661V77.613H931.713C952.235 77.613 962.773 86.4611 962.773 103.05C962.773 116.321 956.672 121.299 952.235 122.405ZM929.495 116.321C937.815 116.321 941.696 113.004 941.696 105.262C941.696 98.074 936.705 94.203 926.721 94.203H915.628V116.321H929.495ZM915.628 156.136H931.713C942.251 156.136 946.688 152.265 946.688 143.971C946.688 134.018 938.369 131.805 931.158 131.805H915.628V156.136ZM811.91 77.613C841.307 77.613 859.055 95.8616 859.055 126.828C859.055 156.136 843.525 172.726 815.793 172.726H783.623V77.613H811.91ZM804.146 156.136H815.793C830.214 156.136 839.087 145.077 839.087 126.828C839.087 105.816 829.658 94.7555 811.91 94.7555H804.146V156.136ZM733.151 77.613H712.629V172.726H774.195V156.136H733.151V77.613ZM685.451 143.971C688.779 150.606 691.553 156.69 698.208 156.69H703.2V172.172H702.646C702.646 172.172 698.763 173.278 692.662 173.278C676.578 173.278 671.586 162.219 667.703 152.819C664.375 145.077 661.048 137.889 652.728 137.889H643.853V172.726H623.331V77.613H657.165C681.568 77.613 693.217 87.0135 693.217 107.475C693.217 120.192 685.451 127.934 677.687 131.253C681.569 135.124 683.788 139.547 685.451 143.971ZM643.853 122.405H654.947C666.038 122.405 673.249 117.428 673.249 108.581C673.249 99.7326 667.149 94.7555 656.61 94.7555H643.853V122.405ZM569.531 77.0605C590.053 77.0605 612.239 89.7796 612.239 125.169C612.239 160.561 590.053 173.278 569.531 173.278C549.009 173.278 526.823 160.561 526.823 125.169C526.823 89.7796 549.009 77.0605 569.531 77.0605ZM569.531 155.583C577.85 155.583 591.162 151.713 591.162 125.169C591.162 98.6264 577.85 94.7555 569.531 94.7555C555.665 94.7555 547.899 105.816 547.899 125.169C547.899 145.077 555.665 155.583 569.531 155.583ZM501.309 77.613H524.05L496.873 172.726H474.132L457.493 113.557L440.3 172.726H417.559L390.381 77.613H413.677L429.761 146.735L449.173 77.613H466.368L484.67 146.735L501.309 77.613Z" fill="#BCC2CB"/>
<path d="M687.318 249.604C691.73 249.604 695.527 251.364 698.71 254.882C701.949 258.344 703.568 263.425 703.568 270.126C703.568 277.162 701.949 282.411 698.71 285.873C695.471 289.279 691.423 290.982 686.564 290.982C684.443 290.982 682.516 290.648 680.785 289.978C679.11 289.252 677.938 288.526 677.268 287.8L676.346 286.711V310.918H665.457V262.085C665.457 259.684 664.34 258.483 662.106 258.483V250.274C663.223 249.884 664.815 249.688 666.881 249.688C671.683 249.688 674.42 251.698 675.09 255.719V256.306C675.537 255.356 676.123 254.463 676.849 253.625C677.575 252.732 678.859 251.838 680.701 250.944C682.6 250.051 684.806 249.605 687.318 249.604ZM1336.8 249.604C1341.21 249.604 1345.01 251.364 1348.19 254.882C1351.43 258.344 1353.05 263.425 1353.05 270.126C1353.05 277.162 1351.43 282.411 1348.19 285.873C1344.95 289.279 1340.91 290.982 1336.05 290.982C1333.93 290.982 1332 290.648 1330.27 289.978C1328.59 289.252 1327.42 288.526 1326.75 287.8L1325.83 286.711V310.918H1314.94V262.085C1314.94 259.684 1313.82 258.483 1311.59 258.483V250.274C1312.71 249.884 1314.3 249.688 1316.36 249.688C1321.17 249.688 1323.9 251.698 1324.57 255.719V256.306C1325.02 255.356 1325.61 254.463 1326.33 253.625C1327.06 252.732 1328.34 251.838 1330.18 250.944C1332.08 250.051 1334.29 249.605 1336.8 249.604ZM887.533 250.11H901.438V258.738H887.533V272.81C887.533 278.505 889.711 281.353 894.066 281.354C895.239 281.354 896.328 281.158 897.333 280.768C898.394 280.377 899.148 279.986 899.595 279.595L900.349 279.009L903.615 286.882C903.28 287.161 902.806 287.552 902.191 288.055C901.633 288.501 900.432 289.116 898.59 289.897C896.747 290.623 894.848 290.986 892.894 290.986C887.142 290.986 882.982 289.506 880.413 286.547C877.844 283.587 876.561 279.176 876.561 273.312V258.738H870.445V250.11H876.561V237.462H887.533V250.11ZM1045.74 250.11H1059.65V258.738H1045.74V272.81C1045.74 278.505 1047.92 281.353 1052.27 281.354C1053.45 281.354 1054.54 281.158 1055.54 280.768C1056.6 280.377 1057.36 279.986 1057.8 279.595L1058.56 279.009L1061.82 286.882C1061.49 287.161 1061.01 287.552 1060.4 288.055C1059.84 288.501 1058.64 289.116 1056.8 289.897C1054.96 290.623 1053.06 290.986 1051.1 290.986C1045.35 290.986 1041.19 289.506 1038.62 286.547C1036.05 283.587 1034.77 279.176 1034.77 273.312V258.738H1028.65V250.11H1034.77V237.462H1045.74V250.11ZM488.096 249.604C491.055 249.604 493.652 250.079 495.886 251.028C498.119 251.922 499.822 253.094 500.995 254.546C502.224 255.998 503.117 257.45 503.676 258.902C504.234 260.354 504.514 261.778 504.514 263.174C504.514 267.027 503.201 269.707 500.577 271.215C498.008 272.723 494.183 273.477 489.102 273.477C487.482 273.477 485.891 273.393 484.327 273.226C482.82 273.002 481.703 272.779 480.977 272.556L479.888 272.22V272.304C479.888 275.207 480.865 277.553 482.819 279.34C484.774 281.127 487.091 282.021 489.771 282.021C491 282.021 492.172 281.853 493.289 281.518C494.462 281.127 495.412 280.68 496.138 280.178C496.863 279.675 497.505 279.172 498.063 278.67C498.622 278.167 499.013 277.748 499.236 277.413L499.655 276.827L505.268 282.606C505.156 282.83 504.96 283.137 504.681 283.528C504.457 283.919 503.843 284.589 502.838 285.538C501.889 286.487 500.828 287.325 499.655 288.051C498.483 288.777 496.863 289.447 494.797 290.062C492.787 290.676 490.609 290.982 488.264 290.982C482.512 290.982 477.849 289.196 474.275 285.622C470.702 281.992 468.915 276.91 468.915 270.377C468.915 263.788 470.534 258.678 473.772 255.049C477.067 251.419 481.842 249.605 488.096 249.604ZM572.91 249.604C575.87 249.604 578.467 250.079 580.7 251.028C582.934 251.922 584.637 253.094 585.81 254.546C587.038 255.998 587.932 257.45 588.49 258.902C589.049 260.354 589.328 261.778 589.328 263.174C589.328 267.027 588.016 269.707 585.392 271.215C582.823 272.723 578.997 273.477 573.916 273.477C572.297 273.477 570.705 273.393 569.142 273.226C567.634 273.002 566.517 272.779 565.791 272.556L564.702 272.22V272.304C564.702 275.207 565.679 277.553 567.634 279.34C569.588 281.127 571.906 282.021 574.586 282.021C575.814 282.02 576.987 281.853 578.104 281.518C579.276 281.127 580.226 280.68 580.952 280.178C581.678 279.675 582.32 279.172 582.878 278.67C583.436 278.167 583.827 277.748 584.051 277.413L584.47 276.827L590.082 282.606C589.97 282.83 589.774 283.137 589.495 283.528C589.272 283.919 588.657 284.589 587.652 285.538C586.703 286.487 585.642 287.325 584.47 288.051C583.297 288.777 581.677 289.447 579.611 290.062C577.601 290.676 575.423 290.982 573.078 290.982C567.326 290.982 562.664 289.196 559.09 285.622C555.516 281.992 553.729 276.91 553.729 270.377C553.73 263.788 555.348 258.678 558.587 255.049C561.881 251.419 566.656 249.605 572.91 249.604ZM636.959 249.604C642.822 249.604 647.43 251.475 650.78 255.217C654.131 258.958 655.806 263.956 655.806 270.21C655.806 276.52 654.131 281.574 650.78 285.371C647.486 289.112 642.878 290.982 636.959 290.982C631.04 290.982 626.433 289.112 623.139 285.371C619.844 281.574 618.196 276.52 618.196 270.21C618.196 263.956 619.844 258.958 623.139 255.217C626.489 251.475 631.096 249.605 636.959 249.604ZM801.326 249.604C804.286 249.604 806.883 250.079 809.116 251.028C811.35 251.922 813.053 253.094 814.226 254.546C815.454 255.998 816.348 257.45 816.906 258.902C817.465 260.354 817.744 261.778 817.744 263.174C817.744 267.027 816.431 269.707 813.807 271.215C811.238 272.722 807.413 273.477 802.332 273.477C800.713 273.477 799.12 273.393 797.557 273.226C796.049 273.002 794.933 272.779 794.207 272.556L793.118 272.22V272.304C793.118 275.207 794.095 277.553 796.05 279.34C798.004 281.127 800.322 282.021 803.002 282.021C804.23 282.02 805.403 281.853 806.52 281.518C807.692 281.127 808.641 280.68 809.367 280.178C810.093 279.675 810.736 279.172 811.294 278.67C811.852 278.167 812.243 277.748 812.467 277.413L812.886 276.827L818.498 282.606C818.386 282.83 818.19 283.137 817.911 283.528C817.688 283.919 817.073 284.589 816.068 285.538C815.119 286.487 814.058 287.325 812.886 288.051C811.713 288.777 810.093 289.447 808.027 290.062C806.017 290.676 803.839 290.982 801.494 290.982C795.743 290.982 791.08 289.196 787.506 285.622C783.932 281.992 782.145 276.91 782.145 270.377C782.145 263.788 783.764 258.678 787.003 255.049C790.298 251.419 795.072 249.605 801.326 249.604ZM999.062 249.604C999.955 249.604 1000.82 249.688 1001.66 249.855C1002.55 249.967 1003.36 250.163 1004.09 250.442C1004.81 250.666 1005.46 250.917 1006.01 251.196C1006.57 251.42 1007.13 251.726 1007.69 252.117C1008.25 252.508 1008.67 252.816 1008.95 253.039C1009.22 253.207 1009.56 253.485 1009.95 253.876C1010.4 254.211 1010.65 254.407 1010.71 254.463V250.107H1020.34V278.502C1020.34 279.73 1020.59 280.652 1021.09 281.267C1021.59 281.825 1022.46 282.104 1023.69 282.104V290.312C1022.51 290.703 1020.92 290.899 1018.91 290.899C1014.11 290.899 1011.38 288.861 1010.71 284.784V284.198C1010.43 284.812 1010.06 285.427 1009.62 286.041C1009.17 286.599 1008.47 287.297 1007.52 288.135C1006.57 288.972 1005.32 289.671 1003.75 290.229C1002.19 290.732 1000.4 290.982 998.392 290.982C994.036 290.982 990.267 289.224 987.084 285.706C983.901 282.188 982.31 277.078 982.31 270.377C982.31 263.341 983.901 258.12 987.084 254.714C990.267 251.308 994.259 249.605 999.062 249.604ZM1082.79 249.604C1083.69 249.604 1084.55 249.688 1085.39 249.855C1086.28 249.967 1087.09 250.163 1087.82 250.442C1088.55 250.666 1089.19 250.917 1089.75 251.196C1090.3 251.42 1090.86 251.726 1091.42 252.117C1091.98 252.508 1092.4 252.816 1092.68 253.039C1092.96 253.207 1093.29 253.485 1093.68 253.876C1094.13 254.211 1094.38 254.407 1094.44 254.463V250.107H1104.07V278.502C1104.07 279.73 1104.32 280.652 1104.82 281.267C1105.33 281.825 1106.19 282.104 1107.42 282.104V290.312C1106.25 290.703 1104.66 290.899 1102.65 290.899C1097.84 290.899 1095.11 288.861 1094.44 284.784V284.198C1094.16 284.812 1093.8 285.427 1093.35 286.041C1092.9 286.599 1092.2 287.297 1091.25 288.135C1090.3 288.972 1089.05 289.671 1087.48 290.229C1085.92 290.732 1084.13 290.982 1082.12 290.982C1077.77 290.982 1074 289.224 1070.82 285.706C1067.63 282.188 1066.04 277.078 1066.04 270.377C1066.04 263.341 1067.63 258.12 1070.82 254.714C1074 251.308 1077.99 249.605 1082.79 249.604ZM1239.59 249.604C1245.45 249.604 1250.06 251.475 1253.41 255.217C1256.76 258.958 1258.43 263.956 1258.43 270.21C1258.43 276.52 1256.76 281.574 1253.41 285.371C1250.11 289.112 1245.51 290.982 1239.59 290.982C1233.67 290.982 1229.06 289.112 1225.77 285.371C1222.47 281.574 1220.82 276.52 1220.82 270.21C1220.82 263.956 1222.47 258.958 1225.77 255.217C1229.12 251.475 1233.72 249.605 1239.59 249.604ZM1277.39 273.973C1277.39 278.886 1279.29 281.344 1283.08 281.344C1285.1 281.344 1286.74 280.701 1288.03 279.417C1289.37 278.133 1290.2 276.904 1290.54 275.731C1290.93 274.559 1291.13 273.553 1291.13 272.716V250.101H1302.1V278.496C1302.1 280.897 1303.22 282.098 1305.45 282.098V290.306C1304.33 290.697 1302.74 290.893 1300.68 290.893C1295.87 290.893 1293.11 288.715 1292.38 284.359V284.107C1290.21 288.686 1285.82 290.977 1279.23 290.977C1270.69 290.977 1266.42 286.118 1266.42 276.401V250.101H1277.39V273.973ZM1158.37 231.331C1162.05 231.331 1165.29 231.945 1168.08 233.174C1170.93 234.402 1173.11 235.854 1174.62 237.529C1176.13 239.205 1177.36 241.075 1178.3 243.142C1179.25 245.152 1179.84 246.8 1180.06 248.084C1180.34 249.368 1180.48 250.401 1180.48 251.183L1169.76 252.858C1169.76 252.523 1169.73 252.104 1169.68 251.602C1169.62 251.099 1169.37 250.205 1168.92 248.921C1168.53 247.581 1167.97 246.408 1167.25 245.403C1166.52 244.398 1165.41 243.504 1163.9 242.723C1162.39 241.885 1160.6 241.467 1158.54 241.467C1154.24 241.467 1150.8 243.142 1148.23 246.492C1145.66 249.787 1144.38 254.701 1144.38 261.234C1144.38 267.768 1145.75 272.682 1148.49 275.977C1151.22 279.215 1154.66 280.835 1158.79 280.835C1162.64 280.835 1165.46 279.801 1167.25 277.735C1169.03 275.669 1169.93 273.044 1169.93 269.861V268.605H1156.78V259.978H1180.73V269.778C1180.73 275.586 1178.86 280.583 1175.12 284.771C1171.38 288.904 1165.85 290.97 1158.54 290.97C1150.5 290.97 1144.13 288.429 1139.44 283.348C1134.75 278.266 1132.4 270.895 1132.4 261.234C1132.4 251.574 1134.69 244.175 1139.27 239.037C1143.91 233.9 1150.27 231.331 1158.37 231.331ZM759.002 249.604C763.86 249.605 767.461 251.084 769.807 254.044C772.152 257.003 773.325 260.856 773.325 265.603V278.502C773.325 279.73 773.577 280.652 774.079 281.267C774.582 281.825 775.447 282.104 776.676 282.104V290.312C775.559 290.703 773.939 290.899 771.817 290.899C765.507 290.899 762.353 287.353 762.353 280.262V266.608C762.353 264.375 761.765 262.587 760.593 261.247C759.476 259.907 757.857 259.237 755.735 259.237C753.781 259.237 752.245 259.852 751.128 261.08C750.011 262.309 749.285 263.789 748.95 265.52V278.502C748.95 279.73 749.202 280.652 749.704 281.267C750.207 281.825 751.072 282.104 752.301 282.104V290.312C751.128 290.703 749.509 290.899 747.442 290.899C741.132 290.899 737.978 287.353 737.978 280.262V266.608C737.978 264.375 737.391 262.587 736.219 261.247C735.102 259.907 733.482 259.237 731.36 259.237C729.015 259.237 727.228 260.075 725.999 261.75C724.771 263.425 724.129 265.296 724.073 267.362V290.48H713.184V262.085C713.184 259.684 712.067 258.483 709.833 258.483V250.274C710.95 249.884 712.541 249.688 714.607 249.688C716.785 249.688 718.573 250.218 719.969 251.279C721.421 252.284 722.313 253.709 722.648 255.552V256.557C724.212 251.922 728.205 249.604 734.627 249.604C740.602 249.605 744.706 251.95 746.939 256.641C748.726 251.95 752.748 249.604 759.002 249.604ZM849.045 249.604C853.903 249.604 857.505 251.084 859.851 254.044C862.196 257.003 863.368 260.856 863.368 265.603V278.502C863.368 279.73 863.62 280.652 864.122 281.267C864.625 281.825 865.49 282.104 866.719 282.104V290.312C865.546 290.703 863.926 290.899 861.86 290.899C855.551 290.899 852.396 287.353 852.396 280.262V266.608C852.396 264.375 851.809 262.587 850.637 261.247C849.52 259.907 847.9 259.237 845.778 259.237C843.433 259.237 841.646 260.075 840.418 261.75C839.189 263.425 838.547 265.296 838.491 267.362V290.48H827.602V262.085C827.602 259.684 826.485 258.484 824.252 258.483V250.274C825.369 249.884 826.96 249.688 829.026 249.688C833.717 249.689 836.397 251.643 837.067 255.552V256.557C838.631 251.922 842.623 249.605 849.045 249.604ZM608.582 278.496C608.582 280.897 609.699 282.099 611.933 282.099V290.307C610.76 290.698 609.14 290.894 607.074 290.894C600.764 290.894 597.61 287.347 597.609 280.256V229.663H608.582V278.496ZM1212.29 249.604C1213.52 249.605 1214.67 249.744 1215.73 250.023C1216.79 250.303 1217.54 250.554 1217.99 250.777L1218.66 251.196L1214.22 260.828C1213.1 259.991 1211.37 259.572 1209.03 259.572C1206.74 259.572 1204.98 260.382 1203.75 262.001C1202.58 263.62 1201.93 265.408 1201.82 267.362V290.48H1190.93V262.085C1190.93 259.684 1189.82 258.483 1187.58 258.483V250.274C1188.53 249.884 1190.04 249.688 1192.11 249.688C1194.28 249.689 1196.1 250.218 1197.55 251.279C1199 252.284 1199.92 253.821 1200.31 255.887V256.892C1201.88 252.033 1205.87 249.604 1212.29 249.604ZM433.069 231.842C437.09 231.842 440.775 232.401 444.126 233.518C447.532 234.634 450.604 236.366 453.34 238.711C456.132 241 458.31 244.155 459.873 248.176C461.437 252.196 462.219 256.859 462.219 262.164C462.219 267.19 461.493 271.573 460.041 275.314C458.645 279.056 456.691 282.016 454.178 284.193C451.665 286.315 448.845 287.907 445.718 288.968C442.646 289.973 439.268 290.476 435.582 290.476H415.898V231.842H433.069ZM946.464 231.842C950.484 231.842 954.17 232.401 957.521 233.518C960.927 234.634 963.998 236.366 966.734 238.711C969.526 241 971.704 244.155 973.268 248.176C974.831 252.196 975.613 256.859 975.613 262.164C975.613 267.19 974.887 271.573 973.436 275.314C972.04 279.056 970.085 282.016 967.572 284.193C965.059 286.315 962.239 287.907 959.112 288.968C956.041 289.973 952.662 290.476 948.977 290.476H929.293V231.842H946.464ZM529.418 277.825L538.967 250.101H550.526L534.946 290.474H523.723L508.227 250.101H520.037L529.418 277.825ZM636.959 259.153C631.654 259.153 629.002 262.867 629.002 270.294C629.002 277.721 631.654 281.434 636.959 281.434C642.264 281.434 644.917 277.721 644.917 270.294C644.917 262.867 642.264 259.153 636.959 259.153ZM684.22 259.153C682.265 259.153 680.618 259.739 679.277 260.912C677.993 262.085 677.184 263.258 676.849 264.431L676.346 266.189V274.481C676.457 275.933 677.156 277.469 678.44 279.089C679.781 280.652 681.735 281.434 684.304 281.434C686.816 281.433 688.854 280.484 690.418 278.586C691.981 276.687 692.764 273.923 692.764 270.294C692.764 266.553 691.925 263.76 690.25 261.917C688.575 260.075 686.565 259.153 684.22 259.153ZM1001.32 259.153C998.866 259.153 996.884 260.102 995.376 262.001C993.868 263.9 993.114 266.664 993.114 270.294C993.114 273.979 993.925 276.771 995.544 278.67C997.163 280.513 999.118 281.434 1001.41 281.434C1005.32 281.322 1007.97 279.033 1009.36 274.565V266.021C1009.31 264.737 1008.61 263.285 1007.27 261.666C1005.93 259.991 1003.95 259.153 1001.32 259.153ZM1085.06 259.153C1082.6 259.153 1080.62 260.102 1079.11 262.001C1077.6 263.9 1076.85 266.664 1076.85 270.294C1076.85 273.979 1077.66 276.771 1079.28 278.67C1080.9 280.513 1082.85 281.434 1085.14 281.434C1089.05 281.322 1091.7 279.033 1093.1 274.565V266.021C1093.04 264.737 1092.34 263.285 1091 261.666C1089.66 259.991 1087.68 259.153 1085.06 259.153ZM1239.59 259.153C1234.28 259.153 1231.63 262.867 1231.63 270.294C1231.63 277.721 1234.28 281.433 1239.59 281.434C1244.89 281.434 1247.54 277.721 1247.54 270.294C1247.54 262.867 1244.89 259.153 1239.59 259.153ZM1333.7 259.153C1331.75 259.153 1330.1 259.739 1328.76 260.912C1327.48 262.085 1326.67 263.258 1326.33 264.431L1325.83 266.189V274.481C1325.94 275.933 1326.64 277.469 1327.92 279.089C1329.26 280.652 1331.22 281.434 1333.79 281.434C1336.3 281.433 1338.34 280.484 1339.9 278.586C1341.46 276.687 1342.25 273.923 1342.25 270.294C1342.25 266.553 1341.41 263.76 1339.73 261.917C1338.06 260.075 1336.05 259.153 1333.7 259.153ZM427.457 281.094H435.498C440.133 281.094 443.818 279.447 446.555 276.152C449.347 272.858 450.743 268.139 450.743 261.996C450.743 255.351 449.263 250.242 446.304 246.668C443.4 243.038 438.932 241.224 432.901 241.224H427.457V281.094ZM940.852 281.094H948.894C953.528 281.094 957.214 279.447 959.95 276.152C962.742 272.858 964.138 268.139 964.138 261.996C964.138 255.351 962.658 250.242 959.698 246.668C956.795 243.038 952.328 241.224 946.297 241.224H940.852V281.094ZM487.51 258.231C485.332 258.231 483.545 258.902 482.149 260.242C480.809 261.527 480.139 263.286 480.139 265.52C481.702 266.525 484.131 267.027 487.426 267.027C492.06 267.027 494.378 265.91 494.378 263.677C494.378 262.337 493.764 261.108 492.535 259.991C491.362 258.819 489.688 258.231 487.51 258.231ZM572.324 258.231C570.147 258.231 568.36 258.902 566.964 260.242C565.624 261.527 564.953 263.286 564.953 265.52C566.517 266.525 568.946 267.027 572.24 267.027C576.875 267.027 579.192 265.91 579.192 263.677C579.192 262.337 578.578 261.108 577.35 259.991C576.177 258.819 574.502 258.231 572.324 258.231ZM800.74 258.231C798.562 258.231 796.775 258.902 795.379 260.242C794.039 261.527 793.369 263.286 793.369 265.52C794.933 266.525 797.362 267.027 800.656 267.027C805.291 267.027 807.608 265.91 807.608 263.677C807.608 262.337 806.994 261.108 805.766 259.991C804.593 258.819 802.918 258.231 800.74 258.231Z" fill="#BCC2CB"/>
<path d="M608.578 211.465C618.631 211.468 626.774 219.61 626.776 229.663V232.642C630.08 231.79 633.496 231.392 636.935 231.392C642.396 231.392 647.801 232.398 652.784 234.628C653.815 234.015 654.916 233.496 656.079 233.089C660.054 231.698 664.045 231.482 666.869 231.481C669.729 231.481 673.116 231.844 676.577 233.029C680.178 231.861 683.818 231.392 687.307 231.392C692.246 231.392 696.84 232.438 700.989 234.346C701.876 233.855 702.811 233.432 703.791 233.089L706.752 232.248C709.684 231.6 712.463 231.481 714.581 231.481C717.465 231.482 720.579 231.903 723.688 232.954C727.45 231.784 731.204 231.392 734.598 231.392C738.488 231.392 742.637 231.956 746.709 233.465C750.888 231.92 755.122 231.392 758.972 231.392C765.714 231.392 773.028 233.099 779.121 237.845C785.821 233.173 793.675 231.393 801.289 231.392C806.048 231.392 811.02 232.148 815.825 234.122C816.587 233.726 817.383 233.378 818.21 233.089L821.17 232.248C824.103 231.599 826.88 231.481 828.999 231.481C831.731 231.482 834.957 231.812 838.271 232.894C841.978 231.763 845.672 231.392 849.016 231.392C852.268 231.392 855.653 231.789 858.97 232.732C861.048 224.968 868.125 219.25 876.546 219.249H887.516C895.756 219.249 902.717 224.723 904.963 232.232C907.16 232.665 909.213 233.494 911.049 234.64V231.842C911.051 221.787 919.206 213.629 929.262 213.629H946.423C952.1 213.629 957.734 214.422 963.148 216.214C968.705 218.036 973.774 220.871 978.236 224.629C978.338 224.712 978.451 224.8 978.552 224.885H978.536C981.641 227.485 984.191 230.486 986.263 233.736C990.26 232.178 994.561 231.392 999.034 231.392C1000.64 231.392 1002.25 231.545 1003.87 231.797L1003.89 231.782C1004.06 231.804 1004.24 231.847 1004.41 231.872C1004.67 231.917 1004.94 231.94 1005.2 231.992L1005.18 232.008C1005.71 232.097 1006.25 232.185 1006.79 232.308C1008.04 232.036 1009.33 231.903 1010.67 231.902H1017.44C1019.78 224.563 1026.65 219.249 1034.77 219.249H1045.74C1053.98 219.251 1060.92 224.725 1063.17 232.232C1065.14 232.62 1067 233.325 1068.69 234.293C1073.06 232.365 1077.82 231.392 1082.8 231.392C1084.4 231.392 1086.01 231.545 1087.63 231.797L1087.65 231.782C1087.83 231.804 1088 231.847 1088.18 231.872C1088.43 231.917 1088.7 231.94 1088.96 231.992L1088.94 232.008C1089.47 232.097 1090.01 232.185 1090.55 232.308C1091.8 232.036 1093.1 231.903 1094.43 231.902H1104.06C1109.81 231.902 1114.94 234.57 1118.28 238.735C1120.05 234.509 1122.46 230.524 1125.67 226.928L1125.74 226.853C1134.43 217.227 1146.08 213.133 1158.37 213.133C1164.06 213.133 1169.88 214.083 1175.41 216.515H1175.39C1179.77 218.414 1184.39 221.183 1188.15 225.365C1189.87 227.269 1191.38 229.315 1192.7 231.487C1195.49 231.543 1198.44 231.987 1201.36 232.984C1205.12 231.791 1208.88 231.392 1212.29 231.392C1214.24 231.392 1216.26 231.56 1218.3 231.947L1220.36 232.413C1221.25 232.648 1222.78 233.065 1224.44 233.735L1225.12 234.038C1229.71 232.219 1234.62 231.392 1239.58 231.392C1245.33 231.392 1251.02 232.508 1256.22 234.997C1259.13 233.043 1262.62 231.902 1266.39 231.902H1277.36C1279.78 231.902 1282.1 232.376 1284.22 233.239C1286.34 232.375 1288.66 231.903 1291.09 231.902H1302.08C1303.82 231.903 1305.51 232.149 1307.11 232.608C1310.56 231.646 1313.91 231.482 1316.37 231.481C1319.23 231.481 1322.61 231.844 1326.07 233.029C1329.67 231.861 1333.32 231.392 1336.8 231.392C1346.67 231.392 1355.16 235.567 1361.48 242.437H1361.49C1361.56 242.51 1361.64 242.588 1361.7 242.662H1361.69C1369.03 250.642 1371.26 260.807 1371.26 270.132L1371.16 273.724C1370.64 282.193 1368.17 291.173 1361.49 298.308L1361.4 298.413C1356.53 303.539 1350.57 306.806 1344.05 308.271V310.916L1343.96 312.779C1343.02 321.961 1335.26 329.129 1325.83 329.129H1314.95C1304.9 329.129 1296.74 320.973 1296.74 310.916V308.86C1294.83 308.613 1292.82 308.167 1290.79 307.444C1286.98 308.644 1283.02 309.187 1279.2 309.188C1273.06 309.188 1266.14 307.728 1260.24 303.349C1254.02 307.445 1246.81 309.187 1239.58 309.188C1231.32 309.187 1223.1 306.921 1216.33 301.475C1213.01 305.859 1207.74 308.692 1201.81 308.692H1190.92C1186.44 308.691 1182.35 307.073 1179.18 304.393C1172.76 307.845 1165.57 309.187 1158.53 309.188C1147.08 309.188 1136.22 305.635 1127.73 297.422L1126.06 295.708C1125.73 295.353 1125.41 294.993 1125.1 294.63C1123.64 300.612 1119.21 305.568 1113.18 307.58C1109.36 308.854 1105.55 309.112 1102.65 309.112C1099.8 309.112 1096.45 308.728 1093.03 307.564C1089.32 308.753 1085.61 309.187 1082.12 309.188C1076.48 309.187 1071.31 307.811 1066.75 305.365C1065.59 305.937 1064.57 306.366 1063.91 306.648C1063.76 306.709 1063.62 306.771 1063.47 306.828C1059.53 308.38 1055.36 309.187 1051.09 309.188C1045.65 309.187 1039.48 308.291 1033.8 305.428C1032.46 306.323 1031 307.053 1029.42 307.58C1025.6 308.854 1021.79 309.112 1018.88 309.112C1016.04 309.112 1012.69 308.728 1009.27 307.564C1005.56 308.753 1001.84 309.188 998.357 309.188C989.683 309.187 982.114 305.932 976.153 300.525C972.704 302.945 968.943 304.849 964.922 306.213L964.741 306.272C959.606 307.953 954.289 308.692 948.947 308.692H929.262C923.283 308.692 917.976 305.809 914.655 301.357C914.374 301.59 914.058 301.853 913.708 302.14L913.559 302.275C910.752 304.521 907.243 305.987 905.684 306.648C905.539 306.71 905.394 306.771 905.248 306.828C901.309 308.38 897.15 309.187 892.881 309.188C887.671 309.187 881.78 308.36 876.297 305.769C875.105 306.509 873.816 307.122 872.443 307.58C868.584 308.866 864.728 309.112 861.834 309.112C857.598 309.112 852.734 308.271 848.174 305.852C845.361 307.632 842.042 308.692 838.467 308.692H827.571C823.99 308.692 820.651 307.656 817.834 305.869C816.22 306.54 814.635 307.071 813.176 307.505C809.301 308.673 805.363 309.187 801.469 309.188C796.037 309.187 790.701 308.207 785.754 306.078C784.779 306.641 783.745 307.123 782.655 307.505C778.648 308.906 774.603 309.112 771.79 309.112C768.141 309.112 764.027 308.468 760.039 306.754C759.388 307.061 758.721 307.348 758.025 307.58C754.167 308.866 750.31 309.112 747.416 309.112C743.181 309.112 738.315 308.27 733.756 305.852C730.943 307.633 727.623 308.691 724.048 308.692H713.153C709.241 308.692 705.617 307.457 702.648 305.356C700.083 306.667 697.37 307.638 694.55 308.271V310.916L694.459 312.779C693.526 321.961 685.764 329.129 676.336 329.129H665.441C655.388 329.125 647.243 320.97 647.243 310.916V307.911C643.885 308.785 640.414 309.188 636.935 309.188C631.521 309.187 626.126 308.211 621.144 306.005C620.063 306.639 618.908 307.172 617.685 307.58C613.824 308.867 609.955 309.112 607.061 309.112C602.286 309.112 596.701 308.072 591.671 304.863C589.31 306.039 586.915 306.873 584.79 307.505C580.915 308.672 576.977 309.187 573.083 309.188C564.614 309.187 556.378 306.807 549.489 301.398C546.109 305.911 540.754 308.692 534.929 308.692H523.703C518.519 308.692 513.701 306.492 510.319 302.83C509.961 303.072 509.6 303.31 509.232 303.538C506.146 305.448 502.824 306.673 499.976 307.52L499.96 307.505C496.085 308.672 492.148 309.187 488.254 309.188C479.631 309.187 471.249 306.724 464.285 301.104L463.264 300.188C459.686 302.769 455.763 304.786 451.557 306.213L451.377 306.272C446.241 307.953 440.912 308.692 435.568 308.692H415.882C405.829 308.688 397.684 300.533 397.684 290.479V231.842C397.686 221.789 405.83 213.633 415.882 213.629H433.059C438.733 213.629 444.357 214.424 449.769 216.214H449.784L449.874 216.244H449.859C455.386 218.066 460.414 220.89 464.856 224.629H464.871C464.974 224.713 465.085 224.799 465.187 224.885H465.172C468.374 227.567 470.983 230.678 473.085 234.048C477.923 232.172 483.057 231.392 488.089 231.392C492.266 231.392 496.6 231.977 500.848 233.455C503.135 232.446 505.638 231.902 508.21 231.902H520.021C523.45 231.903 526.683 232.904 529.474 234.607C532.269 232.898 535.521 231.902 538.956 231.902H550.513C553.356 231.903 556.113 232.567 558.588 233.792C563.229 232.101 568.121 231.392 572.918 231.392C575.047 231.392 577.216 231.545 579.395 231.89V229.663C579.397 219.611 587.541 211.469 597.593 211.465H608.578ZM687.307 249.604C684.796 249.605 682.592 250.049 680.694 250.941C678.857 251.832 677.575 252.726 676.848 253.617C676.122 254.455 675.521 255.357 675.074 256.307V255.721C674.515 252.363 672.516 250.401 669.075 249.845C669.081 249.855 669.087 249.865 669.093 249.875C668.58 249.792 668.034 249.723 667.457 249.694L666.869 249.68C664.81 249.68 663.221 249.877 662.105 250.266V258.485C664.332 258.488 665.439 259.683 665.441 262.077V310.916H676.336V286.707L677.253 287.804C677.923 288.53 679.109 289.257 680.784 289.983C682.512 290.651 684.437 290.974 686.555 290.975C691.413 290.975 695.458 289.272 698.697 285.865C701.934 282.404 703.564 277.163 703.565 270.132C703.565 263.431 701.936 258.341 698.697 254.879C697.443 253.494 696.093 252.383 694.648 251.543C693.672 250.979 692.652 250.538 691.589 250.221C691.589 250.218 691.589 250.215 691.589 250.213C690.232 249.807 688.805 249.605 687.307 249.604ZM1336.8 249.604C1334.29 249.605 1332.09 250.049 1330.19 250.941C1328.35 251.833 1327.07 252.726 1326.34 253.617C1325.62 254.455 1325.03 255.358 1324.59 256.307V255.721C1324.13 252.959 1322.69 251.141 1320.27 250.273V250.311C1319.17 249.911 1317.87 249.68 1316.36 249.68C1314.3 249.681 1312.72 249.877 1311.6 250.266V258.485C1313.83 258.488 1314.95 259.682 1314.95 262.077V310.916H1325.83V286.707L1326.75 287.804C1327.42 288.53 1328.61 289.257 1330.28 289.983C1332.01 290.651 1333.94 290.974 1336.05 290.975C1340.91 290.975 1344.96 289.271 1348.19 285.865C1351.43 282.404 1353.06 277.164 1353.06 270.132C1353.06 263.431 1351.43 258.341 1348.19 254.879C1345.01 251.363 1341.21 249.604 1336.8 249.604ZM488.089 249.604C484.806 249.604 481.93 250.105 479.462 251.104L479.463 251.107C478.355 251.557 477.328 252.106 476.384 252.756C476.253 252.846 476.123 252.939 475.995 253.033C475.776 253.195 475.561 253.361 475.351 253.534C474.79 253.997 474.262 254.5 473.768 255.044C470.529 258.673 468.899 263.785 468.898 270.372C468.898 276.497 470.473 281.354 473.614 284.928C473.824 285.166 474.04 285.398 474.264 285.625C474.514 285.875 474.784 286.099 475.045 286.331C475.041 286.338 475.037 286.345 475.033 286.352C478.498 289.439 482.907 290.974 488.254 290.975C490.599 290.975 492.781 290.672 494.791 290.058C496.856 289.444 498.472 288.77 499.645 288.044C500.662 287.414 501.598 286.701 502.448 285.903L502.439 285.881C502.565 285.762 502.708 285.657 502.83 285.535C503.834 284.587 504.455 283.912 504.679 283.521C504.955 283.134 505.154 282.827 505.265 282.604L499.645 276.819L499.224 277.405C499 277.74 498.61 278.165 498.052 278.667C497.494 279.169 496.852 279.668 496.128 280.17C495.403 280.672 494.459 281.132 493.288 281.522C492.171 281.857 490.985 282.019 489.757 282.019C487.081 282.017 484.766 281.126 482.814 279.344C480.86 277.557 479.884 275.2 479.884 272.296V272.221L480.966 272.551C481.692 272.774 482.809 273.004 484.316 273.228C485.88 273.395 487.476 273.468 489.096 273.468C492.354 273.468 495.094 273.157 497.318 272.538L497.301 272.491C498.544 272.145 499.641 271.754 500.562 271.214C503.186 269.706 504.498 267.026 504.498 263.174C504.498 261.78 504.229 260.356 503.672 258.906C503.114 257.455 502.211 256.001 500.982 254.549C499.883 253.188 498.317 252.073 496.285 251.203L495.873 251.032C494.165 250.306 492.245 249.859 490.112 249.688L488.089 249.604ZM572.918 249.604C571.426 249.604 570.018 249.708 568.694 249.915C568.694 249.917 568.695 249.918 568.695 249.92C566.328 250.289 564.23 250.986 562.401 252.014C562.385 252.023 562.37 252.033 562.354 252.042C562.095 252.189 561.842 252.343 561.594 252.503C561.336 252.67 561.083 252.843 560.837 253.024C560.738 253.097 560.641 253.17 560.544 253.245C560.259 253.466 559.982 253.697 559.713 253.938C559.64 254.003 559.567 254.07 559.495 254.137C559.185 254.426 558.884 254.727 558.597 255.044C555.359 258.673 553.729 263.785 553.729 270.372C553.729 270.712 553.734 271.048 553.744 271.38C553.762 272.001 553.796 272.609 553.849 273.203C553.849 273.212 553.85 273.221 553.851 273.23C554.206 277.203 555.329 280.556 557.199 283.296L557.192 283.313C557.757 284.14 558.39 284.911 559.093 285.625C562.666 289.197 567.333 290.975 573.083 290.975C575.427 290.974 577.611 290.672 579.62 290.058C579.973 289.953 580.311 289.844 580.638 289.735C580.634 289.723 580.63 289.71 580.627 289.697C582.204 289.174 583.491 288.643 584.459 288.044C585.63 287.319 586.696 286.483 587.645 285.535C588.648 284.588 589.255 283.912 589.479 283.521C589.757 283.132 589.953 282.827 590.064 282.604L584.467 276.827L584.054 277.405C583.83 277.74 583.439 278.165 582.881 278.667C582.324 279.168 581.682 279.669 580.958 280.17C580.232 280.672 579.275 281.132 578.103 281.522C576.987 281.856 575.813 282.019 574.586 282.019C571.91 282.018 569.596 281.126 567.644 279.344C565.689 277.557 564.698 275.2 564.698 272.296V272.221L565.795 272.551C566.521 272.774 567.639 273.004 569.146 273.228C570.709 273.395 572.306 273.468 573.925 273.468C575.947 273.468 577.77 273.345 579.395 273.107V273.062C581.837 272.701 583.836 272.117 585.376 271.214C588 269.706 589.312 267.026 589.312 263.174C589.312 261.779 589.029 260.357 588.472 258.906C587.914 257.455 587.025 256 585.797 254.549C584.624 253.097 582.92 251.926 580.688 251.032C580.27 250.855 579.838 250.695 579.395 250.551V250.543C578.066 250.111 576.624 249.827 575.067 249.694L572.918 249.604ZM636.935 249.604C632.978 249.605 629.591 250.455 626.776 252.157V252.189C625.429 253.008 624.194 253.999 623.109 255.21C619.815 258.951 618.181 263.954 618.181 270.207C618.181 276.515 619.817 281.572 623.109 285.369C623.343 285.634 623.583 285.889 623.83 286.135C623.838 286.143 623.846 286.151 623.854 286.159C625.611 287.896 627.71 289.14 630.127 289.938V289.971C632.162 290.639 634.431 290.974 636.935 290.975C640.984 290.975 644.421 290.101 647.243 288.352V288.314C648.538 287.508 649.724 286.545 650.76 285.369C654.11 281.572 655.779 276.516 655.779 270.207C655.779 269.034 655.72 267.906 655.603 266.821C655.563 266.46 655.518 266.103 655.466 265.752C654.839 261.531 653.272 258.016 650.76 255.21C648.872 253.103 646.577 251.607 643.893 250.687V250.67C641.812 249.959 639.492 249.604 636.935 249.604ZM801.289 249.604C796.476 249.606 792.537 250.68 789.476 252.83C789.476 252.832 789.477 252.833 789.478 252.835C788.796 253.314 788.154 253.844 787.559 254.429C787.357 254.628 787.16 254.833 786.968 255.044C783.73 258.673 782.115 263.785 782.114 270.372C782.114 276.089 783.485 280.7 786.222 284.195C786.417 284.445 786.62 284.689 786.829 284.928C787.039 285.166 787.255 285.398 787.479 285.625C787.871 286.017 788.278 286.386 788.696 286.735C790.505 288.235 792.562 289.324 794.857 290.028V290.049C796.874 290.665 799.077 290.975 801.469 290.975C803.81 290.974 805.984 290.67 807.991 290.058C808.471 289.915 808.926 289.768 809.358 289.619V289.577C810.775 289.088 811.949 288.598 812.845 288.044C814.014 287.32 815.069 286.482 816.016 285.535C817.021 284.586 817.641 283.912 817.864 283.521C818.142 283.132 818.339 282.827 818.45 282.604L812.853 276.827L812.439 277.405C812.216 277.74 811.824 278.165 811.267 278.667C810.71 279.168 810.067 279.669 809.344 280.17C808.618 280.672 807.661 281.132 806.488 281.522C805.372 281.857 804.199 282.018 802.972 282.019C800.292 282.019 797.969 281.13 796.015 279.344C794.06 277.557 793.084 275.2 793.084 272.296V272.221L794.181 272.551C794.907 272.774 796.027 273.005 797.532 273.228C799.092 273.394 800.68 273.468 802.296 273.468C805.007 273.468 807.361 273.252 809.358 272.825V272.807C811.096 272.432 812.567 271.915 813.762 271.214C816.386 269.706 817.698 267.026 817.698 263.174C817.698 261.779 817.415 260.357 816.857 258.906C816.299 257.456 815.41 256 814.183 254.549C813.011 253.098 811.305 251.925 809.073 251.032C808.12 250.627 807.094 250.317 806.008 250.085C806.008 250.081 806.008 250.077 806.008 250.073C805.193 249.899 804.342 249.77 803.453 249.694L801.289 249.604ZM876.546 250.101H870.43V258.726H876.546V273.303C876.546 279.166 877.84 283.582 880.408 286.542C881.105 287.344 881.918 288.035 882.848 288.619C883.479 289.012 884.163 289.357 884.901 289.652V289.657C887.089 290.535 889.748 290.975 892.881 290.975C894.835 290.975 896.734 290.618 898.576 289.893C900.419 289.111 901.624 288.491 902.183 288.044C902.795 287.543 903.276 287.151 903.61 286.872L900.334 278.998L899.583 279.584C899.136 279.975 898.374 280.365 897.313 280.756C896.31 281.146 895.224 281.342 894.053 281.342C889.699 281.341 887.516 278.501 887.516 272.807V258.726H901.431V250.101H887.516V237.462H876.546V250.101ZM999.034 249.604C994.541 249.604 990.755 251.098 987.679 254.08C987.468 254.284 987.261 254.496 987.057 254.714C983.874 258.12 982.279 263.338 982.278 270.372C982.278 277.073 983.874 282.182 987.057 285.7C990.239 289.217 994.003 290.974 998.357 290.975C1000.37 290.975 1002.16 290.726 1003.72 290.224C1005.28 289.666 1006.55 288.972 1007.49 288.135C1008.44 287.3 1009.14 286.603 1009.58 286.046C1010.03 285.433 1010.39 284.811 1010.67 284.197V284.783C1011.34 288.86 1014.08 290.899 1018.88 290.899C1019.29 290.899 1019.68 290.888 1020.05 290.872C1020.04 290.856 1020.03 290.84 1020.03 290.824C1021.28 290.772 1022.34 290.664 1023.21 290.442C1023.36 290.402 1023.51 290.36 1023.65 290.313V282.108C1022.43 282.107 1021.57 281.821 1021.06 281.267C1020.56 280.653 1020.3 279.73 1020.3 278.502V250.101H1010.68V254.458C1010.68 254.454 1010.67 254.45 1010.67 254.445V254.458C1010.6 254.396 1010.35 254.198 1009.91 253.872C1009.52 253.483 1009.18 253.197 1008.91 253.03C1008.63 252.808 1008.21 252.501 1007.66 252.114C1007.1 251.723 1006.53 251.421 1005.98 251.197C1005.42 250.919 1004.78 250.669 1004.05 250.446C1003.33 250.167 1002.51 249.972 1001.62 249.86C1000.78 249.694 999.924 249.605 999.034 249.604ZM1034.77 250.101H1028.65V258.726H1034.77V273.303C1034.77 279.166 1036.05 283.582 1038.62 286.542C1038.98 286.962 1039.38 287.352 1039.81 287.712C1040.43 288.223 1041.11 288.672 1041.86 289.066V289.083C1044.26 290.344 1047.33 290.974 1051.09 290.975C1051.55 290.975 1052 290.954 1052.46 290.915L1053.01 290.855C1054.29 290.696 1055.55 290.378 1056.78 289.893C1058.62 289.112 1059.82 288.49 1060.38 288.044C1060.99 287.542 1061.47 287.151 1061.8 286.872L1058.54 279.007L1057.79 279.584C1057.34 279.974 1056.6 280.366 1055.54 280.756C1054.53 281.146 1053.45 281.341 1052.28 281.342C1052.27 281.342 1052.27 281.341 1052.27 281.341C1052.27 281.341 1052.26 281.342 1052.26 281.342C1052.25 281.342 1052.24 281.341 1052.23 281.341C1052.08 281.34 1051.93 281.335 1051.78 281.327C1051.72 281.324 1051.66 281.32 1051.6 281.315C1047.7 281.031 1045.74 278.2 1045.74 272.807V258.726H1059.62V250.101H1045.74V237.462H1034.77V250.101ZM1082.8 249.604C1081.04 249.605 1079.39 249.833 1077.85 250.289V250.296C1075.19 251.087 1072.85 252.558 1070.83 254.714C1067.65 258.12 1066.06 263.338 1066.06 270.372C1066.06 277.073 1067.65 282.182 1070.83 285.7C1073.38 288.509 1076.29 290.169 1079.58 290.734C1079.58 290.743 1079.58 290.752 1079.57 290.761C1080.4 290.902 1081.25 290.975 1082.12 290.975C1084.13 290.975 1085.92 290.726 1087.48 290.224C1089.05 289.665 1090.31 288.972 1091.26 288.135C1092.2 287.3 1092.9 286.603 1093.35 286.046C1093.79 285.433 1094.15 284.811 1094.43 284.197V284.783C1095.1 288.86 1097.85 290.899 1102.65 290.899C1104.65 290.899 1106.24 290.703 1107.41 290.313V282.108C1106.19 282.108 1105.33 281.821 1104.83 281.267C1104.32 280.653 1104.06 279.73 1104.06 278.502V250.101H1094.43V254.458C1094.36 254.397 1094.11 254.199 1093.68 253.872C1093.29 253.483 1092.95 253.197 1092.67 253.03C1092.39 252.808 1091.97 252.501 1091.42 252.114C1090.86 251.723 1090.3 251.421 1089.74 251.197C1089.18 250.919 1088.54 250.669 1087.82 250.446C1087.09 250.167 1086.27 249.972 1085.38 249.86C1084.55 249.694 1083.69 249.605 1082.8 249.604ZM1158.37 231.346C1150.27 231.346 1143.9 233.918 1139.27 239.056C1134.69 244.193 1132.4 251.592 1132.4 261.251L1132.51 264.767C1133.02 272.715 1135.33 278.91 1139.43 283.355C1144.13 288.437 1150.49 290.975 1158.53 290.975C1164.42 290.975 1169.15 289.641 1172.72 286.971V286.902C1173.57 286.262 1174.38 285.575 1175.09 284.783C1178.83 280.596 1180.7 275.592 1180.7 269.786V259.988H1156.78V268.614H1169.92V269.876C1169.92 273.057 1169.04 275.686 1167.25 277.751C1165.46 279.816 1162.64 280.846 1158.79 280.847C1154.66 280.847 1151.22 279.23 1148.48 275.992C1145.75 272.698 1144.38 267.782 1144.38 261.251C1144.38 254.721 1145.66 249.803 1148.23 246.509C1150.79 243.158 1154.23 241.475 1158.53 241.475C1160.6 241.475 1162.39 241.9 1163.9 242.737C1165.4 243.519 1166.52 244.408 1167.25 245.412C1167.97 246.416 1168.53 247.59 1168.92 248.928C1169.36 250.212 1169.61 251.116 1169.67 251.618C1169.72 252.114 1169.76 252.528 1169.76 252.86L1180.44 251.197C1180.44 250.416 1180.3 249.384 1180.02 248.102C1179.8 246.817 1179.21 245.167 1178.26 243.157C1177.32 241.091 1176.09 239.212 1174.58 237.537C1174.59 237.532 1174.59 237.526 1174.6 237.521C1173.09 235.854 1170.91 234.403 1168.08 233.18C1165.29 231.954 1162.05 231.346 1158.37 231.346ZM1239.58 249.604C1238.61 249.605 1237.68 249.656 1236.78 249.758C1236.78 249.762 1236.78 249.766 1236.78 249.77C1235.08 249.96 1233.51 250.328 1232.05 250.877C1229.61 251.808 1227.51 253.252 1225.75 255.21C1222.46 258.951 1220.82 263.954 1220.82 270.207C1220.82 276.515 1222.46 281.572 1225.75 285.369C1229.05 289.11 1233.66 290.974 1239.58 290.975C1243.62 290.975 1247.05 290.104 1249.87 288.361C1249.87 288.346 1249.86 288.33 1249.86 288.314C1251.15 287.508 1252.34 286.545 1253.37 285.369C1256.72 281.572 1258.39 276.516 1258.39 270.207C1258.39 263.954 1256.72 258.951 1253.37 255.21C1251.89 253.554 1250.15 252.285 1248.17 251.362V251.327C1245.69 250.179 1242.83 249.605 1239.58 249.604ZM1266.42 276.413C1266.42 283.01 1268.39 287.356 1272.34 289.472C1272.33 289.478 1272.33 289.483 1272.33 289.489C1274.18 290.479 1276.48 290.975 1279.2 290.975C1285.79 290.974 1290.17 288.686 1292.35 284.107V284.362C1292.85 287.356 1294.32 289.323 1296.74 290.26V290.224C1297.85 290.655 1299.15 290.898 1300.66 290.898C1302.72 290.898 1304.31 290.704 1305.43 290.313V282.108C1303.19 282.108 1302.08 280.902 1302.08 278.502V250.101H1291.09V272.717C1291.09 273.554 1290.9 274.565 1290.5 275.737C1290.17 276.909 1289.33 278.136 1288 279.419C1286.71 280.703 1285.06 281.342 1283.05 281.342C1279.26 281.34 1277.36 278.89 1277.36 273.979V250.101H1266.42V276.413ZM597.593 240.528C597.598 240.533 597.603 240.538 597.608 240.543V280.26C597.609 287.055 600.514 290.556 606.309 290.84C606.302 290.852 606.295 290.864 606.289 290.876C606.541 290.89 606.798 290.899 607.061 290.899C609.126 290.899 610.756 290.704 611.929 290.313V282.108C611.799 282.108 611.673 282.103 611.551 282.095C611.453 282.088 611.357 282.079 611.264 282.067C611.243 282.065 611.223 282.062 611.203 282.06C611.108 282.046 611.015 282.031 610.925 282.012C610.919 282.01 610.913 282.009 610.907 282.008C610.815 281.988 610.725 281.965 610.638 281.939C610.624 281.935 610.61 281.93 610.596 281.926C610.523 281.903 610.453 281.878 610.385 281.852C610.363 281.843 610.341 281.835 610.319 281.826C610.251 281.798 610.185 281.766 610.12 281.733C610.099 281.723 610.078 281.712 610.057 281.7C609.995 281.667 609.936 281.631 609.878 281.594C609.852 281.577 609.827 281.558 609.802 281.54C609.765 281.514 609.729 281.488 609.694 281.461C609.646 281.423 609.599 281.382 609.554 281.341C609.539 281.327 609.524 281.313 609.51 281.299C609.033 280.841 608.735 280.19 608.623 279.344L608.613 279.174C608.592 278.961 608.578 278.737 608.578 278.502V229.663H597.593V240.528ZM758.972 249.604C752.718 249.605 748.692 251.947 746.905 256.638C744.672 251.949 740.57 249.605 734.598 249.604C728.176 249.604 724.184 251.928 722.62 256.562V255.556C722.285 253.713 721.383 252.278 719.931 251.272C719.163 250.691 718.278 250.267 717.274 250.004C717.278 250.011 717.282 250.018 717.286 250.025C716.461 249.807 715.557 249.68 714.571 249.68C712.511 249.68 710.917 249.876 709.802 250.266V258.485C712.033 258.485 713.151 259.68 713.153 262.077V290.479H724.048V267.367C724.104 265.301 724.743 263.421 725.972 261.746C727.199 260.075 728.981 259.239 731.321 259.237C733.443 259.237 735.074 259.911 736.19 261.251C737.359 262.589 737.947 264.372 737.948 266.601V280.26C737.948 287.351 741.106 290.899 747.416 290.899C749.48 290.899 751.098 290.704 752.27 290.313V282.108C751.041 282.108 750.172 281.825 749.67 281.267C749.168 280.653 748.918 279.73 748.918 278.502V265.519C749.253 263.789 749.983 262.313 751.098 261.085C752.214 259.857 753.757 259.237 755.711 259.237C757.829 259.239 759.449 259.912 760.564 261.251C761.734 262.589 762.322 264.372 762.323 266.601V280.26C762.323 286.097 764.463 289.531 768.739 290.563C768.729 290.545 768.719 290.527 768.709 290.509C769.637 290.736 770.659 290.899 771.79 290.899C773.909 290.899 775.528 290.704 776.644 290.313V282.108C776.514 282.108 776.39 282.104 776.269 282.098C776.2 282.094 776.134 282.088 776.068 282.082C776.022 282.078 775.976 282.074 775.931 282.069C775.073 281.977 774.443 281.71 774.044 281.267C773.542 280.653 773.293 279.729 773.293 278.502V265.608C773.293 260.862 772.122 256.997 769.776 254.037C769.137 253.231 768.393 252.55 767.567 251.964C767.57 251.958 767.572 251.953 767.574 251.947C765.37 250.385 762.502 249.605 758.972 249.604ZM849.016 249.604C842.595 249.605 838.602 251.928 837.039 256.562V255.556C836.588 252.924 835.225 251.173 832.951 250.31C832.956 250.32 832.962 250.33 832.967 250.341C832.016 249.98 830.912 249.751 829.644 249.694C829.435 249.686 829.223 249.68 829.006 249.68C826.944 249.68 825.351 249.875 824.235 250.266V258.485C826.467 258.485 827.585 259.68 827.587 262.077V290.479H838.467V267.367C838.523 265.301 839.161 263.421 840.39 261.746C841.618 260.072 843.41 259.237 845.755 259.237C847.875 259.238 849.492 259.912 850.608 261.251C851.778 262.59 852.366 264.371 852.367 266.601V280.26C852.367 287.351 855.524 290.899 861.834 290.899C863.897 290.899 865.515 290.703 866.688 290.313V282.108C866.548 282.108 866.413 282.102 866.282 282.095C866.259 282.093 866.236 282.091 866.213 282.09C866.112 282.083 866.014 282.073 865.919 282.062C865.868 282.055 865.818 282.05 865.77 282.043C865.749 282.04 865.729 282.037 865.709 282.033C865.626 282.02 865.545 282.005 865.467 281.987C865.457 281.985 865.448 281.983 865.438 281.98C865.362 281.963 865.288 281.943 865.216 281.922C865.207 281.919 865.198 281.916 865.189 281.913C865.03 281.865 864.883 281.808 864.747 281.741C864.741 281.738 864.735 281.735 864.729 281.732C864.665 281.7 864.603 281.666 864.544 281.63C864.542 281.629 864.541 281.629 864.539 281.628L864.534 281.624C864.392 281.535 864.266 281.434 864.155 281.32L864.088 281.267C863.837 280.959 863.658 280.571 863.532 280.11L863.525 280.054C863.421 279.646 863.365 279.179 863.355 278.655L863.337 278.502V265.608C863.337 260.862 862.166 256.997 859.82 254.037C857.475 251.08 853.871 249.604 849.016 249.604ZM415.882 290.479H435.568C439.254 290.478 442.641 289.982 445.712 288.977C448.384 288.07 450.832 286.77 453.057 285.087C453.053 285.076 453.049 285.065 453.045 285.054C453.419 284.77 453.81 284.503 454.172 284.197C456.684 282.02 458.636 279.057 460.032 275.316C461.484 271.575 462.212 267.192 462.212 262.167C462.212 256.862 461.431 252.197 459.867 248.177C459.442 247.083 458.956 246.062 458.439 245.097C458.443 245.092 458.446 245.087 458.449 245.083C457.067 242.501 455.361 240.375 453.33 238.71C450.595 236.366 447.522 234.642 444.118 233.525C440.768 232.409 437.079 231.842 433.059 231.842H415.882V290.479ZM522.682 287.804C522.681 287.806 522.679 287.808 522.679 287.811L523.703 290.479H534.929L537.501 283.812C537.5 283.811 537.5 283.809 537.499 283.807L550.513 250.101H538.956L529.398 277.826L520.021 250.101H508.21L522.682 287.804ZM929.262 290.479H948.947C952.63 290.478 956.007 289.981 959.076 288.977C961.689 288.09 964.087 286.827 966.271 285.198C966.267 285.185 966.263 285.172 966.259 285.159C966.684 284.842 967.127 284.543 967.536 284.197C970.049 282.019 972.001 279.058 973.397 275.316C974.849 271.575 975.576 267.193 975.576 262.167C975.576 256.862 974.795 252.197 973.231 248.177C972.761 246.966 972.206 245.85 971.624 244.796C971.631 244.787 971.637 244.778 971.644 244.77C970.292 242.329 968.643 240.307 966.695 238.71C963.961 236.367 960.887 234.641 957.483 233.525C954.133 232.409 950.443 231.842 946.423 231.842H929.262V290.479ZM1212.3 249.604C1210.4 249.606 1208.71 249.838 1207.24 250.266C1207.24 250.256 1207.25 250.245 1207.25 250.235C1203.73 251.244 1201.41 253.463 1200.31 256.893V255.886C1199.92 253.82 1199 252.278 1197.54 251.272C1196.1 250.214 1194.27 249.682 1192.1 249.68C1190.05 249.681 1188.54 249.876 1187.6 250.266V258.485C1189.83 258.485 1190.95 259.68 1190.95 262.077V290.479H1201.81V267.367C1201.92 265.414 1202.57 263.62 1203.74 262.002C1204.96 260.384 1206.72 259.569 1209.01 259.567H1209.04C1211.37 259.567 1213.1 259.988 1214.22 260.814L1218.64 251.197L1217.98 250.776C1217.54 250.553 1216.77 250.305 1215.71 250.025C1214.66 249.748 1213.52 249.606 1212.3 249.604ZM636.935 259.146C642.239 259.146 644.899 262.87 644.899 270.297L644.764 272.896C644.185 278.587 641.578 281.433 636.935 281.433C632.292 281.432 629.684 278.586 629.105 272.896L628.985 270.297C628.985 262.871 631.631 259.148 636.935 259.146ZM684.211 259.146C686.554 259.147 688.562 260.073 690.236 261.912C691.912 263.755 692.761 266.556 692.761 270.297C692.76 273.919 691.975 276.68 690.417 278.577C688.855 280.474 686.811 281.431 684.301 281.433C681.732 281.433 679.765 280.651 678.425 279.088C677.142 277.47 676.448 275.926 676.336 274.475V266.194L676.848 264.422C677.184 263.252 677.986 262.075 679.267 260.905C680.606 259.734 682.257 259.147 684.211 259.146ZM1001.29 259.146C1003.91 259.147 1005.9 259.996 1007.24 261.671C1008.57 263.286 1009.27 264.733 1009.33 266.015V274.564C1007.93 279.029 1005.28 281.319 1001.38 281.433C999.09 281.433 997.136 280.508 995.518 278.667C993.899 276.769 993.084 273.98 993.083 270.297C993.083 270.125 993.086 269.954 993.09 269.786C993.093 269.646 993.097 269.507 993.103 269.37C993.222 266.195 993.962 263.735 995.337 262.002C996.844 260.104 998.832 259.147 1001.29 259.146ZM1085.05 259.146C1087.67 259.147 1089.66 259.996 1091 261.671C1092.34 263.286 1093.03 264.733 1093.09 266.015V274.564C1091.69 279.029 1089.05 281.319 1085.14 281.433C1082.85 281.433 1080.9 280.508 1079.28 278.667C1077.66 276.769 1076.85 273.98 1076.85 270.297C1076.85 266.67 1077.59 263.9 1079.1 262.002C1080.61 260.104 1082.59 259.147 1085.05 259.146ZM1239.58 259.146C1244.88 259.147 1247.54 262.87 1247.54 270.297L1247.41 272.896C1246.83 278.586 1244.22 281.432 1239.58 281.433C1234.94 281.432 1232.33 278.586 1231.75 272.896L1231.63 270.297C1231.63 268.461 1231.79 266.851 1232.11 265.468C1232.4 264.266 1232.79 263.239 1233.32 262.386C1234.64 260.229 1236.72 259.147 1239.58 259.146ZM1333.71 259.146C1336.05 259.146 1338.06 260.073 1339.73 261.912C1341.41 263.755 1342.26 266.556 1342.26 270.297C1342.26 273.919 1341.47 276.68 1339.91 278.577C1338.35 280.474 1336.31 281.431 1333.8 281.433C1331.23 281.433 1329.28 280.649 1327.94 279.088C1326.65 277.469 1325.95 275.926 1325.83 274.475V266.194L1326.34 264.422C1326.68 263.252 1327.48 262.075 1328.76 260.905C1330.1 259.733 1331.75 259.147 1333.71 259.146ZM432.894 241.234C438.924 241.234 443.394 243.044 446.298 246.674C449.256 250.248 450.73 255.359 450.73 262.002C450.73 268.142 449.343 272.864 446.553 276.158C443.817 279.452 440.126 281.101 435.493 281.102H427.453V241.234H432.894ZM946.258 241.234C952.289 241.234 956.758 243.044 959.662 246.674C962.622 250.248 964.11 255.357 964.11 262.002C964.11 268.143 962.71 272.864 959.918 276.158C957.182 279.452 953.492 281.102 948.857 281.102H940.817V241.234H946.258ZM636.619 267.833C636.513 268.29 636.379 269.05 636.379 270.207C636.379 271.443 636.516 272.257 636.634 272.746C636.726 272.749 636.826 272.776 636.935 272.776C637.061 272.776 637.177 272.75 637.28 272.746C637.399 272.291 637.581 271.488 637.581 270.207L637.461 268.434C637.424 268.184 637.364 267.988 637.325 267.833C637.211 267.828 637.08 267.817 636.935 267.817C636.819 267.817 636.714 267.829 636.619 267.833ZM1239.26 267.833C1239.15 268.29 1239.02 269.05 1239.02 270.207C1239.02 271.443 1239.16 272.257 1239.28 272.746C1239.37 272.749 1239.47 272.776 1239.58 272.776C1239.71 272.776 1239.83 272.75 1239.94 272.746C1240.06 272.291 1240.22 271.485 1240.22 270.207L1240.1 268.434C1240.07 268.184 1240.01 267.988 1239.97 267.833C1239.85 267.828 1239.72 267.817 1239.58 267.817C1239.46 267.817 1239.36 267.829 1239.26 267.833ZM997.261 266.961C997.339 267.034 997.434 267.12 997.546 267.217L997.576 267.246C997.592 267.26 997.605 267.278 997.621 267.292C997.655 267.313 997.691 267.33 997.727 267.352C997.682 267.311 997.635 267.272 997.591 267.231L997.562 267.201C997.465 267.112 997.355 267.038 997.261 266.946V266.961ZM1081.02 266.961C1081.11 267.041 1081.21 267.139 1081.34 267.246C1081.35 267.26 1081.37 267.278 1081.38 267.292C1081.42 267.313 1081.45 267.33 1081.49 267.352C1081.44 267.311 1081.4 267.272 1081.35 267.231C1081.25 267.133 1081.13 267.047 1081.02 266.946V266.961ZM487.503 258.23C489.678 258.231 491.349 258.818 492.521 259.988C493.748 261.104 494.369 262.332 494.37 263.67C494.37 265.904 492.047 267.021 487.412 267.021C484.12 267.021 481.687 266.523 480.124 265.519C480.124 265.502 480.125 265.485 480.125 265.468C480.126 265.387 480.127 265.307 480.13 265.228C480.186 263.133 480.858 261.472 482.138 260.244C483.534 258.904 485.325 258.23 487.503 258.23ZM572.332 258.23C574.507 258.231 576.18 258.817 577.352 259.988C578.578 261.104 579.198 262.332 579.199 263.67C579.199 265.904 576.877 267.021 572.242 267.021C568.948 267.021 566.516 266.524 564.953 265.519C564.953 263.286 565.627 261.528 566.967 260.244C568.363 258.904 570.154 258.23 572.332 258.23ZM800.703 258.23C802.881 258.231 804.565 258.816 805.737 259.988C806.964 261.104 807.583 262.332 807.585 263.67C807.585 265.903 805.261 267.021 800.628 267.021C797.334 267.021 794.902 266.523 793.339 265.519C793.339 263.285 794.013 261.528 795.353 260.244C796.747 258.906 798.529 258.232 800.703 258.23Z" fill="#00244D"/>
<path d="M224.364 287.86C245.995 287.86 265.962 284.543 283.71 278.459C288.147 276.801 292.584 275.142 296.466 273.482C291.474 285.648 284.264 295.602 274.835 303.344C255.978 317.168 233.792 326.568 209.387 330.439C216.044 319.933 221.035 305.555 224.364 287.86ZM123.973 317.722C123.418 317.168 122.863 317.168 122.309 316.615C113.989 312.744 110.661 293.943 115.098 265.188C131.183 272.377 148.932 277.907 167.234 282.33C181.101 285.095 194.967 287.308 208.834 287.86C202.177 316.615 193.303 332.098 187.756 332.098C187.202 332.098 187.202 332.098 186.647 332.098C164.462 332.098 142.831 326.568 123.973 317.722ZM45.7679 225.373C44.6587 220.396 44.104 215.42 43.5494 210.443C48.5411 217.631 54.6422 224.821 61.8526 231.457C72.9455 241.41 86.2569 250.81 100.678 258.552C97.9044 275.142 96.7951 290.072 99.0136 302.238C74.0547 283.437 55.1968 256.34 45.7679 225.373ZM233.792 185.006C233.792 178.923 233.792 173.394 233.792 167.311C252.65 166.205 269.844 161.228 284.264 152.934C297.576 178.923 304.786 206.572 304.232 232.563C304.232 240.304 303.677 247.493 302.568 254.129C295.912 258.552 288.147 261.871 279.273 264.636C263.743 269.611 245.995 272.93 227.136 273.482C231.574 246.387 233.792 214.867 233.792 185.006ZM170.563 267.4C151.705 263.529 133.956 257.446 117.872 249.704C122.863 225.927 132.847 197.724 148.377 165.652C150.595 161.228 152.815 156.805 155.033 151.828C166.125 156.805 177.773 160.676 189.975 163.441C199.405 165.652 208.834 166.758 218.262 166.758C218.262 172.287 218.262 178.371 218.262 184.453C218.262 219.844 215.489 249.704 211.052 272.377C198.294 272.377 184.429 270.718 170.563 267.4ZM72.3908 220.396C59.634 208.785 50.7598 196.066 46.3226 183.348C49.6505 169.523 56.8607 155.145 66.8444 141.873C76.2733 129.156 88.4755 117.543 102.341 107.589C106.224 114.778 111.77 121.967 118.981 128.049C125.637 134.133 133.402 140.215 142.275 145.192C140.057 149.615 137.285 154.592 135.065 159.016C121.754 186.665 110.661 215.973 104.006 242.516C92.358 236.433 81.8197 228.692 72.3908 220.396ZM223.808 79.9402C241.003 92.6587 256.533 109.248 269.844 128.602C272.063 132.473 274.835 135.791 277.054 139.662C264.852 146.85 249.876 150.721 233.237 151.828C231.574 125.837 228.8 100.953 223.808 79.9402ZM193.857 149.063C182.764 146.85 172.781 143.533 162.797 139.109C176.664 114.778 192.194 93.2117 207.724 77.1753C212.715 95.9766 216.598 120.861 218.262 151.828C209.943 151.828 201.623 150.721 193.857 149.063ZM128.965 117.543C122.863 111.46 117.872 105.377 114.544 99.2945C128.965 90.9997 144.495 83.811 161.134 78.8343C171.117 76.0693 181.101 73.8574 191.085 72.1985C176.664 88.2349 162.243 108.695 148.932 131.92C141.721 128.049 135.065 123.073 128.965 117.543ZM96.7951 69.4336C96.7951 69.9865 96.2405 71.0926 96.2405 71.6455C94.5766 78.8343 95.1312 86.023 96.7951 93.2117C80.7105 104.271 66.2897 117.543 55.1968 132.473C51.869 136.897 48.5411 141.873 45.7679 146.298C54.0876 115.884 71.8362 88.7879 96.7951 69.4336ZM110.661 74.9634C112.325 67.2217 117.317 60.033 124.527 54.5032C142.275 49.5263 162.797 50.6323 184.429 58.374C175.555 60.0329 166.125 62.2449 157.251 65.0098C140.612 69.9865 125.082 76.6223 110.661 84.9171C110.107 81.5992 110.107 78.2813 110.661 74.9634ZM233.237 55.0561C238.229 51.7383 243.221 49.5263 247.104 48.4204C254.868 51.1853 262.079 55.0561 269.289 60.0329C258.196 57.8211 245.995 56.1621 233.237 55.0561ZM208.278 39.0197C214.379 39.5728 221.035 40.6787 227.691 42.3376C223.254 44.5495 219.372 47.3145 214.935 50.6323C212.161 46.2085 210.497 42.3376 208.278 39.0197ZM191.639 45.1025C184.984 42.3376 177.773 40.6787 171.117 39.0197C176.664 38.4667 181.655 37.9138 187.202 37.9138C189.975 37.9138 192.748 41.2317 196.076 46.7615C194.967 46.2085 193.303 45.6555 191.639 45.1025ZM25.2461 185.006C25.2461 200.489 27.4647 215.42 31.3472 229.244C31.3472 230.351 31.9019 230.903 31.9019 232.009V232.563C52.4237 298.919 114.544 347.029 187.202 347.029C221.035 347.029 252.095 336.523 278.164 318.827C278.164 318.827 278.718 318.826 278.718 318.274C280.382 317.168 281.492 316.062 283.155 314.957C313.106 292.837 335.292 260.765 344.721 223.715C345.275 222.056 345.83 220.396 345.83 218.738C345.83 218.185 345.83 218.185 345.83 217.632C348.049 207.125 349.158 196.066 349.158 184.453C349.158 162.334 344.721 141.321 336.401 121.414C334.737 117.543 330.3 115.884 326.417 117.543C322.534 119.202 320.871 123.626 322.534 127.496C330.3 145.744 334.183 165.099 334.183 184.453C334.183 196.619 332.518 208.231 329.745 219.844C327.526 227.032 323.644 233.668 318.098 239.751C318.098 236.986 318.098 234.774 318.098 232.009C318.098 203.255 310.333 172.287 295.357 144.086C306.45 134.685 313.106 123.072 315.324 110.354C315.879 106.483 313.106 102.612 309.224 101.506C305.341 100.953 300.903 103.718 300.349 107.589C298.685 115.884 294.248 124.179 287.593 130.814C285.374 127.496 283.155 123.626 280.936 120.308C267.625 100.953 252.095 84.364 234.902 70.5395C257.642 72.1985 278.718 77.7283 295.912 87.1289C298.685 88.7879 302.014 88.7879 304.786 86.5759C308.114 83.811 308.669 79.3872 305.895 76.0693C281.492 42.3376 239.338 23.5363 187.202 23.5363C97.9044 22.9834 25.2461 95.4237 25.2461 185.006Z" fill="#BCC2CB"/>
</g>
</svg>
