<svg width="24" height="24" viewBox="0 0 24 24" fill="none" xmlns="http://www.w3.org/2000/svg">
<path d="M20.3016 1.68753C18.9562 1.75316 17.8781 2.83128 17.8125 4.1766L17.7047 6.29535L19.8234 6.18753C21.1687 6.12191 22.2469 5.04378 22.3125 3.69847L22.4203 1.57972L20.3016 1.68753ZM16.3125 4.1016C16.4203 1.98753 18.1125 0.295345 20.2266 0.187533L22.7578 0.0609702C23.4234 0.0281577 23.9719 0.576595 23.9391 1.24222L23.8125 3.77347C23.7047 5.88753 22.0172 7.57972 19.8984 7.68753L19.1062 7.72503C20.1891 7.95941 21.225 8.50316 22.0687 9.34691L23.1281 10.4063C23.4187 10.6969 23.4187 11.175 23.1281 11.4657L21.5391 13.0547C20.7234 13.8703 19.6734 14.3063 18.6047 14.3672L18.8859 14.6485C19.1766 14.9391 19.1766 15.4172 18.8859 15.7078L17.2969 17.2969C16.4812 18.1125 15.4312 18.5485 14.3672 18.6094L14.6484 18.8907C14.9391 19.1813 14.9391 19.6594 14.6484 19.95L13.0594 21.5391C11.3016 23.2969 8.45156 23.2969 6.69375 21.5391L5.10469 19.95L1.27969 23.7703C0.989063 24.061 0.510938 24.0657 0.220313 23.7703C-0.0703121 23.475 -0.0703121 23.0016 0.220313 22.711L4.04062 18.8907L2.45156 17.3016C0.69375 15.5438 0.69375 12.6938 2.45156 10.936L4.04062 9.34691C4.33125 9.05628 4.80938 9.05628 5.1 9.34691L5.38125 9.62816C5.44219 8.55941 5.87812 7.50941 6.69375 6.69378L8.28281 5.10472C8.57344 4.8141 9.05156 4.8141 9.34219 5.10472L9.62344 5.38597C9.68437 4.31722 10.1203 3.26722 10.9359 2.4516L12.525 0.862533C12.8156 0.571908 13.2937 0.571908 13.5844 0.862533L14.6437 1.92191C15.5016 2.77972 16.0453 3.82972 16.275 4.93128L16.3172 4.1016H16.3125ZM20.475 11.9953L21.5344 10.936L21.0047 10.4063C19.2469 8.64847 16.4016 8.64847 14.6437 10.4063L16.2328 11.9953C17.4047 13.1672 19.3031 13.1672 20.475 11.9953ZM11.9906 7.75316L13.5797 9.34222L13.65 9.27191C15.3375 7.50941 15.3141 4.71097 13.5797 2.9766L13.0547 2.4516L11.9953 3.51097C10.8234 4.68285 10.8234 6.58128 11.9953 7.75316H11.9906ZM9.3375 7.22347L8.8125 6.69378L7.75312 7.75316C6.58125 8.92503 6.58125 10.8235 7.75312 11.9953L9.34219 13.5844L9.40312 13.5235C11.1 11.761 11.0812 8.95784 9.34219 7.21878L9.3375 7.22347ZM5.1 17.8266L5.1375 17.7891C6.85781 16.0266 6.84375 13.2094 5.1 11.461L4.57031 10.936L3.51094 11.9953C2.33906 13.1672 2.33906 15.0657 3.51094 16.2375L5.1 17.8266ZM11.9953 20.475L13.0547 19.4157L12.525 18.8907C10.7672 17.1328 7.92187 17.1328 6.16406 18.8907L7.75312 20.4797C8.925 21.6516 10.8234 21.6516 11.9953 20.4797V20.475ZM16.2375 16.2328L17.2969 15.1735L16.7672 14.6438C15.0094 12.886 12.1641 12.886 10.4062 14.6438L11.9953 16.2328C13.1672 17.4047 15.0656 17.4047 16.2375 16.2328Z" fill="black" fill-opacity="0.87"/>
</svg>
