<svg width="23" height="20" viewBox="0 0 23 20" fill="none" xmlns="http://www.w3.org/2000/svg">
<path d="M12.6 4.19124L11.9212 4.07874L11.3925 0.902489C11.3587 0.699989 11.2238 0.527489 11.0325 0.448739C10.8413 0.369989 10.6237 0.392489 10.455 0.508739L7.8 2.36874L5.145 0.508739C4.97625 0.388739 4.75875 0.366239 4.5675 0.448739C4.37625 0.531239 4.24125 0.699989 4.2075 0.902489L3.67875 4.07874L0.502501 4.60749C0.300001 4.64124 0.127501 4.77624 0.0487507 4.96749C-0.0299993 5.15874 -0.0074993 5.37624 0.108751 5.54499L1.96875 8.19999L0.108751 10.855C-0.0112493 11.0237 -0.0337493 11.2412 0.0487507 11.4325C0.131251 11.6237 0.300001 11.7587 0.502501 11.7925L3.67875 12.3212L4.2075 15.4975C4.24125 15.7 4.37625 15.8725 4.5675 15.9512C4.75875 16.03 4.97625 16.0075 5.145 15.8912L7.8 14.0312L10.3875 15.8425C10.2675 15.3287 10.2038 14.7962 10.2 14.245L8.145 12.805C7.93875 12.6587 7.665 12.6587 7.455 12.805L5.235 14.3575L4.7925 11.695C4.75125 11.4437 4.5525 11.245 4.2975 11.2L1.635 10.7575L3.1875 8.53749C3.33375 8.33124 3.33375 8.05749 3.1875 7.84749L1.63875 5.63499L4.30125 5.19249C4.5525 5.15124 4.75125 4.95249 4.79625 4.69749L5.23875 2.03499L7.45875 3.58749C7.665 3.73374 7.93875 3.73374 8.14875 3.58749L10.3688 2.03499L10.8112 4.69749C10.8525 4.94874 11.0513 5.14749 11.3063 5.19249L12.6038 5.40999V4.19124H12.6ZM7.8 10.3C7.24305 10.3 6.7089 10.0787 6.31508 9.68491C5.92125 9.29109 5.7 8.75694 5.7 8.19999C5.7 7.64303 5.92125 7.10889 6.31508 6.71507C6.7089 6.32124 7.24305 6.09999 7.8 6.09999C8.35695 6.09999 8.8911 6.32124 9.28492 6.71507C9.67875 7.10889 9.9 7.64303 9.9 8.19999C9.9 8.75694 9.67875 9.29109 9.28492 9.68491C8.8911 10.0787 8.35695 10.3 7.8 10.3ZM4.5 8.19999C4.5 9.0752 4.84768 9.91457 5.46655 10.5334C6.08542 11.1523 6.92479 11.5 7.8 11.5C8.67521 11.5 9.51458 11.1523 10.1335 10.5334C10.7523 9.91457 11.1 9.0752 11.1 8.19999C11.1 7.32477 10.7523 6.48541 10.1335 5.86654C9.51458 5.24767 8.67521 4.89999 7.8 4.89999C6.92479 4.89999 6.08542 5.24767 5.46655 5.86654C4.84768 6.48541 4.5 7.32477 4.5 8.19999ZM15 3.99999C15 2.67624 16.0762 1.59999 17.4 1.59999C18.7237 1.59999 19.8 2.67624 19.8 3.99999V9.87624C19.8 10.435 20.0625 10.915 20.4 11.26C21.1425 12.0175 21.6 13.0562 21.6 14.2C21.6 16.5212 19.7212 18.4 17.4 18.4C15.0787 18.4 13.2 16.5212 13.2 14.2C13.2 13.0562 13.6575 12.0175 14.4 11.26C14.7375 10.915 15 10.435 15 9.87624V3.99999ZM17.4 0.399989C15.4125 0.399989 13.8 2.01249 13.8 3.99999V9.87624C13.8 10.0487 13.7175 10.2437 13.545 10.42C12.5888 11.3912 12 12.73 12 14.2C12 17.1812 14.4187 19.6 17.4 19.6C20.3812 19.6 22.8 17.1812 22.8 14.2C22.8 12.7262 22.2112 11.3912 21.255 10.42C21.0825 10.2437 21 10.0487 21 9.87624V3.99999C21 2.01249 19.3875 0.399989 17.4 0.399989ZM16.2 14.2C16.2 13.8817 16.3264 13.5765 16.5515 13.3515C16.7765 13.1264 17.0817 13 17.4 13C17.7183 13 18.0235 13.1264 18.2485 13.3515C18.4736 13.5765 18.6 13.8817 18.6 14.2C18.6 14.5182 18.4736 14.8235 18.2485 15.0485C18.0235 15.2736 17.7183 15.4 17.4 15.4C17.0817 15.4 16.7765 15.2736 16.5515 15.0485C16.3264 14.8235 16.2 14.5182 16.2 14.2ZM19.8 14.2C19.8 13.0825 19.035 12.1412 18 11.875V3.99999C18 3.66999 17.73 3.39999 17.4 3.39999C17.07 3.39999 16.8 3.66999 16.8 3.99999V11.875C15.765 12.1412 15 13.0825 15 14.2C15 15.5237 16.0762 16.6 17.4 16.6C18.7237 16.6 19.8 15.5237 19.8 14.2Z" fill="black" fill-opacity="0.87"/>
</svg>
