<svg width="24" height="24" viewBox="0 0 24 24" fill="none" xmlns="http://www.w3.org/2000/svg">
<g clip-path="url(#clip0_1_720)">
<path d="M1.70417 1.71255C1.3625 1.57922 0.975 1.75005 0.841667 2.09588C0.3 3.50838 0 5.05005 0 6.66672C0 8.28338 0.3 9.82505 0.845833 11.2417C0.979167 11.5834 1.3625 11.7584 1.70833 11.6251C2.05417 11.4917 2.225 11.1084 2.09167 10.7626C1.6 9.50005 1.33333 8.11672 1.33333 6.66672C1.33333 5.21672 1.6 3.83755 2.0875 2.57505C2.22083 2.23338 2.05 1.84588 1.70417 1.71255ZM22.2917 1.71255C21.95 1.84588 21.775 2.22922 21.9083 2.57505C22.4 3.83755 22.6667 5.21672 22.6667 6.66672C22.6667 8.11672 22.4 9.49588 21.9125 10.7584C21.7792 11.1001 21.95 11.4876 22.2958 11.6209C22.6417 11.7542 23.025 11.5834 23.1583 11.2376C23.7042 9.82505 24.0042 8.27922 24.0042 6.66255C24.0042 5.04588 23.7042 3.50422 23.1583 2.08755C23.025 1.74588 22.6417 1.57088 22.2958 1.70422L22.2917 1.71255ZM12 5.33338C12.3536 5.33338 12.6928 5.47386 12.9428 5.72391C13.1929 5.97396 13.3333 6.3131 13.3333 6.66672C13.3333 7.02034 13.1929 7.35948 12.9428 7.60953C12.6928 7.85957 12.3536 8.00005 12 8.00005C11.6464 8.00005 11.3072 7.85957 11.0572 7.60953C10.8071 7.35948 10.6667 7.02034 10.6667 6.66672C10.6667 6.3131 10.8071 5.97396 11.0572 5.72391C11.3072 5.47386 11.6464 5.33338 12 5.33338ZM13.9708 8.46255C14.4042 7.98755 14.6667 7.35838 14.6667 6.66672C14.6667 5.19588 13.4708 4.00005 12 4.00005C10.5292 4.00005 9.33333 5.19588 9.33333 6.66672C9.33333 7.35838 9.59583 7.98755 10.0292 8.46255L4.05833 21.7251C3.90833 22.0626 4.05833 22.4542 4.39167 22.6084C4.725 22.7626 5.12083 22.6084 5.275 22.2751L6.9 18.6667H17.1042L18.7292 22.2751C18.8792 22.6126 19.275 22.7626 19.6125 22.6084C19.95 22.4542 20.1 22.0626 19.9458 21.7251L13.9708 8.46255ZM16.5042 17.3334H7.49583L8.69583 14.6667H15.3042L16.5042 17.3334ZM12.8417 9.20005L14.7042 13.3334H9.29583L11.1583 9.20005C11.4208 9.28755 11.7042 9.33755 12 9.33755C12.2958 9.33755 12.575 9.29172 12.8417 9.20005ZM5.83333 4.26672C5.97917 3.92922 5.825 3.53755 5.4875 3.38755C5.15 3.23755 4.75833 3.39588 4.60833 3.73338C4.21667 4.63338 4 5.62505 4 6.66672C4 7.70838 4.21667 8.70005 4.6125 9.60005C4.75833 9.93755 5.15417 10.0917 5.49167 9.94588C5.82917 9.80005 5.98333 9.40422 5.8375 9.06672C5.51667 8.33338 5.3375 7.52088 5.3375 6.66672C5.3375 5.81255 5.51667 5.00005 5.8375 4.26672H5.83333ZM19.3875 3.73338C19.2417 3.39588 18.8458 3.24172 18.5083 3.38755C18.1708 3.53338 18.0167 3.92922 18.1625 4.26672C18.4833 5.00005 18.6625 5.81255 18.6625 6.66672C18.6625 7.52088 18.4833 8.33338 18.1625 9.06672C18.0167 9.40422 18.1708 9.79588 18.5083 9.94588C18.8458 10.0959 19.2375 9.93755 19.3875 9.60005C19.7833 8.70005 20 7.70838 20 6.66672C20 5.62505 19.7833 4.63338 19.3875 3.73338Z" fill="black" fill-opacity="0.87"/>
</g>
<defs>
<clipPath id="clip0_1_720">
<rect width="24" height="24" fill="white"/>
</clipPath>
</defs>
</svg>
