<svg width="25" height="20" viewBox="0 0 25 20" fill="none" xmlns="http://www.w3.org/2000/svg">
<path d="M15.5 1.60002C15.83 1.60002 16.1 1.87002 16.1 2.20002V5.80002C16.1 6.13002 15.83 6.40002 15.5 6.40002H13.1H11.9H9.5C9.17 6.40002 8.9 6.13002 8.9 5.80002V2.20002C8.9 1.87002 9.17 1.60002 9.5 1.60002H15.5ZM13.1 7.60002H15.5C16.4938 7.60002 17.3 6.79377 17.3 5.80002V2.20002C17.3 1.20627 16.4938 0.400024 15.5 0.400024H9.5C8.50625 0.400024 7.7 1.20627 7.7 2.20002V5.80002C7.7 6.79377 8.50625 7.60002 9.5 7.60002H11.9V9.40002H1.1C0.77 9.40002 0.5 9.67002 0.5 10C0.5 10.33 0.77 10.6 1.1 10.6H5.9V12.4H3.5C2.50625 12.4 1.7 13.2063 1.7 14.2V17.8C1.7 18.7938 2.50625 19.6 3.5 19.6H9.5C10.4938 19.6 11.3 18.7938 11.3 17.8V14.2C11.3 13.2063 10.4938 12.4 9.5 12.4H7.1V10.6H17.9V12.4H15.5C14.5063 12.4 13.7 13.2063 13.7 14.2V17.8C13.7 18.7938 14.5063 19.6 15.5 19.6H21.5C22.4938 19.6 23.3 18.7938 23.3 17.8V14.2C23.3 13.2063 22.4938 12.4 21.5 12.4H19.1V10.6H23.9C24.23 10.6 24.5 10.33 24.5 10C24.5 9.67002 24.23 9.40002 23.9 9.40002H13.1V7.60002ZM19.1 13.6H21.5C21.83 13.6 22.1 13.87 22.1 14.2V17.8C22.1 18.13 21.83 18.4 21.5 18.4H15.5C15.17 18.4 14.9 18.13 14.9 17.8V14.2C14.9 13.87 15.17 13.6 15.5 13.6H17.9H19.1ZM7.1 13.6H9.5C9.83 13.6 10.1 13.87 10.1 14.2V17.8C10.1 18.13 9.83 18.4 9.5 18.4H3.5C3.17 18.4 2.9 18.13 2.9 17.8V14.2C2.9 13.87 3.17 13.6 3.5 13.6H5.9H7.1Z" fill="black" fill-opacity="0.87"/>
</svg>
