<svg width="24" height="24" viewBox="0 0 24 24" fill="none" xmlns="http://www.w3.org/2000/svg">
<g clip-path="url(#clip0_1_791)">
<path d="M9 1.5C10.2422 1.5 11.25 2.50781 11.25 3.75V6H9.97031C9.67969 5.33906 9.01875 4.875 8.25 4.875C7.21406 4.875 6.375 5.71406 6.375 6.75C6.375 7.78594 7.21406 8.625 8.25 8.625C9.01875 8.625 9.67969 8.16094 9.97031 7.5H11.25V12.75H9C7.83281 12.75 6.87187 13.6406 6.75937 14.775C6.09375 15.0609 5.625 15.7266 5.625 16.5C5.625 17.5359 6.46406 18.375 7.5 18.375C8.53594 18.375 9.375 17.5359 9.375 16.5C9.375 15.7406 8.925 15.0891 8.27813 14.7938C8.36719 14.4797 8.65781 14.25 9 14.25H11.25V20.25C11.25 21.4922 10.2422 22.5 9 22.5C8.04375 22.5 7.22344 21.9 6.9 21.0563C6.77344 20.7234 6.42656 20.5266 6.075 20.5875C5.92969 20.6109 5.77969 20.625 5.62969 20.625C4.18125 20.625 3.00469 19.4484 3.00469 18C3.00469 17.6344 3.07969 17.2875 3.21094 16.9781C3.35625 16.6406 3.22969 16.2422 2.91563 16.05C2.0625 15.5156 1.5 14.5734 1.5 13.5C1.5 12.6047 1.89375 11.7984 2.51719 11.2453C2.74219 11.0484 2.82656 10.7344 2.73281 10.4484C2.6625 10.2281 2.62031 9.99375 2.62031 9.74531C2.62031 8.78906 3.22031 7.96406 4.06875 7.64062C4.41094 7.50938 4.60781 7.15312 4.5375 6.79688C4.50938 6.65625 4.49531 6.51563 4.49531 6.36563C4.49531 5.31563 5.21719 4.42969 6.19219 4.18594C6.50156 4.10625 6.72656 3.84375 6.75469 3.52969C6.86719 2.39531 7.82812 1.5 9 1.5ZM12.75 7.5H15C15.4125 7.5 15.75 7.8375 15.75 8.25V8.77969C15.0891 9.07031 14.625 9.73125 14.625 10.5C14.625 11.5359 15.4641 12.375 16.5 12.375C17.5359 12.375 18.375 11.5359 18.375 10.5C18.375 9.73125 17.9109 9.07031 17.25 8.77969V8.25C17.25 7.00781 16.2422 6 15 6H12.75V3.75C12.75 2.50781 13.7578 1.5 15 1.5C16.1719 1.5 17.1328 2.39531 17.2406 3.53438C17.2687 3.84844 17.4937 4.11563 17.8031 4.19063C18.7781 4.43906 19.5 5.325 19.5 6.375C19.5 6.52031 19.4859 6.66562 19.4578 6.80625C19.3875 7.1625 19.5844 7.51875 19.9266 7.65C20.775 7.96875 21.375 8.79375 21.375 9.75C21.375 9.99375 21.3375 10.2328 21.2625 10.4531C21.1688 10.7391 21.2531 11.0531 21.4781 11.25C22.1063 11.7984 22.5 12.6047 22.5 13.5C22.5 14.5734 21.9375 15.5156 21.0844 16.0453C20.7703 16.2422 20.6484 16.6359 20.7891 16.9734C20.9203 17.2875 20.9953 17.6344 20.9953 17.9953C20.9953 19.4437 19.8187 20.6203 18.3703 20.6203C18.2156 20.6203 18.0656 20.6063 17.925 20.5828C17.5734 20.5219 17.2266 20.7188 17.1 21.0516C16.7766 21.8953 15.9562 22.4953 15 22.4953C13.7578 22.4953 12.75 21.4875 12.75 20.2453V18H15.5297C15.8203 18.6609 16.4813 19.125 17.25 19.125C18.2859 19.125 19.125 18.2859 19.125 17.25C19.125 16.2141 18.2859 15.375 17.25 15.375C16.4813 15.375 15.8203 15.8391 15.5297 16.5H12.75V7.5ZM9 24C10.2281 24 11.3156 23.4094 12 22.5C12.6844 23.4094 13.7719 24 15 24C16.3875 24 17.6016 23.2453 18.2484 22.125C18.2906 22.125 18.3328 22.125 18.375 22.125C20.6531 22.125 22.5 20.2781 22.5 18C22.5 17.6438 22.4531 17.2969 22.3688 16.9688C23.3625 16.1437 24 14.8969 24 13.5C24 12.3234 23.55 11.25 22.8094 10.4531C22.8516 10.2234 22.875 9.98906 22.875 9.75C22.875 8.3625 22.1203 7.14844 21 6.50156C21 6.45937 21 6.41719 21 6.375C21 4.8 20.0297 3.45 18.6516 2.89687C18.2672 1.2375 16.7766 0 15 0C13.7719 0 12.6844 0.590625 12 1.5C11.3156 0.590625 10.2281 0 9 0C7.22344 0 5.73281 1.2375 5.34844 2.89687C3.97031 3.45 3 4.8 3 6.375C3 6.41719 3 6.45937 3 6.50156C1.87969 7.14844 1.125 8.3625 1.125 9.75C1.125 9.98906 1.14844 10.2234 1.19062 10.4531C0.45 11.25 0 12.3234 0 13.5C0 14.8969 0.6375 16.1437 1.63125 16.9688C1.54687 17.2969 1.5 17.6438 1.5 18C1.5 20.2781 3.34688 22.125 5.625 22.125C5.66719 22.125 5.70937 22.125 5.75156 22.125C6.39844 23.2453 7.6125 24 9 24ZM8.25 6C8.44891 6 8.63968 6.07902 8.78033 6.21967C8.92098 6.36032 9 6.55109 9 6.75C9 6.94891 8.92098 7.13968 8.78033 7.28033C8.63968 7.42098 8.44891 7.5 8.25 7.5C8.05109 7.5 7.86032 7.42098 7.71967 7.28033C7.57902 7.13968 7.5 6.94891 7.5 6.75C7.5 6.55109 7.57902 6.36032 7.71967 6.21967C7.86032 6.07902 8.05109 6 8.25 6ZM7.5 15.75C7.69891 15.75 7.88968 15.829 8.03033 15.9697C8.17098 16.1103 8.25 16.3011 8.25 16.5C8.25 16.6989 8.17098 16.8897 8.03033 17.0303C7.88968 17.171 7.69891 17.25 7.5 17.25C7.30109 17.25 7.11032 17.171 6.96967 17.0303C6.82902 16.8897 6.75 16.6989 6.75 16.5C6.75 16.3011 6.82902 16.1103 6.96967 15.9697C7.11032 15.829 7.30109 15.75 7.5 15.75ZM15.75 10.5C15.75 10.3011 15.829 10.1103 15.9697 9.96967C16.1103 9.82902 16.3011 9.75 16.5 9.75C16.6989 9.75 16.8897 9.82902 17.0303 9.96967C17.171 10.1103 17.25 10.3011 17.25 10.5C17.25 10.6989 17.171 10.8897 17.0303 11.0303C16.8897 11.171 16.6989 11.25 16.5 11.25C16.3011 11.25 16.1103 11.171 15.9697 11.0303C15.829 10.8897 15.75 10.6989 15.75 10.5ZM17.25 16.5C17.4489 16.5 17.6397 16.579 17.7803 16.7197C17.921 16.8603 18 17.0511 18 17.25C18 17.4489 17.921 17.6397 17.7803 17.7803C17.6397 17.921 17.4489 18 17.25 18C17.0511 18 16.8603 17.921 16.7197 17.7803C16.579 17.6397 16.5 17.4489 16.5 17.25C16.5 17.0511 16.579 16.8603 16.7197 16.7197C16.8603 16.579 17.0511 16.5 17.25 16.5Z" fill="black" fill-opacity="0.87"/>
</g>
<defs>
<clipPath id="clip0_1_791">
<rect width="24" height="24" fill="white"/>
</clipPath>
</defs>
</svg>
