<svg width="25" height="20" viewBox="0 0 25 20" fill="none" xmlns="http://www.w3.org/2000/svg">
<path d="M20.9 14.4175V1.65624L13.1 2.72874V15.9775L20.9 14.4175ZM11.9 15.9775V2.72874L4.1 1.65624V14.4175L11.9 15.9775ZM20.735 0.467494C21.4587 0.369994 22.1 0.928744 22.1 1.65624V14.4175C22.1 14.9912 21.695 15.4825 21.1363 15.595L12.9725 17.2262C12.6613 17.29 12.3425 17.29 12.0313 17.2262L3.86375 15.5912C3.30125 15.4787 2.9 14.9875 2.9 14.4137V1.65624C2.9 0.928744 3.54125 0.369994 4.265 0.467494L12.5 1.59999L20.735 0.467494ZM0.5 2.85624C0.5 2.18499 1.0475 1.65624 1.7 1.65624V2.85624V6.39999V16.0975L12.2638 18.2087C12.4175 18.2387 12.5788 18.2387 12.7363 18.2087L23.3 16.0975V6.39999V2.85624V1.65624C23.9525 1.65624 24.5 2.18499 24.5 2.85624V16.0975C24.5 16.6712 24.095 17.1625 23.5363 17.275L12.9725 19.3862C12.6613 19.45 12.3425 19.45 12.0313 19.3862L1.46375 17.2712C0.905 17.1625 0.5 16.6675 0.5 16.0975V2.85624Z" fill="black" fill-opacity="0.87"/>
</svg>
