<svg width="25" height="24" viewBox="0 0 25 24" fill="none" xmlns="http://www.w3.org/2000/svg">
<path d="M16.3812 0.295313C16.5969 0.103125 16.8734 0 17.1594 0C17.9656 0 18.5281 0.801562 18.2562 1.56094L15.0641 10.5H20.2344C20.9328 10.5 21.5 11.0672 21.5 11.7656C21.5 12.1313 21.3453 12.4734 21.0734 12.7172L8.61406 23.7094C8.40313 23.8969 8.12656 24 7.84062 24C7.03437 24 6.47187 23.1984 6.73906 22.4391L9.93594 13.5H4.70937C4.04375 13.5 3.5 12.9563 3.5 12.2906C3.5 11.9438 3.65 11.6156 3.90781 11.3859L16.3812 0.295313ZM16.4047 2.28281L5.47344 12H11C11.2437 12 11.4734 12.1172 11.6141 12.3187C11.7547 12.5203 11.7875 12.7734 11.7078 13.0031L8.59063 21.7313L19.6156 12H14C13.7563 12 13.5266 11.8828 13.3859 11.6812C13.2453 11.4797 13.2125 11.2266 13.2922 10.9969L16.4047 2.27812V2.28281Z" fill="black" fill-opacity="0.87"/>
</svg>
