<svg width="25" height="24" viewBox="0 0 25 24" fill="none" xmlns="http://www.w3.org/2000/svg">
<g clip-path="url(#clip0_8117_31003)">
<path d="M6.6875 11.1703C7.79375 10.7344 8.99375 10.5 10.25 10.5H14.75C15.1625 10.5 15.5 10.8375 15.5 11.25C15.5 11.6625 15.1625 12 14.75 12H10.25C8.9 12 7.625 12.3234 6.5 12.9C6.57969 16.5562 9.57031 19.5 13.25 19.5H13.2875C18.3969 19.4766 23 14.3203 23 7.34062C23 6.2625 22.8875 5.22187 22.6766 4.23281C21.4766 5.32969 19.8781 6 18.125 6H13.25C10.0672 6 7.39531 8.20312 6.6875 11.1703ZM5.03281 12.0141C5.40781 7.8 8.94219 4.5 13.25 4.5H18.125C19.775 4.5 21.2469 3.74062 22.2125 2.54531L22.2406 2.50781C22.3484 2.37187 22.4469 2.23594 22.5406 2.09062C22.6156 1.97344 22.6906 1.85156 22.7562 1.725C22.9203 1.42031 23.3937 1.40625 23.5156 1.72969C23.5766 1.89375 23.6328 2.05781 23.6891 2.22656C23.7453 2.39531 23.7969 2.55937 23.8484 2.73281L23.8672 2.80312C24.2797 4.22344 24.5 5.74687 24.5 7.34062C24.5 14.8641 19.4891 20.9672 13.2969 21H13.25C9.05937 21 5.6 17.8734 5.07031 13.8281C3.19531 15.3422 2 17.6578 2 20.25V21.75C2 22.1625 1.6625 22.5 1.25 22.5C0.8375 22.5 0.5 22.1625 0.5 21.75V20.25C0.5 16.7859 2.30937 13.7391 5.03281 12.0141Z" fill="#181F25"/>
</g>
<defs>
<clipPath id="clip0_8117_31003">
<rect width="24" height="24" fill="white" transform="translate(0.5)"/>
</clipPath>
</defs>
</svg>
