<svg width="25" height="24" viewBox="0 0 25 24" fill="none" xmlns="http://www.w3.org/2000/svg">
<g clip-path="url(#clip0_8117_31048)">
<path d="M5.3 4.80001C5.41819 4.80001 5.53522 4.82329 5.64442 4.86851C5.75361 4.91374 5.85282 4.98004 5.9364 5.06361C6.01997 5.14718 6.08626 5.2464 6.13149 5.35559C6.17672 5.46478 6.2 5.58182 6.2 5.70001C6.2 5.8182 6.17672 5.93523 6.13149 6.04442C6.08626 6.15361 6.01997 6.25283 5.9364 6.3364C5.85282 6.41998 5.75361 6.48627 5.64442 6.5315C5.53522 6.57673 5.41819 6.60001 5.3 6.60001C5.18181 6.60001 5.06478 6.57673 4.95559 6.5315C4.84639 6.48627 4.74718 6.41998 4.6636 6.3364C4.58003 6.25283 4.51374 6.15361 4.46851 6.04442C4.42328 5.93523 4.4 5.8182 4.4 5.70001C4.4 5.58182 4.42328 5.46478 4.46851 5.35559C4.51374 5.2464 4.58003 5.14718 4.6636 5.06361C4.74718 4.98004 4.84639 4.91374 4.95559 4.86851C5.06478 4.82329 5.18181 4.80001 5.3 4.80001ZM5.3 7.80001C5.57578 7.80001 5.84885 7.74569 6.10364 7.64015C6.35842 7.53462 6.58992 7.37993 6.78492 7.18493C6.97993 6.98993 7.13461 6.75843 7.24015 6.50364C7.34568 6.24886 7.4 5.97578 7.4 5.70001C7.4 5.42423 7.34568 5.15115 7.24015 4.89637C7.13461 4.64159 6.97993 4.41008 6.78492 4.21508C6.58992 4.02008 6.35842 3.86539 6.10364 3.75986C5.84885 3.65432 5.57578 3.60001 5.3 3.60001C5.02422 3.60001 4.75115 3.65432 4.49636 3.75986C4.24158 3.86539 4.01008 4.02008 3.81508 4.21508C3.62007 4.41008 3.46539 4.64159 3.35985 4.89637C3.25432 5.15115 3.2 5.42423 3.2 5.70001C3.2 5.97578 3.25432 6.24886 3.35985 6.50364C3.46539 6.75843 3.62007 6.98993 3.81508 7.18493C4.01008 7.37993 4.24158 7.53462 4.49636 7.64015C4.75115 7.74569 5.02422 7.80001 5.3 7.80001ZM0.5 12.9C0.5 14.5238 1.49 15.915 2.9 16.5V18.3C2.9 18.7988 3.30125 19.2 3.8 19.2H6.8C7.29875 19.2 7.7 18.7988 7.7 18.3V16.8C7.7 16.47 7.43 16.2 7.1 16.2C6.77 16.2 6.5 16.47 6.5 16.8V18H4.1V10.215C4.1975 10.2038 4.29875 10.2 4.4 10.2H6.2C6.54875 10.2 6.87875 10.2638 7.1825 10.3838C7.49 10.5038 7.83875 10.35 7.95875 10.0425C8.07875 9.73501 7.925 9.38626 7.6175 9.26626C7.17875 9.09376 6.69875 9.00001 6.2 9.00001H4.4C2.2475 9.00001 0.5 10.7475 0.5 12.9ZM2.9 15.1463C2.17625 14.6625 1.7 13.8338 1.7 12.9C1.7 11.9625 2.17625 11.1375 2.9 10.6538V15.1463ZM19.7 4.80001C19.8182 4.80001 19.9352 4.82329 20.0444 4.86851C20.1536 4.91374 20.2528 4.98004 20.3364 5.06361C20.42 5.14718 20.4863 5.2464 20.5315 5.35559C20.5767 5.46478 20.6 5.58182 20.6 5.70001C20.6 5.8182 20.5767 5.93523 20.5315 6.04442C20.4863 6.15361 20.42 6.25283 20.3364 6.3364C20.2528 6.41998 20.1536 6.48627 20.0444 6.5315C19.9352 6.57673 19.8182 6.60001 19.7 6.60001C19.5818 6.60001 19.4648 6.57673 19.3556 6.5315C19.2464 6.48627 19.1472 6.41998 19.0636 6.3364C18.98 6.25283 18.9137 6.15361 18.8685 6.04442C18.8233 5.93523 18.8 5.8182 18.8 5.70001C18.8 5.58182 18.8233 5.46478 18.8685 5.35559C18.9137 5.2464 18.98 5.14718 19.0636 5.06361C19.1472 4.98004 19.2464 4.91374 19.3556 4.86851C19.4648 4.82329 19.5818 4.80001 19.7 4.80001ZM19.7 7.80001C19.9758 7.80001 20.2489 7.74569 20.5036 7.64015C20.7584 7.53462 20.9899 7.37993 21.1849 7.18493C21.3799 6.98993 21.5346 6.75843 21.6401 6.50364C21.7457 6.24886 21.8 5.97578 21.8 5.70001C21.8 5.42423 21.7457 5.15115 21.6401 4.89637C21.5346 4.64159 21.3799 4.41008 21.1849 4.21508C20.9899 4.02008 20.7584 3.86539 20.5036 3.75986C20.2489 3.65432 19.9758 3.60001 19.7 3.60001C19.4242 3.60001 19.1511 3.65432 18.8964 3.75986C18.6416 3.86539 18.4101 4.02008 18.2151 4.21508C18.0201 4.41008 17.8654 4.64159 17.7599 4.89637C17.6543 5.15115 17.6 5.42423 17.6 5.70001C17.6 5.97578 17.6543 6.24886 17.7599 6.50364C17.8654 6.75843 18.0201 6.98993 18.2151 7.18493C18.4101 7.37993 18.6416 7.53462 18.8964 7.64015C19.1511 7.74569 19.4242 7.80001 19.7 7.80001ZM24.5 12.9C24.5 10.7475 22.7525 9.00001 20.6 9.00001H18.8C18.3013 9.00001 17.8213 9.09376 17.3825 9.26626C17.075 9.38626 16.9213 9.73501 17.0413 10.0425C17.1613 10.35 17.51 10.5038 17.8175 10.3838C18.1213 10.2638 18.4513 10.2 18.8 10.2H20.6C20.7013 10.2 20.8025 10.2038 20.9 10.215V18H18.5V16.8C18.5 16.47 18.23 16.2 17.9 16.2C17.57 16.2 17.3 16.47 17.3 16.8V18.3C17.3 18.7988 17.7013 19.2 18.2 19.2H21.2C21.6988 19.2 22.1 18.7988 22.1 18.3V16.5C23.51 15.9113 24.5 14.5238 24.5 12.9ZM22.1 15.1463V10.6538C22.8238 11.1375 23.3 11.9625 23.3 12.9C23.3 13.8338 22.8238 14.6625 22.1 15.1463ZM11.3 6.00001C11.3 5.68175 11.4264 5.37652 11.6515 5.15148C11.8765 4.92643 12.1817 4.80001 12.5 4.80001C12.8183 4.80001 13.1235 4.92643 13.3485 5.15148C13.5736 5.37652 13.7 5.68175 13.7 6.00001C13.7 6.31827 13.5736 6.62349 13.3485 6.84853C13.1235 7.07358 12.8183 7.20001 12.5 7.20001C12.1817 7.20001 11.8765 7.07358 11.6515 6.84853C11.4264 6.62349 11.3 6.31827 11.3 6.00001ZM14.9 6.00001C14.9 5.36349 14.6471 4.75304 14.1971 4.30295C13.747 3.85286 13.1365 3.60001 12.5 3.60001C11.8635 3.60001 11.253 3.85286 10.8029 4.30295C10.3529 4.75304 10.1 5.36349 10.1 6.00001C10.1 6.63653 10.3529 7.24698 10.8029 7.69706C11.253 8.14715 11.8635 8.40001 12.5 8.40001C13.1365 8.40001 13.747 8.14715 14.1971 7.69706C14.6471 7.24698 14.9 6.63653 14.9 6.00001ZM11.9 9.60001C9.7475 9.60001 8 11.3475 8 13.5C8 15.0038 8.85125 16.3088 10.1 16.9613V19.5C10.1 19.9988 10.5013 20.4 11 20.4H14C14.4988 20.4 14.9 19.9988 14.9 19.5V16.9613C16.1488 16.3125 17 15.0075 17 13.5C17 11.3475 15.2525 9.60001 13.1 9.60001H11.9ZM10.1 11.4863V15.5138C9.54875 15.0188 9.2 14.2988 9.2 13.5C9.2 12.7013 9.54875 11.9813 10.1 11.4863ZM11.3 19.2V10.8675C11.4913 10.8225 11.6938 10.8 11.9 10.8H13.1C13.3063 10.8 13.5088 10.8225 13.7 10.8675V19.2H11.3ZM14.9 15.5138V11.4863C15.4513 11.9813 15.8 12.6975 15.8 13.5C15.8 14.2988 15.4513 15.0188 14.9 15.5138Z" fill="black" fill-opacity="0.87"/>
</g>
<defs>
<clipPath id="clip0_8117_31048">
<rect width="24" height="24" fill="white" transform="translate(0.5)"/>
</clipPath>
</defs>
</svg>
