<svg width="25" height="24" viewBox="0 0 25 24" fill="none" xmlns="http://www.w3.org/2000/svg">
<g clip-path="url(#clip0_8117_31056)">
<path d="M11.6125 1.33334H13.3917C14.1292 1.33334 14.725 1.92918 14.725 2.66668V4.44584H16.5C17.2375 4.44584 17.8333 5.04168 17.8333 5.77918V7.55834C17.8333 8.29584 17.2375 8.89168 16.5 8.89168H14.7208V10.6667C14.7208 11.4042 14.125 12 13.3875 12H11.6125C10.875 12 10.2792 11.4042 10.2792 10.6667V8.88751H8.5C7.7625 8.88751 7.16667 8.29168 7.16667 7.55418V5.77918C7.16667 5.04168 7.7625 4.44584 8.5 4.44584H10.2792V2.66668C10.2792 1.92918 10.875 1.33334 11.6125 1.33334ZM11.6125 2.66668V5.11251C11.6125 5.47918 11.3125 5.77918 10.9458 5.77918H8.5V7.55834H10.9458C11.3125 7.55834 11.6125 7.85834 11.6125 8.22501V10.6667H13.3917V8.22084C13.3917 7.85418 13.6917 7.55418 14.0583 7.55418H16.5042V5.77918H14.0542C13.6875 5.77918 13.3875 5.47918 13.3875 5.11251V2.66668H11.6083H11.6125ZM6.79167 14.5583C7.3375 14.1917 7.98333 14 8.64167 14H14.8333C16.1208 14 17.1667 15.0458 17.1667 16.3333C17.1667 16.6917 17.0875 17.0292 16.9417 17.3333H17.175L21.1208 14.9833C21.4667 14.7792 21.8625 14.6667 22.2667 14.6667H22.3208C23.525 14.6667 24.5 15.6417 24.5 16.8458C24.5 17.5833 24.125 18.2708 23.5083 18.6708L18.525 21.9125C17.7667 22.4042 16.8833 22.6667 15.9833 22.6667H1.16667C0.8 22.6667 0.5 22.3667 0.5 22C0.5 21.6333 0.8 21.3333 1.16667 21.3333H15.9792C16.625 21.3333 17.2542 21.1458 17.7958 20.7958L22.7792 17.5542C23.0208 17.4 23.1625 17.1292 23.1625 16.8458C23.1625 16.3792 22.7833 16 22.3167 16H22.2625C22.1 16 21.9417 16.0458 21.8 16.125L17.6958 18.5708C17.5917 18.6333 17.475 18.6667 17.3542 18.6667H14.8333H13.8333H11.1667C10.8 18.6667 10.5 18.3667 10.5 18C10.5 17.6333 10.8 17.3333 11.1667 17.3333H13.8333H14.8333C15.3875 17.3333 15.8333 16.8875 15.8333 16.3333C15.8333 15.7792 15.3875 15.3333 14.8333 15.3333H8.64167C8.24583 15.3333 7.8625 15.45 7.53333 15.6708L4.20417 17.8875L4.0375 18H3.83333H1.16667C0.8 18 0.5 17.7 0.5 17.3333C0.5 16.9667 0.8 16.6667 1.16667 16.6667H3.63333L6.79167 14.5583Z" fill="black" fill-opacity="0.87"/>
</g>
<defs>
<clipPath id="clip0_8117_31056">
<rect width="24" height="24" fill="white" transform="translate(0.5)"/>
</clipPath>
</defs>
</svg>
