<svg width="23" height="24" viewBox="0 0 23 24" fill="none" xmlns="http://www.w3.org/2000/svg">
<path d="M7 3C7 2.60218 6.84197 2.22064 6.56066 1.93934C6.27936 1.65804 5.89783 1.5 5.5 1.5C5.10218 1.5 4.72065 1.65804 4.43934 1.93934C4.15804 2.22064 4 2.60218 4 3C4 3.39782 4.15804 3.77936 4.43934 4.06066C4.72065 4.34196 5.10218 4.5 5.5 4.5C5.89783 4.5 6.27936 4.34196 6.56066 4.06066C6.84197 3.77936 7 3.39782 7 3ZM2.5 3C2.5 2.20435 2.81607 1.44129 3.37868 0.87868C3.94129 0.316071 4.70435 0 5.5 0C6.29565 0 7.05871 0.316071 7.62132 0.87868C8.18393 1.44129 8.5 2.20435 8.5 3C8.5 3.79565 8.18393 4.55871 7.62132 5.12132C7.05871 5.68393 6.29565 6 5.5 6C4.70435 6 3.94129 5.68393 3.37868 5.12132C2.81607 4.55871 2.5 3.79565 2.5 3ZM2.20938 11.0625L2.01719 13.3734C1.94219 14.25 2.63125 15 3.5125 15H7.49219C8.36875 15 9.05782 14.25 8.9875 13.3734L8.79063 11.0625C8.69219 9.89531 7.71719 9 6.55 9H4.45C3.27813 9 2.30313 9.89531 2.20938 11.0625ZM0.714065 10.9359C0.87344 8.99531 2.5 7.5 4.45 7.5H6.55C8.5 7.5 10.1266 8.99531 10.2859 10.9406L10.4781 13.2516C10.5953 14.6484 9.74219 15.8812 8.5 16.3266V23.25C8.5 23.6625 8.1625 24 7.75 24C7.3375 24 7 23.6625 7 23.25V16.5H4V23.25C4 23.6625 3.6625 24 3.25 24C2.8375 24 2.5 23.6625 2.5 23.25V16.3266C1.25782 15.8812 0.40469 14.6484 0.521878 13.2516L0.714065 10.9406V10.9359ZM19 3C19 2.60218 18.842 2.22064 18.5607 1.93934C18.2794 1.65804 17.8978 1.5 17.5 1.5C17.1022 1.5 16.7206 1.65804 16.4393 1.93934C16.158 2.22064 16 2.60218 16 3C16 3.39782 16.158 3.77936 16.4393 4.06066C16.7206 4.34196 17.1022 4.5 17.5 4.5C17.8978 4.5 18.2794 4.34196 18.5607 4.06066C18.842 3.77936 19 3.39782 19 3ZM14.5 3C14.5 2.20435 14.8161 1.44129 15.3787 0.87868C15.9413 0.316071 16.7044 0 17.5 0C18.2957 0 19.0587 0.316071 19.6213 0.87868C20.1839 1.44129 20.5 2.20435 20.5 3C20.5 3.79565 20.1839 4.55871 19.6213 5.12132C19.0587 5.68393 18.2957 6 17.5 6C16.7044 6 15.9413 5.68393 15.3787 5.12132C14.8161 4.55871 14.5 3.79565 14.5 3ZM14.2094 11.0625L14.0172 13.3734C13.9422 14.25 14.6313 15 15.5125 15H19.4922C20.3688 15 21.0578 14.25 20.9875 13.3734L20.7906 11.0625C20.6922 9.89531 19.7172 9 18.55 9H16.45C15.2781 9 14.3031 9.89531 14.2094 11.0625ZM12.7141 10.9359C12.8781 8.99063 14.5 7.49531 16.45 7.49531H18.55C20.5 7.49531 22.1266 8.99063 22.2859 10.9359L22.4781 13.2469C22.5953 14.6438 21.7422 15.8766 20.5 16.3219V23.25C20.5 23.6625 20.1625 24 19.75 24C19.3375 24 19 23.6625 19 23.25V16.5H16V23.25C16 23.6625 15.6625 24 15.25 24C14.8375 24 14.5 23.6625 14.5 23.25V16.3266C13.2578 15.8812 12.4047 14.6484 12.5219 13.2516L12.7141 10.9406V10.9359Z" fill="black" fill-opacity="0.87"/>
</svg>
