<svg width="25" height="20" viewBox="0 0 25 20" fill="none" xmlns="http://www.w3.org/2000/svg">
<path d="M13.1 1.60002C12.77 1.60002 12.5 1.87002 12.5 2.20002V19C12.5 19.33 12.23 19.6 11.9 19.6C11.57 19.6 11.3 19.33 11.3 19V2.20002C11.3 1.20627 12.1063 0.400024 13.1 0.400024H17.9C18.8938 0.400024 19.7 1.20627 19.7 2.20002V7.60002H20.9V4.60002C20.9 4.27002 21.17 4.00002 21.5 4.00002C21.83 4.00002 22.1 4.27002 22.1 4.60002V7.60002H22.7C23.6938 7.60002 24.5 8.40627 24.5 9.40002V19C24.5 19.33 24.23 19.6 23.9 19.6C23.57 19.6 23.3 19.33 23.3 19V9.40002C23.3 9.07002 23.03 8.80002 22.7 8.80002H21.5H19.1C18.77 8.80002 18.5 8.53002 18.5 8.20002V2.20002C18.5 1.87002 18.23 1.60002 17.9 1.60002H13.1ZM14.9 2.80002H16.1C16.7638 2.80002 17.3 3.33627 17.3 4.00002V5.20002C17.3 5.86377 16.7638 6.40002 16.1 6.40002H14.9C14.2363 6.40002 13.7 5.86377 13.7 5.20002V4.00002C13.7 3.33627 14.2363 2.80002 14.9 2.80002ZM14.9 4.00002V5.20002H16.1V4.00002H14.9ZM18.5 11.2C18.5 10.5363 19.0363 10 19.7 10H20.9C21.5638 10 22.1 10.5363 22.1 11.2V12.4C22.1 13.0638 21.5638 13.6 20.9 13.6H19.7C19.0363 13.6 18.5 13.0638 18.5 12.4V11.2ZM20.9 11.2H19.7V12.4H20.9V11.2ZM19.7 14.8H20.9C21.5638 14.8 22.1 15.3363 22.1 16V17.2C22.1 17.8638 21.5638 18.4 20.9 18.4H19.7C19.0363 18.4 18.5 17.8638 18.5 17.2V16C18.5 15.3363 19.0363 14.8 19.7 14.8ZM19.7 16V17.2H20.9V16H19.7ZM13.7 8.80002C13.7 8.13627 14.2363 7.60002 14.9 7.60002H16.1C16.7638 7.60002 17.3 8.13627 17.3 8.80002V10C17.3 10.6638 16.7638 11.2 16.1 11.2H14.9C14.2363 11.2 13.7 10.6638 13.7 10V8.80002ZM16.1 8.80002H14.9V10H16.1V8.80002ZM14.9 12.4H16.1C16.7638 12.4 17.3 12.9363 17.3 13.6V14.8C17.3 15.4638 16.7638 16 16.1 16H14.9C14.2363 16 13.7 15.4638 13.7 14.8V13.6C13.7 12.9363 14.2363 12.4 14.9 12.4ZM14.9 13.6V14.8H16.1V13.6H14.9ZM5.3 8.80002C5.63 8.80002 5.9 9.07002 5.9 9.40002V11.2H7.1C8.09375 11.2 8.9 10.3938 8.9 9.40002C8.9 8.80002 8.6075 8.26752 8.15375 7.94127L7.85375 7.72377C7.67 7.59252 7.57625 7.36752 7.61375 7.14252L7.62875 7.04502C7.67 6.79377 7.7 6.59877 7.7 6.40002C7.7 5.07627 6.62375 4.00002 5.3 4.00002C3.97625 4.00002 2.9 5.07627 2.9 6.40002C2.9 6.59877 2.93 6.79377 2.97125 7.04502L2.98625 7.14252C3.02 7.36752 2.93 7.58877 2.74625 7.72377L2.44625 7.94127C1.9925 8.26752 1.7 8.80002 1.7 9.40002C1.7 10.3938 2.50625 11.2 3.5 11.2H4.7V9.40002C4.7 9.07002 4.97 8.80002 5.3 8.80002ZM4.7 12.4H3.5C1.8425 12.4 0.5 11.0575 0.5 9.40002C0.5 8.39877 0.99125 7.51377 1.745 6.96627C1.71875 6.79002 1.7 6.59502 1.7 6.40002C1.7 4.41252 3.3125 2.80002 5.3 2.80002C7.2875 2.80002 8.9 4.41252 8.9 6.40002C8.9 6.59502 8.88125 6.79002 8.855 6.96627C9.60875 7.51377 10.1 8.39877 10.1 9.40002C10.1 11.0575 8.7575 12.4 7.1 12.4H5.9V19C5.9 19.33 5.63 19.6 5.3 19.6C4.97 19.6 4.7 19.33 4.7 19V12.4Z" fill="black" fill-opacity="0.87"/>
</svg>
