<svg width="25" height="16" viewBox="0 0 25 16" fill="none" xmlns="http://www.w3.org/2000/svg">
<path d="M6.075 1.78333C6.7625 2.25 7.62917 2.66666 8.5 2.66666C9.37083 2.66666 10.2333 2.25416 10.925 1.78333C11.3333 1.50416 11.675 1.2 12.0042 0.870829C12.2792 0.599996 12.7208 0.599996 12.9917 0.870829C13.3208 1.2 13.6667 1.50416 14.075 1.78333C14.7625 2.25 15.6292 2.66666 16.5 2.66666C17.3708 2.66666 18.2333 2.25416 18.925 1.78333C19.3333 1.50416 19.675 1.2 20.0042 0.870829C20.2792 0.599996 20.7208 0.599996 20.9917 0.870829C21.3208 1.2 21.6667 1.50416 22.075 1.78333C22.6083 2.14583 23.2458 2.475 23.9125 2.60833C24.2333 2.67083 24.5 2.93333 24.5 3.2625C24.5 3.67083 24.1667 4.00833 23.7625 3.9375C22.8 3.77083 21.9458 3.3125 21.325 2.8875C20.9958 2.6625 20.7125 2.4375 20.5 2.25C20.2875 2.4375 20.0083 2.6625 19.675 2.8875C18.8958 3.4125 17.7625 4 16.5 4C15.2375 4 14.1 3.4125 13.325 2.88333C12.9958 2.65833 12.7125 2.43333 12.5 2.24583C12.2875 2.43333 12.0083 2.65833 11.675 2.88333C10.8958 3.4125 9.7625 4 8.5 4C7.2375 4 6.1 3.4125 5.325 2.88333C4.99583 2.65833 4.71667 2.43333 4.5 2.24583C4.2875 2.43333 4.00833 2.65833 3.675 2.88333C3.05417 3.30833 2.2 3.76666 1.2375 3.93333C0.833333 4.00416 0.5 3.66666 0.5 3.25833C0.5 2.92916 0.766667 2.67083 1.0875 2.60416C1.75 2.475 2.39167 2.14166 2.92083 1.77916C3.32917 1.5 3.67083 1.19583 4 0.866663C4.275 0.595829 4.71667 0.591663 4.99167 0.866663C5.32083 1.19583 5.66667 1.5 6.07083 1.77916L6.075 1.78333ZM6.075 13.7833C6.7625 14.25 7.62917 14.6667 8.5 14.6667C9.37083 14.6667 10.2333 14.2542 10.925 13.7833C11.3333 13.5042 11.675 13.2 12.0042 12.8708C12.2792 12.6 12.7208 12.6 12.9917 12.8708C13.3208 13.2 13.6667 13.5042 14.075 13.7833C14.7625 14.25 15.6292 14.6667 16.5 14.6667C17.3708 14.6667 18.2333 14.2542 18.925 13.7833C19.3333 13.5042 19.675 13.2 20.0042 12.8708C20.2792 12.6 20.7208 12.5958 20.9917 12.8708C21.3208 13.2 21.6667 13.5042 22.075 13.7833C22.6083 14.1458 23.2458 14.475 23.9125 14.6083C24.2333 14.6708 24.5 14.9333 24.5 15.2625C24.5 15.6708 24.1667 16.0083 23.7625 15.9375C22.8 15.7708 21.9458 15.3125 21.325 14.8875C20.9958 14.6625 20.7125 14.4375 20.5 14.25C20.2875 14.4375 20.0083 14.6625 19.675 14.8875C18.8958 15.4125 17.7625 16 16.5 16C15.2375 16 14.1 15.4125 13.325 14.8833C12.9958 14.6583 12.7125 14.4333 12.5 14.2458C12.2875 14.4333 12.0083 14.6583 11.675 14.8833C10.8958 15.4125 9.7625 16 8.5 16C7.2375 16 6.1 15.4125 5.325 14.8833C4.99583 14.6583 4.71667 14.4333 4.5 14.2458C4.2875 14.4333 4.00833 14.6583 3.675 14.8833C3.05417 15.3083 2.2 15.7667 1.2375 15.9333C0.833333 16.0042 0.5 15.6667 0.5 15.2583C0.5 14.9292 0.766667 14.6708 1.0875 14.6042C1.75 14.475 2.39167 14.1417 2.92083 13.7792C3.32917 13.5 3.67083 13.1958 4 12.8667C4.275 12.5958 4.71667 12.5917 4.99167 12.8667C5.32083 13.1958 5.66667 13.5 6.07083 13.7792L6.075 13.7833ZM8.5 8.66666C9.37083 8.66666 10.2333 8.25416 10.925 7.78333C11.3333 7.50416 11.675 7.2 12.0042 6.87083C12.2792 6.6 12.7208 6.6 12.9917 6.87083C13.3208 7.2 13.6667 7.50416 14.075 7.78333C14.7625 8.25 15.6292 8.66666 16.5 8.66666C17.3708 8.66666 18.2333 8.25416 18.925 7.78333C19.3333 7.50416 19.675 7.2 20.0042 6.87083C20.2792 6.6 20.7208 6.6 20.9917 6.87083C21.3208 7.2 21.6667 7.50416 22.075 7.78333C22.6083 8.14583 23.2458 8.475 23.9125 8.60833C24.2333 8.67083 24.5 8.93333 24.5 9.2625C24.5 9.67083 24.1667 10.0083 23.7625 9.9375C22.8 9.77083 21.9458 9.3125 21.325 8.8875C20.9958 8.6625 20.7125 8.4375 20.5 8.25C20.2875 8.4375 20.0083 8.6625 19.675 8.8875C18.8958 9.4125 17.7625 10 16.5 10C15.2375 10 14.1 9.4125 13.325 8.88333C12.9958 8.65833 12.7125 8.43333 12.5 8.24583C12.2875 8.43333 12.0083 8.65833 11.675 8.88333C10.8958 9.4125 9.7625 10 8.5 10C7.2375 10 6.1 9.4125 5.325 8.88333C4.99583 8.65833 4.71667 8.43333 4.5 8.24583C4.2875 8.43333 4.00833 8.65833 3.675 8.88333C3.05417 9.30833 2.2 9.76666 1.2375 9.93333C0.833333 10.0042 0.5 9.66666 0.5 9.25833C0.5 8.92916 0.766667 8.67083 1.0875 8.60416C1.75 8.475 2.39167 8.14166 2.92083 7.77916C3.32917 7.5 3.67083 7.19583 4 6.86666C4.275 6.59583 4.71667 6.59166 4.99167 6.86666C5.32083 7.19583 5.66667 7.5 6.07083 7.77916C6.7625 8.25 7.62917 8.66666 8.5 8.66666Z" fill="black" fill-opacity="0.87"/>
</svg>
