<svg width="409" height="56" viewBox="0 0 409 56" fill="none" xmlns="http://www.w3.org/2000/svg">
<path d="M152.411 8.36871L147.517 11.6315C147.449 11.5295 147.364 11.3766 147.262 11.1726C147.16 10.9687 146.871 10.6288 146.396 10.153C145.954 9.67721 145.461 9.25237 144.917 8.87851C144.373 8.50466 143.609 8.16479 142.623 7.85891C141.671 7.55303 140.652 7.40008 139.564 7.40008C137.729 7.40008 136.284 7.79093 135.231 8.57263C134.211 9.35433 133.701 10.3569 133.701 11.5805C133.701 12.6001 134.041 13.4498 134.721 14.1295C135.435 14.8092 136.352 15.336 137.474 15.7099C138.63 16.0837 139.887 16.4406 141.247 16.7805C142.606 17.0864 143.948 17.4772 145.274 17.953C146.633 18.4288 147.874 19.0236 148.996 19.7373C150.151 20.4171 151.069 21.4367 151.749 22.7962C152.462 24.1217 152.819 25.702 152.819 27.5373C152.819 30.3583 151.698 32.7713 149.454 34.7766C147.211 36.7818 143.881 37.7844 139.462 37.7844C137.389 37.7844 135.469 37.5295 133.701 37.0197C131.934 36.5099 130.524 35.8981 129.47 35.1844C128.45 34.4707 127.567 33.757 126.819 33.0432C126.071 32.2955 125.562 31.6668 125.29 31.157L124.882 30.3922L129.113 26.4158C129.215 26.5517 129.351 26.7556 129.521 27.0275C129.725 27.2654 130.15 27.7073 130.796 28.353C131.441 28.9988 132.138 29.5596 132.886 30.0354C133.633 30.5112 134.602 30.953 135.792 31.3609C136.981 31.7687 138.205 31.9726 139.462 31.9726C141.332 31.9726 142.793 31.5988 143.847 30.8511C144.934 30.1034 145.478 29.0668 145.478 27.7413C145.478 26.4498 145.002 25.3962 144.05 24.5805C143.099 23.7648 141.909 23.221 140.482 22.9491C139.054 22.6432 137.491 22.2524 135.792 21.7766C134.126 21.2668 132.58 20.723 131.152 20.1452C129.725 19.5334 128.535 18.5138 127.584 17.0864C126.632 15.6249 126.156 13.8066 126.156 11.6315C126.156 8.77655 127.295 6.38048 129.572 4.44322C131.883 2.47198 135.044 1.48636 139.054 1.48636C141.094 1.48636 142.929 1.72427 144.56 2.20008C146.226 2.6759 147.517 3.25368 148.435 3.93342C149.386 4.61316 150.168 5.2929 150.78 5.97263C151.426 6.61839 151.867 7.17917 152.105 7.65499L152.411 8.36871Z" fill="#00244D"/>
<path d="M116.263 37.4785L113.153 28.5569H100.51L97.5023 37.4785H90.1611L103.263 1.79224H110.451L123.553 37.4785H116.263ZM106.832 10.255L102.396 23.204H111.369L106.832 10.255Z" fill="#00244D"/>
<path d="M89.13 37.4785H66.3418V1.79224H73.3771V31.7687H89.13V37.4785Z" fill="#00244D"/>
<path d="M50.1395 37.4785H43.1552V7.50204H30.9199V1.79224H61.916V7.50204H50.1395V37.4785Z" fill="#00244D"/>
<path d="M26.102 37.4785L22.9922 28.5569H10.349L7.34118 37.4785H0L13.102 1.79224H20.2902L33.3922 37.4785H26.102ZM16.6706 10.255L12.2353 23.204H21.2078L16.6706 10.255Z" fill="#00244D"/>
<line opacity="0.3" x1="166.542" y1="2.30206" x2="166.542" y2="36.9687" stroke="#00244D" stroke-width="1.44444"/>
<path d="M287.929 32.1164L288.662 33.8815C288.586 33.9441 288.48 34.0318 288.342 34.1444C288.217 34.2446 287.948 34.3823 287.535 34.5575C287.122 34.7203 286.696 34.8017 286.258 34.8017C284.969 34.8017 284.036 34.4699 283.46 33.8064C282.884 33.143 282.596 32.154 282.596 30.8395V27.5722H281.226V25.6381H282.596V22.8027H285.056V25.6381H288.173V27.5722H285.056V30.7269C285.056 32.0038 285.544 32.6422 286.521 32.6422C286.784 32.6422 287.028 32.5984 287.253 32.5108C287.491 32.4231 287.66 32.3355 287.76 32.2479L287.929 32.1164Z" fill="#00244D"/>
<path d="M280.39 32.8112V34.6514C280.128 34.7391 279.765 34.7829 279.301 34.7829C277.887 34.7829 277.179 33.988 277.179 32.3981V29.3373C277.179 28.8366 277.048 28.436 276.785 28.1355C276.535 27.8351 276.172 27.6849 275.696 27.6849C275.17 27.6849 274.77 27.8727 274.494 28.2482C274.219 28.6238 274.075 29.0431 274.062 29.5063V34.689H271.621V28.3233C271.621 27.785 271.371 27.5159 270.87 27.5159V25.6757C271.12 25.588 271.477 25.5442 271.94 25.5442C272.992 25.5442 273.593 25.9824 273.743 26.8587V27.084C274.094 26.045 274.989 25.5254 276.428 25.5254C277.517 25.5254 278.325 25.8572 278.851 26.5207C279.376 27.1841 279.639 28.0479 279.639 29.112V32.0038C279.639 32.2792 279.696 32.4857 279.808 32.6234C279.921 32.7486 280.115 32.8112 280.39 32.8112Z" fill="#00244D"/>
<path d="M265.952 30.8771C265.589 30.8771 265.232 30.8583 264.882 30.8208C264.544 30.7707 264.294 30.7206 264.131 30.6705L263.887 30.5954V30.6142C263.887 31.2652 264.106 31.791 264.544 32.1915C264.982 32.5921 265.502 32.7924 266.102 32.7924C266.378 32.7924 266.641 32.7549 266.891 32.6798C267.154 32.5921 267.367 32.492 267.53 32.3793C267.692 32.2667 267.836 32.154 267.961 32.0413C268.087 31.9287 268.174 31.8348 268.224 31.7597L268.318 31.6282L269.576 32.9239C269.551 32.974 269.507 33.0428 269.445 33.1304C269.395 33.2181 269.257 33.3683 269.032 33.5811C268.819 33.7939 268.581 33.9817 268.318 34.1444C268.055 34.3072 267.692 34.4574 267.229 34.5951C266.778 34.7328 266.29 34.8017 265.764 34.8017C264.475 34.8017 263.43 34.4011 262.629 33.5999C261.827 32.7862 261.427 31.647 261.427 30.1823C261.427 28.7051 261.79 27.5597 262.516 26.746C263.254 25.9323 264.325 25.5254 265.727 25.5254C266.39 25.5254 266.972 25.6318 267.473 25.8447C267.974 26.045 268.356 26.3078 268.619 26.6333C268.894 26.9588 269.094 27.2843 269.22 27.6098C269.345 27.9353 269.407 28.2545 269.407 28.5674C269.407 29.4312 269.113 30.0321 268.525 30.3701C267.949 30.7081 267.091 30.8771 265.952 30.8771ZM263.943 29.0932C264.293 29.3185 264.838 29.4312 265.577 29.4312C266.616 29.4312 267.135 29.1808 267.135 28.6801C267.135 28.3797 266.997 28.1043 266.722 27.8539C266.459 27.591 266.084 27.4595 265.595 27.4595C265.107 27.4595 264.707 27.6098 264.394 27.9102C264.093 28.1981 263.943 28.5925 263.943 29.0932Z" fill="#00244D"/>
<path d="M260.2 32.8112V34.6514C259.95 34.7391 259.587 34.7829 259.111 34.7829C257.697 34.7829 256.989 33.988 256.989 32.3981V29.3373C256.989 28.8366 256.858 28.436 256.595 28.1355C256.345 27.8351 255.982 27.6849 255.506 27.6849C255.068 27.6849 254.724 27.8226 254.473 28.098C254.223 28.3734 254.06 28.7051 253.985 29.0932V32.0038C253.985 32.2792 254.041 32.4857 254.154 32.6234C254.267 32.7486 254.461 32.8112 254.736 32.8112V34.6514C254.473 34.7391 254.11 34.7829 253.647 34.7829C252.232 34.7829 251.525 33.988 251.525 32.3981V29.3373C251.525 28.8366 251.394 28.436 251.131 28.1355C250.88 27.8351 250.517 27.6849 250.042 27.6849C249.516 27.6849 249.115 27.8727 248.84 28.2482C248.565 28.6238 248.421 29.0431 248.408 29.5063V34.689H245.967V28.3233C245.967 27.785 245.717 27.5159 245.216 27.5159V25.6757C245.466 25.588 245.823 25.5442 246.286 25.5442C246.774 25.5442 247.175 25.6631 247.488 25.901C247.813 26.1263 248.014 26.4455 248.089 26.8587V27.084C248.439 26.045 249.334 25.5254 250.774 25.5254C252.114 25.5254 253.034 26.0512 253.534 27.1028C253.935 26.0512 254.836 25.5254 256.238 25.5254C257.327 25.5254 258.135 25.8572 258.661 26.5207C259.186 27.1841 259.449 28.0479 259.449 29.112V32.0038C259.449 32.2792 259.506 32.4857 259.618 32.6234C259.731 32.7486 259.925 32.8112 260.2 32.8112Z" fill="#00244D"/>
<path d="M237.717 39.2708H235.276V28.3233C235.276 27.785 235.025 27.5159 234.524 27.5159V25.6757C234.775 25.588 235.132 25.5442 235.595 25.5442C236.671 25.5442 237.285 25.9949 237.435 26.8962V27.0277C237.535 26.8148 237.667 26.6145 237.829 26.4268C237.992 26.2265 238.28 26.0262 238.693 25.8259C239.119 25.6256 239.613 25.5254 240.177 25.5254C241.165 25.5254 242.017 25.9198 242.73 26.7084C243.456 27.4846 243.819 28.6238 243.819 30.126C243.819 31.7033 243.456 32.8801 242.73 33.6562C242.004 34.4198 241.097 34.8017 240.008 34.8017C239.532 34.8017 239.1 34.7265 238.712 34.5763C238.336 34.4136 238.073 34.2508 237.923 34.0881L237.717 33.844V39.2708ZM237.717 29.2434V31.1024C237.742 31.4279 237.898 31.7722 238.186 32.1352C238.487 32.4857 238.925 32.661 239.501 32.661C240.064 32.661 240.521 32.4482 240.871 32.0225C241.222 31.5969 241.397 30.9773 241.397 30.1635C241.397 29.3248 241.209 28.6989 240.834 28.2858C240.458 27.8727 240.008 27.6661 239.482 27.6661C239.044 27.6661 238.674 27.7975 238.374 28.0604C238.086 28.3233 237.904 28.5862 237.829 28.8491L237.717 29.2434Z" fill="#00244D"/>
<path d="M231.982 33.5435C231.244 34.3823 230.211 34.8017 228.884 34.8017C227.557 34.8017 226.524 34.3823 225.786 33.5435C225.047 32.6923 224.678 31.5594 224.678 30.1448C224.678 28.7427 225.047 27.6223 225.786 26.7835C226.537 25.9448 227.57 25.5254 228.884 25.5254C230.198 25.5254 231.231 25.9448 231.982 26.7835C232.733 27.6223 233.109 28.7427 233.109 30.1448C233.109 31.5594 232.733 32.6923 231.982 33.5435ZM227.1 30.1635C227.1 31.8285 227.695 32.661 228.884 32.661C230.073 32.661 230.668 31.8285 230.668 30.1635C230.668 28.4986 230.073 27.6661 228.884 27.6661C227.695 27.6661 227.1 28.4986 227.1 30.1635Z" fill="#00244D"/>
<path d="M223.276 32.8112V34.6514C223.014 34.7391 222.651 34.7829 222.187 34.7829C220.773 34.7829 220.065 33.988 220.065 32.3981V21.0563H222.525V32.0038C222.525 32.5421 222.776 32.8112 223.276 32.8112Z" fill="#00244D"/>
<path d="M214.753 30.8771C214.39 30.8771 214.033 30.8583 213.683 30.8208C213.345 30.7707 213.094 30.7206 212.932 30.6705L212.687 30.5954V30.6142C212.687 31.2652 212.907 31.791 213.345 32.1915C213.783 32.5921 214.302 32.7924 214.903 32.7924C215.179 32.7924 215.442 32.7549 215.692 32.6798C215.955 32.5921 216.168 32.492 216.33 32.3793C216.493 32.2667 216.637 32.154 216.762 32.0413C216.887 31.9287 216.975 31.8348 217.025 31.7597L217.119 31.6282L218.377 32.9239C218.352 32.974 218.308 33.0428 218.246 33.1304C218.196 33.2181 218.058 33.3683 217.833 33.5811C217.62 33.7939 217.382 33.9817 217.119 34.1444C216.856 34.3072 216.493 34.4574 216.03 34.5951C215.579 34.7328 215.091 34.8017 214.565 34.8017C213.276 34.8017 212.231 34.4011 211.429 33.5999C210.628 32.7862 210.228 31.647 210.228 30.1823C210.228 28.7051 210.591 27.5597 211.317 26.746C212.055 25.9323 213.126 25.5254 214.528 25.5254C215.191 25.5254 215.773 25.6318 216.274 25.8447C216.775 26.045 217.157 26.3078 217.419 26.6333C217.695 26.9588 217.895 27.2843 218.02 27.6098C218.146 27.9353 218.208 28.2545 218.208 28.5674C218.208 29.4312 217.914 30.0321 217.326 30.3701C216.75 30.7081 215.892 30.8771 214.753 30.8771ZM212.744 29.0932C213.094 29.3185 213.639 29.4312 214.377 29.4312C215.416 29.4312 215.936 29.1808 215.936 28.6801C215.936 28.3797 215.798 28.1043 215.523 27.8539C215.26 27.591 214.884 27.4595 214.396 27.4595C213.908 27.4595 213.507 27.6098 213.194 27.9102C212.894 28.1981 212.744 28.5925 212.744 29.0932Z" fill="#00244D"/>
<path d="M206.013 34.689H203.496L200.022 25.6381H202.67L204.773 31.8535L206.914 25.6381H209.505L206.013 34.689Z" fill="#00244D"/>
<path d="M195.736 30.8771C195.373 30.8771 195.017 30.8583 194.666 30.8208C194.328 30.7707 194.078 30.7206 193.915 30.6705L193.671 30.5954V30.6142C193.671 31.2652 193.89 31.791 194.328 32.1915C194.766 32.5921 195.286 32.7924 195.887 32.7924C196.162 32.7924 196.425 32.7549 196.675 32.6798C196.938 32.5921 197.151 32.492 197.314 32.3793C197.476 32.2667 197.62 32.154 197.746 32.0413C197.871 31.9287 197.958 31.8348 198.008 31.7597L198.102 31.6282L199.36 32.9239C199.335 32.974 199.292 33.0428 199.229 33.1304C199.179 33.2181 199.041 33.3683 198.816 33.5811C198.603 33.7939 198.365 33.9817 198.102 34.1444C197.839 34.3072 197.476 34.4574 197.013 34.5951C196.563 34.7328 196.074 34.8017 195.549 34.8017C194.259 34.8017 193.214 34.4011 192.413 33.5999C191.612 32.7862 191.211 31.647 191.211 30.1823C191.211 28.7051 191.574 27.5597 192.3 26.746C193.039 25.9323 194.109 25.5254 195.511 25.5254C196.175 25.5254 196.757 25.6318 197.257 25.8447C197.758 26.045 198.14 26.3078 198.403 26.6333C198.678 26.9588 198.879 27.2843 199.004 27.6098C199.129 27.9353 199.191 28.2545 199.191 28.5674C199.191 29.4312 198.897 30.0321 198.309 30.3701C197.733 30.7081 196.876 30.8771 195.736 30.8771ZM193.727 29.0932C194.078 29.3185 194.622 29.4312 195.361 29.4312C196.4 29.4312 196.919 29.1808 196.919 28.6801C196.919 28.3797 196.782 28.1043 196.506 27.8539C196.243 27.591 195.868 27.4595 195.38 27.4595C194.891 27.4595 194.491 27.6098 194.178 27.9102C193.877 28.1981 193.727 28.5925 193.727 29.0932Z" fill="#00244D"/>
<path d="M183.739 34.689H179.326V21.5446H183.176C184.077 21.5446 184.903 21.6697 185.654 21.9201C186.418 22.1705 187.106 22.5586 187.72 23.0843C188.346 23.5976 188.834 24.3049 189.185 25.2062C189.535 26.1076 189.71 27.1529 189.71 28.3421C189.71 29.4688 189.548 30.4515 189.222 31.2902C188.909 32.129 188.471 32.7924 187.908 33.2807C187.344 33.7564 186.712 34.1131 186.011 34.351C185.323 34.5763 184.565 34.689 183.739 34.689ZM181.918 32.5859H183.72C184.759 32.5859 185.585 32.2166 186.199 31.478C186.825 30.7394 187.138 29.6816 187.138 28.3046C187.138 26.8149 186.806 25.6694 186.143 24.8682C185.492 24.0545 184.49 23.6477 183.138 23.6477H181.918V32.5859Z" fill="#00244D"/>
<path d="M251.571 11.8112V13.6514C251.308 13.7391 250.945 13.7829 250.482 13.7829C249.068 13.7829 248.36 12.988 248.36 11.3981V0.0563354H250.82V11.0038C250.82 11.5421 251.071 11.8112 251.571 11.8112Z" fill="#00244D"/>
<path d="M246.589 11.8112V13.6515C246.326 13.7391 245.969 13.7829 245.518 13.7829C244.442 13.7829 243.828 13.326 243.678 12.4121V12.2807C243.616 12.4184 243.534 12.5561 243.434 12.6938C243.334 12.819 243.177 12.9755 242.965 13.1632C242.752 13.351 242.47 13.5075 242.12 13.6327C241.769 13.7453 241.369 13.8017 240.918 13.8017C239.941 13.8017 239.096 13.4073 238.383 12.6187C237.669 11.83 237.312 10.6846 237.312 9.18234C237.312 7.60501 237.669 6.43453 238.383 5.6709C239.096 4.90727 239.991 4.52545 241.068 4.52545C241.268 4.52545 241.462 4.54423 241.65 4.58179C241.85 4.60682 242.032 4.65064 242.195 4.71323C242.357 4.7633 242.501 4.81964 242.627 4.88223C242.752 4.9323 242.877 5.00116 243.002 5.08878C243.127 5.17641 243.221 5.24527 243.284 5.29534C243.346 5.3329 243.422 5.39549 243.509 5.48312C243.609 5.55823 243.666 5.60204 243.678 5.61456V4.63812H245.838V11.0038C245.838 11.2792 245.894 11.4857 246.007 11.6235C246.119 11.7486 246.313 11.8112 246.589 11.8112ZM243.378 10.1212V8.2059C243.365 7.91797 243.209 7.59249 242.908 7.22945C242.608 6.8539 242.163 6.66612 241.575 6.66612C241.024 6.66612 240.58 6.87893 240.242 7.30456C239.904 7.73019 239.735 8.34986 239.735 9.16356C239.735 9.98979 239.916 10.6157 240.279 11.0413C240.642 11.4545 241.081 11.661 241.594 11.661C242.47 11.636 243.065 11.1227 243.378 10.1212Z" fill="#00244D"/>
<path d="M229.487 13.689H227.347V0.0563354H229.788V5.65211V5.63334C230.201 5.00741 230.883 4.64437 231.835 4.54422L232.248 4.52545C233.224 4.52545 234.075 4.91978 234.801 5.70845C235.528 6.48459 235.891 7.62378 235.891 9.126C235.891 10.7033 235.528 11.8801 234.801 12.6562C234.075 13.4199 233.168 13.8017 232.079 13.8017C231.828 13.8017 231.59 13.7766 231.365 13.7266C231.14 13.6765 230.946 13.6264 230.783 13.5763C230.633 13.5137 230.47 13.4261 230.295 13.3134C230.132 13.2008 230.013 13.1194 229.938 13.0693C229.875 13.0067 229.782 12.9254 229.656 12.8252L229.487 12.6562V13.689ZM229.788 8.24345V10.0273C229.788 10.3403 229.932 10.6908 230.22 11.0789C230.52 11.467 230.971 11.661 231.572 11.661C232.135 11.661 232.586 11.4482 232.924 11.0226C233.274 10.5969 233.449 9.97726 233.449 9.16356C233.449 8.32482 233.262 7.69889 232.886 7.28578C232.523 6.87267 232.079 6.66611 231.553 6.66611C231.115 6.66611 230.745 6.79756 230.445 7.06045C230.157 7.32334 229.976 7.58622 229.9 7.84911L229.788 8.24345Z" fill="#00244D"/>
<path d="M224.353 12.5436C223.615 13.3823 222.582 13.8017 221.255 13.8017C219.928 13.8017 218.895 13.3823 218.157 12.5436C217.418 11.6923 217.049 10.5594 217.049 9.14479C217.049 7.74271 217.418 6.6223 218.157 5.78356C218.908 4.94482 219.941 4.52545 221.255 4.52545C222.569 4.52545 223.602 4.94482 224.353 5.78356C225.104 6.6223 225.48 7.74271 225.48 9.14479C225.48 10.5594 225.104 11.6923 224.353 12.5436ZM219.471 9.16356C219.471 10.8285 220.066 11.661 221.255 11.661C222.444 11.661 223.039 10.8285 223.039 9.16356C223.039 7.4986 222.444 6.66612 221.255 6.66612C220.066 6.66612 219.471 7.4986 219.471 9.16356Z" fill="#00244D"/>
<path d="M215.648 11.8112V13.6514C215.385 13.7391 215.022 13.7829 214.558 13.7829C213.144 13.7829 212.437 12.988 212.437 11.3981V0.0563354H214.896V11.0038C214.896 11.5421 215.147 11.8112 215.648 11.8112Z" fill="#00244D"/>
<path d="M210.502 6.85388V9.05088C210.502 10.3528 210.082 11.4732 209.244 12.4121C208.405 13.3385 207.166 13.8017 205.526 13.8017C203.723 13.8017 202.296 13.2321 201.244 12.0929C200.193 10.9537 199.667 9.30126 199.667 7.13555C199.667 4.96985 200.18 3.31114 201.207 2.15944C202.246 1.00774 203.673 0.431885 205.488 0.431885C206.314 0.431885 207.04 0.569589 207.666 0.844996C208.305 1.1204 208.793 1.44588 209.131 1.82144C209.469 2.197 209.744 2.61637 209.957 3.07955C210.17 3.53022 210.301 3.89951 210.352 4.18744C210.414 4.47537 210.445 4.70696 210.445 4.88222L208.042 5.25777C208.042 5.18266 208.036 5.08877 208.023 4.97611C208.011 4.86344 207.954 4.66314 207.854 4.37522C207.766 4.07477 207.641 3.81188 207.479 3.58655C207.316 3.36122 207.065 3.16092 206.727 2.98566C206.389 2.79788 205.989 2.704 205.526 2.704C204.562 2.704 203.792 3.07955 203.216 3.83066C202.64 4.56925 202.352 5.67089 202.352 7.13555C202.352 8.60022 202.659 9.70185 203.272 10.4404C203.886 11.1665 204.656 11.5296 205.582 11.5296C206.446 11.5296 207.078 11.298 207.479 10.8348C207.879 10.3716 208.079 9.78322 208.079 9.06966V8.788H205.131V6.85388H210.502Z" fill="#00244D"/>
<path d="M191.204 13.689H189.552V5.97133H188.237V4.63811H189.552V3.30489C189.552 2.29089 189.815 1.4897 190.34 0.901333C190.866 0.300444 191.642 0 192.669 0C193.132 0 193.551 0.0688516 193.927 0.206555C194.315 0.344259 194.584 0.481963 194.734 0.619666L194.96 0.826222L194.359 2.04678C194.321 1.9967 194.265 1.93411 194.19 1.859C194.127 1.78389 193.965 1.69 193.702 1.57733C193.439 1.45215 193.145 1.38956 192.819 1.38956C192.306 1.38956 191.905 1.56481 191.617 1.91533C191.342 2.26585 191.204 2.75407 191.204 3.38V4.63811H194.415V5.97133H191.204V13.689Z" fill="#00244D"/>
<path d="M185.786 12.5623C185.06 13.3886 184.077 13.8017 182.838 13.8017C181.598 13.8017 180.616 13.3948 179.89 12.5811C179.176 11.7549 178.819 10.6157 178.819 9.16356C178.819 7.71142 179.176 6.57849 179.89 5.76479C180.616 4.93856 181.598 4.52545 182.838 4.52545C184.077 4.52545 185.06 4.93856 185.786 5.76479C186.512 6.59101 186.875 7.72393 186.875 9.16356C186.875 10.6032 186.512 11.7361 185.786 12.5623ZM181.091 11.5859C181.517 12.1367 182.099 12.4121 182.838 12.4121C183.576 12.4121 184.158 12.1367 184.584 11.5859C185.01 11.0226 185.223 10.2151 185.223 9.16356C185.223 8.11201 185.01 7.31082 184.584 6.76001C184.158 6.19667 183.576 5.91501 182.838 5.91501C182.112 5.91501 181.53 6.19667 181.091 6.76001C180.666 7.31082 180.453 8.11201 180.453 9.16356C180.453 10.2151 180.666 11.0226 181.091 11.5859Z" fill="#00244D"/>
<path d="M391.85 34.7596C387.884 34.7596 384.882 33.5134 382.843 31.021C380.804 28.5003 379.784 24.8467 379.784 20.0602C379.784 15.0188 380.804 11.167 382.843 8.50466C384.911 5.84235 387.969 4.5112 392.019 4.5112C396.155 4.5112 399.228 5.899 401.238 8.6746L396.863 12.3282C395.843 10.6572 394.229 9.82166 392.019 9.82166C388.026 9.82166 385.845 12.5831 385.477 18.106C387.913 16.3217 390.235 15.4295 392.444 15.4295C395.418 15.4295 397.868 16.3075 399.794 18.0635C401.748 19.7912 402.725 22.0711 402.725 24.9034C402.725 27.8206 401.791 30.1997 399.921 32.0406C398.08 33.8532 395.39 34.7596 391.85 34.7596ZM385.647 23.204C385.902 25.1583 386.582 26.7302 387.686 27.9197C388.819 29.0809 390.193 29.6615 391.807 29.6615C393.421 29.6615 394.696 29.2367 395.631 28.387C396.594 27.5373 397.075 26.3761 397.075 24.9034C397.075 23.5156 396.622 22.4393 395.716 21.6746C394.809 20.9099 393.492 20.5275 391.765 20.5275C391.17 20.5275 390.575 20.5983 389.98 20.74C389.414 20.8816 388.89 21.0798 388.408 21.3347C387.927 21.5896 387.53 21.8162 387.219 22.0145C386.907 22.2127 386.567 22.4535 386.199 22.7367C385.859 23.0199 385.675 23.1757 385.647 23.204Z" fill="#2497FC"/>
<path d="M375.502 34.5047H354.558V31.6583C354.558 30.2705 354.827 29.0101 355.365 27.8772C355.931 26.7443 356.653 25.7955 357.531 25.0308C358.438 24.2661 359.429 23.558 360.505 22.9066C361.582 22.2552 362.658 21.6463 363.734 21.0798C364.81 20.4851 365.787 19.8903 366.665 19.2955C367.572 18.7007 368.294 18.0068 368.832 17.2138C369.399 16.3925 369.682 15.5003 369.682 14.5373C369.682 13.0363 369.285 11.8467 368.492 10.9687C367.728 10.0624 366.623 9.60924 365.179 9.60924C363.508 9.60924 362.261 10.1615 361.44 11.2661C360.619 12.3707 360.208 13.4894 360.208 14.6223L354.6 13.2628C354.6 12.4415 354.784 11.5635 355.152 10.6288C355.521 9.69421 356.073 8.75957 356.809 7.82493C357.574 6.86196 358.664 6.06893 360.08 5.44584C361.525 4.82275 363.168 4.5112 365.009 4.5112C368.209 4.5112 370.758 5.43168 372.656 7.27264C374.582 9.08527 375.545 11.5068 375.545 14.5373C375.545 15.9818 375.205 17.3271 374.525 18.5733C373.874 19.8195 373.038 20.8674 372.018 21.7171C371.027 22.5384 369.951 23.3315 368.79 24.0962C367.628 24.8609 366.538 25.5123 365.518 26.0504C364.527 26.5885 363.692 27.155 363.012 27.7498C362.332 28.3162 361.992 28.8685 361.992 29.4066V29.7465H375.502V34.5047Z" fill="#2497FC"/>
<path d="M338.528 34.7596C334.676 34.7596 331.773 33.4142 329.819 30.7236C327.865 28.033 326.888 24.3511 326.888 19.6779C326.888 15.0047 327.865 11.3086 329.819 8.58963C331.802 5.87068 334.705 4.5112 338.528 4.5112C342.465 4.5112 345.439 5.87068 347.45 8.58963C349.489 11.3086 350.509 15.0047 350.509 19.6779C350.509 24.3511 349.503 28.033 347.492 30.7236C345.481 33.4142 342.493 34.7596 338.528 34.7596ZM338.528 29.789C342.663 29.789 344.731 26.4186 344.731 19.6779C344.731 12.8805 342.663 9.48179 338.528 9.48179C334.535 9.48179 332.538 12.8805 332.538 19.6779C332.538 26.4186 334.535 29.789 338.528 29.789Z" fill="#2497FC"/>
<path d="M322.606 34.5047H301.661V31.6583C301.661 30.2705 301.93 29.0101 302.468 27.8772C303.035 26.7443 303.757 25.7955 304.635 25.0308C305.541 24.2661 306.533 23.558 307.609 22.9066C308.685 22.2552 309.761 21.6463 310.838 21.0798C311.914 20.4851 312.891 19.8903 313.769 19.2955C314.675 18.7007 315.398 18.0068 315.936 17.2138C316.502 16.3925 316.785 15.5003 316.785 14.5373C316.785 13.0363 316.389 11.8467 315.596 10.9687C314.831 10.0624 313.726 9.60924 312.282 9.60924C310.611 9.60924 309.365 10.1615 308.543 11.2661C307.722 12.3707 307.311 13.4894 307.311 14.6223L301.704 13.2628C301.704 12.4415 301.888 11.5635 302.256 10.6288C302.624 9.69421 303.176 8.75957 303.913 7.82493C304.677 6.86196 305.768 6.06893 307.184 5.44584C308.628 4.82275 310.271 4.5112 312.112 4.5112C315.313 4.5112 317.862 5.43168 319.759 7.27264C321.685 9.08527 322.648 11.5068 322.648 14.5373C322.648 15.9818 322.308 17.3271 321.628 18.5733C320.977 19.8195 320.142 20.8674 319.122 21.7171C318.131 22.5384 317.054 23.3315 315.893 24.0962C314.732 24.8609 313.642 25.5123 312.622 26.0504C311.631 26.5885 310.795 27.155 310.115 27.7498C309.436 28.3162 309.096 28.8685 309.096 29.4066V29.7465H322.606V34.5047Z" fill="#2497FC"/>
<rect y="46.493" width="9.02778" height="9.51671" fill="#F7B841"/>
<rect x="15.3721" y="46.493" width="9.02778" height="9.51671" fill="#9F56A5"/>
<rect x="30.7441" y="46.493" width="9.02778" height="9.51671" fill="#009CA7"/>
<rect x="46.1172" y="46.493" width="9.02778" height="9.51671" fill="#A75959"/>
<rect x="61.4893" y="46.493" width="9.02778" height="9.51671" fill="#8C939D"/>
<rect x="76.8613" y="46.493" width="9.02778" height="9.51671" fill="#F7B841"/>
<rect x="92.2334" y="46.493" width="9.02778" height="9.51671" fill="#9F56A5"/>
<rect x="107.605" y="46.493" width="9.02778" height="9.51671" fill="#009CA7"/>
<rect x="122.978" y="46.493" width="9.02778" height="9.51671" fill="#A75959"/>
<rect x="138.351" y="46.493" width="9.02778" height="9.51671" fill="#8C939D"/>
<rect x="153.723" y="46.493" width="9.02778" height="9.51671" fill="#F7B841"/>
<rect x="169.095" y="46.493" width="9.02778" height="9.51671" fill="#9F56A5"/>
<rect x="184.467" y="46.493" width="9.02778" height="9.51671" fill="#009CA7"/>
<rect x="199.839" y="46.493" width="9.02778" height="9.51671" fill="#A75959"/>
<rect x="215.212" y="46.493" width="9.02778" height="9.51671" fill="#8C939D"/>
<rect x="230.584" y="46.493" width="9.02778" height="9.51671" fill="#F7B841"/>
<rect x="245.956" y="46.493" width="9.02778" height="9.51671" fill="#9F56A5"/>
<rect x="261.328" y="46.493" width="9.02778" height="9.51671" fill="#009CA7"/>
<rect x="276.7" y="46.493" width="9.02778" height="9.51671" fill="#A75959"/>
<rect x="292.073" y="46.493" width="9.02778" height="9.51671" fill="#8C939D"/>
<rect x="307.445" y="46.493" width="9.02778" height="9.51671" fill="#F7B841"/>
<rect x="322.817" y="46.493" width="9.02778" height="9.51671" fill="#9F56A5"/>
<rect x="338.189" y="46.493" width="9.02778" height="9.51671" fill="#009CA7"/>
<rect x="353.562" y="46.493" width="9.02778" height="9.51671" fill="#A75959"/>
<rect x="368.934" y="46.493" width="9.02778" height="9.51671" fill="#8C939D"/>
<rect x="384.307" y="46.493" width="9.02778" height="9.51671" fill="#F7B841"/>
<rect x="399.679" y="46.493" width="9.02778" height="9.51671" fill="#9F56A5"/>
</svg>
