<svg width="218" height="48" viewBox="0 0 218 48" fill="none" xmlns="http://www.w3.org/2000/svg">
<mask id="mask0_179_4517" style="mask-type:luminance" maskUnits="userSpaceOnUse" x="0" y="0" width="218" height="47">
<path d="M217.766 0H0V47H217.766V0Z" fill="white"/>
</mask>
<g mask="url(#mask0_179_4517)">
<path d="M210.087 18.5853C213.118 18.5853 214.808 20.0605 214.808 22.7297C214.808 25.2585 213.118 26.7337 210.37 26.7337H208.397V30.6672H205.86V18.5853M208.467 24.6966H210.017C211.497 24.6966 212.271 24.0644 212.271 22.7297C212.271 21.3951 211.426 20.6927 209.947 20.6927H208.467V24.6966ZM201.141 25.8204C201.141 27.5766 200.435 28.4195 199.026 28.4195C197.617 28.4195 196.912 27.5062 196.912 25.8204V18.5853H194.305V25.6097C194.305 27.3657 194.728 28.6302 195.575 29.4731C196.35 30.2457 197.547 30.6672 199.026 30.6672C201.141 30.6672 203.676 29.754 203.676 25.5395V18.5151H201.141V25.8204ZM187.33 18.5151C189.937 18.5151 192.757 20.1308 192.757 24.6263C192.757 29.1219 189.937 30.7374 187.33 30.7374C184.724 30.7374 181.906 29.1219 181.906 24.6263C181.906 20.1308 184.724 18.5151 187.33 18.5151ZM187.33 28.4897C188.317 28.4897 190.078 27.998 190.078 24.6263C190.078 21.2546 188.388 20.7629 187.33 20.7629C185.569 20.7629 184.584 22.1678 184.584 24.6263C184.584 27.155 185.569 28.4897 187.33 28.4897ZM179.299 27.0145C179.721 27.8574 180.074 28.6302 180.919 28.6302H181.553V30.5969H181.483C181.483 30.5969 180.989 30.7374 180.216 30.7374C178.171 30.7374 177.537 29.3326 177.045 28.1385C176.622 27.155 176.198 26.2419 175.142 26.2419H174.014V30.6672H171.407V18.5853H175.706C178.807 18.5853 180.285 19.7794 180.285 22.3785C180.285 23.994 179.299 24.9775 178.313 25.399C178.735 25.8907 179.018 26.4526 179.299 27.0145ZM173.944 24.2751H175.353C176.762 24.2751 177.679 23.6428 177.679 22.5191C177.679 21.3951 176.904 20.7629 175.564 20.7629H173.944V24.2751ZM164.504 26.2419H167.18V26.3824C167.18 27.155 166.899 28.4897 165.068 28.4897C163.306 28.4897 162.249 27.0849 162.249 24.6966C162.249 22.238 163.235 20.8332 164.996 20.8332C167.039 20.8332 167.111 22.9404 167.111 23.0108V23.1511L169.506 22.7999V22.7297C169.506 21.8868 168.731 18.5853 164.926 18.5853C161.544 18.5853 159.572 20.8332 159.572 24.6966C159.572 28.4897 161.615 30.8077 164.996 30.8077C168.378 30.8077 169.576 28.4195 169.576 26.4526V24.3452H164.504V26.2419ZM156.824 18.5853H153.794L149.778 23.994V18.5853H147.172V30.6672H149.778V25.118L153.865 30.6672H156.965L152.315 24.6263L156.824 18.5853ZM142.31 26.0311L138.083 18.5853H135.476V30.6672H138.083V23.5023L142.31 30.6672H144.917V18.5853H142.381V26.0311H142.31ZM130.333 18.7258L134.772 30.6672H132.094L131.037 27.7169H127.022L126.035 30.6672H123.358L127.797 18.6556H130.333V18.7258ZM129.065 21.8868L127.797 25.6799H130.403L129.065 21.8868ZM120.963 24.2751C121.878 24.5561 123.076 25.399 123.076 27.2252C123.076 29.4028 121.526 30.6672 118.849 30.6672H113.776V18.5853H118.356C120.963 18.5853 122.301 19.7093 122.301 21.8165C122.301 23.5023 121.526 24.1346 120.963 24.2751ZM118.074 23.5023C119.131 23.5023 119.624 23.0809 119.624 22.0975C119.624 21.1844 118.99 20.6927 117.722 20.6927H116.312V23.5023H118.074ZM116.312 28.5598H118.356C119.694 28.5598 120.258 28.0681 120.258 27.0145C120.258 25.7502 119.201 25.4692 118.285 25.4692H116.312V28.5598ZM103.137 18.5853C106.872 18.5853 109.126 20.9034 109.126 24.837C109.126 28.5598 107.153 30.6672 103.631 30.6672H99.5442V18.5853H103.137ZM102.151 28.5598H103.631C105.462 28.5598 106.59 27.155 106.59 24.837C106.59 22.1678 105.392 20.7629 103.137 20.7629H102.151V28.5598ZM93.1328 18.5853H90.526V30.6672H98.3465V28.5598H93.1328V18.5853ZM87.0737 27.0145C87.4964 27.8574 87.8487 28.6302 88.6941 28.6302H89.3283V30.5969H89.2579C89.2579 30.5969 88.7647 30.7374 87.9896 30.7374C85.9465 30.7374 85.3124 29.3326 84.8192 28.1385C84.3965 27.155 83.9738 26.2419 82.917 26.2419H81.7896V30.6672H79.1828V18.5853H83.4806C86.5805 18.5853 88.0602 19.7794 88.0602 22.3785C88.0602 23.994 87.0737 24.9775 86.0874 25.399C86.5805 25.8907 86.8625 26.4526 87.0737 27.0145ZM81.7896 24.2751H83.1988C84.6078 24.2751 85.5237 23.6428 85.5237 22.5191C85.5237 21.3951 84.7488 20.7629 83.4101 20.7629H81.7896V24.2751ZM72.3487 18.5151C74.9555 18.5151 77.7738 20.1308 77.7738 24.6263C77.7738 29.1219 74.9555 30.7374 72.3487 30.7374C69.7418 30.7374 66.9237 29.1219 66.9237 24.6263C66.9237 20.1308 69.7418 18.5151 72.3487 18.5151ZM72.3487 28.4897C73.4055 28.4897 75.0964 27.998 75.0964 24.6263C75.0964 21.2546 73.4055 20.7629 72.3487 20.7629C70.5874 20.7629 69.6009 22.1678 69.6009 24.6263C69.6009 27.155 70.5874 28.4897 72.3487 28.4897ZM63.6827 18.5853H66.5714L63.1191 30.6672H60.2305L58.1168 23.1511L55.9329 30.6672H53.0442L49.5918 18.5853H52.551L54.5941 27.3657L57.06 18.5853H59.2442L61.5691 27.3657L63.6827 18.5853Z" fill="#00244D"/>
<path d="M28.5023 36.5652C31.25 36.5652 33.7864 36.1438 36.0409 35.371C36.6045 35.1604 37.1681 34.9497 37.6613 34.7388C37.0272 36.2841 36.1113 37.5486 34.9135 38.532C32.5181 40.2881 29.7 41.4822 26.5999 41.9739C27.4455 40.6393 28.0794 38.8129 28.5023 36.5652ZM15.7499 40.3584C15.6795 40.2881 15.609 40.2881 15.5386 40.2179C14.4817 39.7262 14.059 37.3379 14.6227 33.6852C16.6659 34.5985 18.9204 35.3009 21.2453 35.8628C23.0068 36.214 24.7681 36.495 26.5296 36.5652C25.684 40.2179 24.5568 42.1846 23.8522 42.1846C23.7818 42.1846 23.7818 42.1846 23.7113 42.1846C20.8931 42.1846 18.1454 41.4822 15.7499 40.3584ZM5.81581 28.6277C5.67491 27.9955 5.60444 27.3634 5.53399 26.7312C6.16808 27.6443 6.94309 28.5575 7.859 29.4004C9.2681 30.6647 10.959 31.8589 12.7908 32.8423C12.4386 34.9497 12.2976 36.8462 12.5795 38.3915C9.409 36.0033 7.01354 32.5613 5.81581 28.6277ZM29.7 23.5C29.7 22.7272 29.7 22.0248 29.7 21.2523C32.0954 21.1117 34.2796 20.4795 36.1113 19.4259C37.8022 22.7272 38.7181 26.2394 38.6477 29.5409C38.6477 30.5242 38.5772 31.4375 38.4363 32.2804C37.5909 32.8423 36.6045 33.2638 35.4773 33.615C33.5046 34.2471 31.25 34.6686 28.8544 34.7388C29.4182 31.297 29.7 27.293 29.7 23.5ZM21.6682 33.9662C19.2727 33.4745 17.0181 32.7018 14.9749 31.7183C15.609 28.698 16.8772 25.1155 18.8499 21.0414C19.1317 20.4795 19.4136 19.9176 19.6954 19.2854C21.1044 19.9176 22.5841 20.4093 24.134 20.7605C25.3318 21.0414 26.5296 21.1819 27.7273 21.1819C27.7273 21.8843 27.7273 22.6571 27.7273 23.4296C27.7273 27.9253 27.3749 31.7183 26.8113 34.5985C25.1908 34.5985 23.4295 34.3876 21.6682 33.9662ZM9.19763 27.9955C7.57718 26.5205 6.44991 24.9048 5.88627 23.2893C6.309 21.5331 7.2249 19.7068 8.49309 18.0209C9.69082 16.4054 11.2408 14.9303 13.0022 13.6659C13.4954 14.5791 14.1999 15.4922 15.1158 16.2649C15.9613 17.0376 16.9477 17.8102 18.0749 18.4425C17.7931 19.0044 17.4409 19.6366 17.1589 20.1985C15.4681 23.7107 14.059 27.4336 13.2136 30.8052C11.734 30.0325 10.3954 29.0492 9.19763 27.9955ZM28.4318 10.1537C30.6159 11.7693 32.5887 13.8766 34.2796 16.3351C34.5614 16.8268 34.9135 17.2483 35.1953 17.7401C33.6455 18.6532 31.7431 19.1449 29.6295 19.2854C29.4182 15.9839 29.0659 12.823 28.4318 10.1537ZM24.6272 18.9342C23.218 18.6532 21.95 18.2318 20.6817 17.6697C22.4432 14.5791 24.4159 11.8396 26.3887 9.80252C27.0226 12.1908 27.5158 15.3517 27.7273 19.2854C26.6705 19.2854 25.6136 19.1449 24.6272 18.9342ZM16.3841 14.9303C15.609 14.1576 14.9749 13.3849 14.5522 12.6123C16.3841 11.5586 18.3568 10.6454 20.4705 10.0133C21.7385 9.66203 23.0068 9.38105 24.275 9.17033C22.4432 11.2074 20.6114 13.8064 18.9204 16.7566C18.0045 16.2649 17.1589 15.6327 16.3841 14.9303ZM12.2976 8.81911C12.2976 8.88935 12.2272 9.02985 12.2272 9.10009C12.0158 10.0133 12.0863 10.9264 12.2976 11.8396C10.2545 13.2444 8.42263 14.9303 7.01354 16.8268C6.59081 17.3889 6.16808 18.0209 5.81581 18.583C6.87264 14.7195 9.12718 11.2776 12.2976 8.81911ZM14.059 9.52155C14.2704 8.53815 14.9045 7.62499 15.8204 6.92255C18.0749 6.29035 20.6817 6.43085 23.4295 7.41425C22.3023 7.62497 21.1044 7.90595 19.9772 8.25717C17.8636 8.88935 15.8908 9.73227 14.059 10.7859C13.9886 10.3645 13.9886 9.94301 14.059 9.52155ZM29.6295 6.99279C30.2636 6.57133 30.8977 6.29035 31.3909 6.14987C32.3772 6.50109 33.2931 6.99279 34.2091 7.62497C32.7999 7.34401 31.25 7.13327 29.6295 6.99279ZM26.459 4.95573C27.234 5.02599 28.0794 5.16647 28.925 5.37719C28.3614 5.65817 27.8682 6.00939 27.3046 6.43085C26.9522 5.86891 26.7408 5.37719 26.459 4.95573ZM24.3454 5.72841C23.5 5.37719 22.5841 5.16647 21.7385 4.95573C22.4432 4.88549 23.0771 4.81525 23.7818 4.81525C24.134 4.81525 24.4863 5.23671 24.909 5.93915C24.7681 5.86891 24.5568 5.79865 24.3454 5.72841ZM3.20898 23.5C3.20898 25.4667 3.49081 27.3634 3.98399 29.1194C3.98399 29.2599 4.05445 29.3301 4.05445 29.4706V29.5409C6.66128 37.97 14.5522 44.0813 23.7818 44.0813C28.0794 44.0813 32.0249 42.7466 35.3364 40.4987C35.3364 40.4987 35.4068 40.4987 35.4068 40.4286C35.6182 40.2881 35.7591 40.1475 35.9704 40.0072C39.7749 37.1974 42.5932 33.1233 43.7909 28.417C43.8613 28.2063 43.9318 27.9955 43.9318 27.7848C43.9318 27.7146 43.9318 27.7146 43.9318 27.6443C44.2136 26.3096 44.3545 24.9048 44.3545 23.4296C44.3545 20.62 43.7909 17.9507 42.7341 15.422C42.5227 14.9303 41.9591 14.7196 41.4659 14.9303C40.9726 15.141 40.7614 15.703 40.9726 16.1947C41.9591 18.5126 42.4523 20.9712 42.4523 23.4296C42.4523 24.9751 42.2409 26.4501 41.8886 27.9253C41.6068 28.8384 41.1135 29.6813 40.4091 30.454C40.4091 30.1028 40.4091 29.8218 40.4091 29.4706C40.4091 25.8181 39.4228 21.8843 37.5204 18.3019C38.9295 17.1078 39.7749 15.6327 40.0567 14.0171C40.1273 13.5254 39.7749 13.0337 39.2819 12.8932C38.7886 12.823 38.2249 13.1742 38.1545 13.6659C37.9431 14.7195 37.3795 15.7732 36.5341 16.6161C36.2523 16.1947 35.9704 15.703 35.6886 15.2815C33.9976 12.823 32.0249 10.7157 29.8409 8.95959C32.7295 9.17033 35.4068 9.87277 37.5909 11.0669C37.9431 11.2776 38.366 11.2776 38.7181 10.9967C39.1408 10.6454 39.2113 10.0835 38.859 9.66203C35.7591 5.37719 30.4045 2.98892 23.7818 2.98892C12.4386 2.91868 3.20898 12.1206 3.20898 23.5Z" fill="#00244D"/>
</g>
</svg>
