<svg xmlns="http://www.w3.org/2000/svg" viewBox="0 0 1024 1024" width="1024" height="1024" stroke="currentColor" stroke-width="16" stroke-linecap="round" stroke-linejoin="round" fill="none">
  <title>Legal Social and Cultural Professionals</title>
  <line x1="512" y1="200" x2="512" y2="760"/>
  <line x1="260" y1="340" x2="764" y2="340"/>
  <circle cx="512" cy="220" r="28"/>
  <line x1="260" y1="340" x2="210" y2="480"/>
  <line x1="260" y1="340" x2="310" y2="480"/>
  <path d="M 210 480 Q 200 540 260 540 Q 320 540 310 480"/>
  <line x1="764" y1="340" x2="714" y2="480"/>
  <line x1="764" y1="340" x2="814" y2="480"/>
  <path d="M 714 480 Q 704 540 764 540 Q 824 540 814 480"/>
  <line x1="380" y1="760" x2="644" y2="760"/>
  <path d="M 380 760 L 360 800 L 664 800 L 644 760"/>
</svg>
