<svg xmlns="http://www.w3.org/2000/svg" viewBox="0 0 1024 1024" width="1024" height="1024" stroke="currentColor" stroke-width="16" stroke-linecap="round" stroke-linejoin="round" fill="none">
  <title>Numerical and Material Recording Clerks</title>
  <rect x="280" y="160" width="300" height="520" rx="20"/>
  <rect x="312" y="200" width="236" height="100" rx="8"/>
  <line x1="388" y1="235" x2="516" y2="235" stroke-width="8"/>
  <line x1="388" y1="270" x2="516" y2="270" stroke-width="8"/>
  <circle cx="346" cy="370" r="20"/>
  <circle cx="430" cy="370" r="20"/>
  <circle cx="514" cy="370" r="20"/>
  <circle cx="346" cy="450" r="20"/>
  <circle cx="430" cy="450" r="20"/>
  <circle cx="514" cy="450" r="20"/>
  <circle cx="346" cy="530" r="20"/>
  <circle cx="430" cy="530" r="20"/>
  <circle cx="514" cy="530" r="20"/>
  <circle cx="346" cy="610" r="20"/>
  <circle cx="430" cy="610" r="20"/>
  <rect x="474" y="590" width="80" height="40" rx="10"/>
  <rect x="624" y="320" width="220" height="300" rx="12"/>
  <line x1="684" y1="320" x2="684" y2="620"/>
  <line x1="624" y1="400" x2="844" y2="400"/>
  <line x1="624" y1="480" x2="844" y2="480"/>
  <line x1="624" y1="560" x2="844" y2="560"/>
</svg>
