<svg width="32" height="32" viewBox="0 0 32 32" fill="none" xmlns="http://www.w3.org/2000/svg">
<circle cx="16" cy="16" r="16" fill="white" fill-opacity="0.7"/>
<circle opacity="0.3" cx="16" cy="16" r="16" fill="#0065B1"/>
<circle opacity="0.35" cx="15.75" cy="16" r="12" fill="#0065B1"/>
<circle opacity="0.6" cx="15.75" cy="16" r="8" fill="#0065B1"/>
<path d="M22.6503 23.1769C22.0226 23.1769 21.4838 23.018 21.034 22.7004C20.5867 22.3801 20.2423 21.9189 20.0009 21.3166C19.762 20.7117 19.6426 19.9836 19.6426 19.1322C19.6451 18.2809 19.7658 17.5565 20.0047 16.9593C20.2462 16.3595 20.5905 15.9021 21.0378 15.587C21.4876 15.2718 22.0251 15.1143 22.6503 15.1143C23.2755 15.1143 23.813 15.2718 24.2629 15.587C24.7127 15.9021 25.057 16.3595 25.2959 16.9593C25.5374 17.5591 25.6581 18.2834 25.6581 19.1322C25.6581 19.9861 25.5374 20.7155 25.2959 21.3204C25.057 21.9227 24.7127 22.3827 24.2629 22.7004C23.8156 23.018 23.2781 23.1769 22.6503 23.1769ZM22.6503 21.9837C23.1383 21.9837 23.5233 21.7435 23.8054 21.2632C24.09 20.7803 24.2324 20.07 24.2324 19.1322C24.2324 18.5121 24.1676 17.9911 24.0379 17.5693C23.9083 17.1474 23.7253 16.8297 23.489 16.6162C23.2526 16.4002 22.9731 16.2922 22.6503 16.2922C22.1649 16.2922 21.7812 16.5336 21.4991 17.0165C21.217 17.4968 21.0747 18.2021 21.0721 19.1322C21.0696 19.7549 21.1318 20.2784 21.2589 20.7028C21.3885 21.1272 21.5715 21.4474 21.8079 21.6635C22.0442 21.8769 22.325 21.9837 22.6503 21.9837Z" fill="white"/>
<path d="M15.6628 23.1349C15.2892 23.1324 14.9245 23.0676 14.5687 22.9405C14.2129 22.8109 13.8927 22.6012 13.608 22.3115C13.3234 22.0193 13.0972 21.6317 12.9295 21.1488C12.7618 20.6634 12.6792 20.0624 12.6817 19.3457C12.6817 18.6773 12.7529 18.0814 12.8952 17.5578C13.0375 17.0343 13.2421 16.5921 13.5089 16.2312C13.7758 15.8678 14.0973 15.5908 14.4734 15.4002C14.8521 15.2096 15.2752 15.1143 15.7428 15.1143C16.2333 15.1143 16.6679 15.2108 17.0466 15.404C17.4278 15.5971 17.7353 15.8614 17.9691 16.1969C18.2029 16.5298 18.3478 16.9059 18.4037 17.3253H17.0123C16.9411 17.0254 16.795 16.7865 16.5739 16.6086C16.3553 16.4282 16.0783 16.3379 15.7428 16.3379C15.2015 16.3379 14.7847 16.573 14.4924 17.0432C14.2027 17.5133 14.0566 18.1589 14.0541 18.9797H14.1074C14.232 18.7561 14.3933 18.5642 14.5916 18.4041C14.7898 18.244 15.0134 18.1207 15.2625 18.0343C15.5141 17.9454 15.7797 17.9009 16.0592 17.9009C16.5167 17.9009 16.9271 18.0102 17.2905 18.2288C17.6565 18.4473 17.9462 18.7485 18.1597 19.1322C18.3732 19.5134 18.4786 19.9506 18.4761 20.4436C18.4786 20.957 18.3617 21.4182 18.1254 21.8274C17.889 22.234 17.5599 22.5542 17.1381 22.788C16.7162 23.0218 16.2244 23.1375 15.6628 23.1349ZM15.6551 21.9913C15.9322 21.9913 16.1799 21.924 16.3985 21.7893C16.6171 21.6546 16.7899 21.4729 16.917 21.2441C17.044 21.0154 17.1063 20.7587 17.1037 20.4741C17.1063 20.1945 17.0453 19.9417 16.9208 19.7155C16.7988 19.4893 16.6298 19.3101 16.4138 19.178C16.1977 19.0458 15.9512 18.9797 15.6742 18.9797C15.4683 18.9797 15.2765 19.0191 15.0986 19.0979C14.9207 19.1767 14.7657 19.286 14.6335 19.4258C14.5013 19.563 14.3971 19.7231 14.3209 19.9061C14.2472 20.0865 14.2091 20.2797 14.2065 20.4855C14.2091 20.7575 14.2726 21.0078 14.3971 21.2365C14.5217 21.4652 14.6932 21.6482 14.9118 21.7855C15.1303 21.9227 15.3781 21.9913 15.6551 21.9913Z" fill="white"/>
<path d="M8.61289 23.1349C8.06395 23.1349 7.576 23.0409 7.14904 22.8528C6.72463 22.6648 6.38916 22.403 6.14265 22.0675C5.89613 21.7321 5.76525 21.3445 5.75 20.9049H7.18335C7.19606 21.1158 7.26595 21.3 7.39302 21.4576C7.52009 21.6126 7.68909 21.7334 7.90003 21.8198C8.11097 21.9062 8.34732 21.9494 8.60908 21.9494C8.88864 21.9494 9.13642 21.9011 9.35244 21.8045C9.56846 21.7054 9.73747 21.5682 9.85945 21.3928C9.98144 21.2174 10.0412 21.0154 10.0386 20.7867C10.0412 20.5503 9.98017 20.3419 9.85564 20.1615C9.73111 19.9811 9.55067 19.84 9.31432 19.7383C9.08051 19.6367 8.79842 19.5859 8.46803 19.5859H7.77804V18.4956H8.46803C8.73997 18.4956 8.97759 18.4486 9.1809 18.3546C9.38675 18.2605 9.54813 18.1284 9.66504 17.9581C9.78194 17.7853 9.83912 17.5858 9.83658 17.3596C9.83912 17.1385 9.78957 16.9466 9.68791 16.784C9.58879 16.6188 9.44775 16.4904 9.26477 16.3989C9.08433 16.3074 8.87212 16.2617 8.62814 16.2617C8.38925 16.2617 8.16815 16.3049 7.96484 16.3913C7.76152 16.4777 7.5976 16.601 7.47307 16.7611C7.34854 16.9187 7.28247 17.1067 7.27484 17.3253H5.91392C5.92409 16.8882 6.04989 16.5044 6.29132 16.174C6.53529 15.8411 6.86059 15.5819 7.26722 15.3964C7.67384 15.2083 8.13003 15.1143 8.63577 15.1143C9.15676 15.1143 9.60913 15.2121 9.99288 15.4078C10.3792 15.6009 10.6778 15.8614 10.8887 16.1893C11.0997 16.5171 11.2051 16.8793 11.2051 17.2757C11.2077 17.7154 11.0781 18.0839 10.8163 18.3812C10.5571 18.6786 10.2165 18.873 9.79465 18.9645V19.0255C10.3436 19.1017 10.7642 19.305 11.0565 19.6354C11.3513 19.9633 11.4974 20.3712 11.4948 20.8591C11.4948 21.2962 11.3703 21.6876 11.1213 22.0332C10.8747 22.3763 10.5342 22.6457 10.0996 22.8414C9.66758 23.0371 9.172 23.1349 8.61289 23.1349Z" fill="white"/>
<path d="M11.8428 10.8174C11.8428 11.2998 11.75 11.7031 11.5645 12.0273C11.3809 12.3496 11.1143 12.5928 10.7646 12.7568C10.415 12.9189 9.99414 13 9.50195 13H8.28906V8.7168H9.63379C10.083 8.7168 10.4727 8.79688 10.8027 8.95703C11.1328 9.11523 11.3887 9.35059 11.5703 9.66309C11.752 9.97363 11.8428 10.3584 11.8428 10.8174ZM10.8994 10.8408C10.8994 10.5244 10.8525 10.2646 10.7588 10.0615C10.667 9.85645 10.5303 9.70508 10.3486 9.60742C10.1689 9.50977 9.94629 9.46094 9.68066 9.46094H9.19727V12.25H9.58691C10.0303 12.25 10.3594 12.1318 10.5742 11.8955C10.791 11.6592 10.8994 11.3076 10.8994 10.8408Z" fill="white"/>
<path d="M15.3525 13L15.042 11.9805H13.4805L13.1699 13H12.1914L13.7031 8.69922H14.8135L16.3311 13H15.3525ZM14.8252 11.2188L14.5146 10.2227C14.4951 10.1562 14.4688 10.0713 14.4355 9.96777C14.4043 9.8623 14.3721 9.75586 14.3389 9.64844C14.3076 9.53906 14.2822 9.44434 14.2627 9.36426C14.2432 9.44434 14.2158 9.54395 14.1807 9.66309C14.1475 9.78027 14.1152 9.8916 14.084 9.99707C14.0527 10.1025 14.0303 10.1777 14.0166 10.2227L13.709 11.2188H14.8252Z" fill="white"/>
<path d="M18.5254 13H17.6172V9.47266H16.4541V8.7168H19.6885V9.47266H18.5254V13Z" fill="white"/>
<path d="M22.9697 13L22.6592 11.9805H21.0977L20.7871 13H19.8086L21.3203 8.69922H22.4307L23.9482 13H22.9697ZM22.4424 11.2188L22.1318 10.2227C22.1123 10.1562 22.0859 10.0713 22.0527 9.96777C22.0215 9.8623 21.9893 9.75586 21.9561 9.64844C21.9248 9.53906 21.8994 9.44434 21.8799 9.36426C21.8604 9.44434 21.833 9.54395 21.7979 9.66309C21.7646 9.78027 21.7324 9.8916 21.7012 9.99707C21.6699 10.1025 21.6475 10.1777 21.6338 10.2227L21.3262 11.2188H22.4424Z" fill="white"/>
</svg>
