<svg width="32" height="32" viewBox="0 0 32 32" fill="none" xmlns="http://www.w3.org/2000/svg">
<circle opacity="0.5" cx="16" cy="16" r="16" fill="#0065B1"/>
<circle opacity="0.5" cx="15.75" cy="16" r="12" fill="#0065B1"/>
<path d="M24.5696 21.2911C23.7683 21.2911 23.0806 21.0884 22.5065 20.6829C21.9356 20.2742 21.496 19.6854 21.1879 18.9166C20.8829 18.1446 20.7305 17.2152 20.7305 16.1285C20.7337 15.0419 20.8878 14.1174 21.1927 13.355C21.5009 12.5895 21.9404 12.0056 22.5113 11.6034C23.0855 11.2011 23.7716 11 24.5696 11C25.3676 11 26.0536 11.2011 26.6278 11.6034C27.202 12.0056 27.6415 12.5895 27.9464 13.355C28.2546 14.1206 28.4087 15.0451 28.4087 16.1285C28.4087 17.2185 28.2546 18.1495 27.9464 18.9215C27.6415 19.6903 27.202 20.2774 26.6278 20.6829C26.0569 21.0884 25.3708 21.2911 24.5696 21.2911ZM24.5696 19.7682C25.1924 19.7682 25.6838 19.4616 26.0439 18.8485C26.4072 18.2322 26.5889 17.3255 26.5889 16.1285C26.5889 15.337 26.5062 14.6721 26.3407 14.1336C26.1753 13.5951 25.9417 13.1896 25.6401 12.9171C25.3384 12.6414 24.9815 12.5035 24.5696 12.5035C23.95 12.5035 23.4602 12.8117 23.1001 13.428C22.74 14.0411 22.5584 14.9413 22.5551 16.1285C22.5519 16.9233 22.6314 17.5915 22.7936 18.1332C22.959 18.675 23.1926 19.0837 23.4942 19.3594C23.7959 19.6319 24.1544 19.7682 24.5696 19.7682Z" fill="white"/>
<path d="M15.6508 21.2376C15.174 21.2344 14.7085 21.1517 14.2543 20.9895C13.8002 20.824 13.3915 20.5564 13.0282 20.1866C12.6649 19.8136 12.3761 19.3189 12.1621 18.7025C11.948 18.083 11.8425 17.3158 11.8458 16.401C11.8458 15.5479 11.9366 14.7872 12.1183 14.119C12.2999 13.4507 12.561 12.8863 12.9017 12.4257C13.2423 11.9618 13.6526 11.6082 14.1327 11.3649C14.616 11.1216 15.1561 11 15.753 11C16.3791 11 16.9338 11.1233 17.4171 11.3698C17.9037 11.6163 18.2962 11.9537 18.5946 12.3819C18.8931 12.8068 19.078 13.2869 19.1493 13.8222H17.3733C17.2825 13.4394 17.096 13.1345 16.8137 12.9074C16.5348 12.6771 16.1812 12.5619 15.753 12.5619C15.0621 12.5619 14.5301 12.862 14.157 13.4621C13.7872 14.0622 13.6007 14.8861 13.5975 15.9339H13.6656C13.8245 15.6485 14.0305 15.4035 14.2835 15.1992C14.5366 14.9948 14.822 14.8375 15.1399 14.7272C15.4611 14.6137 15.8 14.5569 16.1569 14.5569C16.7408 14.5569 17.2646 14.6964 17.7285 14.9754C18.1956 15.2543 18.5654 15.6387 18.8379 16.1285C19.1104 16.6151 19.245 17.1731 19.2418 17.8024C19.245 18.4576 19.0958 19.0464 18.7941 19.5687C18.4924 20.0877 18.0724 20.4964 17.5339 20.7948C16.9954 21.0933 16.3677 21.2409 15.6508 21.2376ZM15.6411 19.7779C15.9947 19.7779 16.3109 19.6919 16.5899 19.52C16.8689 19.3481 17.0895 19.1161 17.2517 18.8242C17.4139 18.5322 17.4933 18.2046 17.4901 17.8413C17.4933 17.4845 17.4155 17.1617 17.2565 16.873C17.1008 16.5843 16.8851 16.3556 16.6094 16.1869C16.3337 16.0183 16.019 15.9339 15.6654 15.9339C15.4027 15.9339 15.1578 15.9842 14.9307 16.0848C14.7036 16.1853 14.5057 16.3248 14.3371 16.5032C14.1684 16.6784 14.0354 16.8827 13.9381 17.1163C13.844 17.3466 13.7953 17.5931 13.7921 17.8559C13.7953 18.203 13.8764 18.5225 14.0354 18.8145C14.1943 19.1064 14.4133 19.34 14.6923 19.5151C14.9712 19.6903 15.2875 19.7779 15.6411 19.7779Z" fill="white"/>
<path d="M6.65226 21.2376C5.95158 21.2376 5.32876 21.1176 4.78379 20.8776C4.24207 20.6375 3.81388 20.3034 3.49922 19.8752C3.18457 19.447 3.01751 18.9523 2.99805 18.3911H4.82758C4.8438 18.6604 4.93301 18.8956 5.0952 19.0967C5.2574 19.2946 5.47311 19.4486 5.74235 19.5589C6.01159 19.6692 6.31327 19.7244 6.64739 19.7244C7.00422 19.7244 7.32049 19.6627 7.59622 19.5395C7.87195 19.413 8.08766 19.2378 8.24337 19.014C8.39908 18.7901 8.47531 18.5322 8.47206 18.2403C8.47531 17.9386 8.39745 17.6726 8.2385 17.4423C8.07956 17.212 7.84924 17.032 7.54756 16.9022C7.24913 16.7725 6.88906 16.7076 6.46736 16.7076H5.58665V15.316H6.46736C6.81445 15.316 7.11775 15.2559 7.37726 15.1359C7.64001 15.0159 7.846 14.8472 7.99521 14.6299C8.14443 14.4093 8.21742 14.1547 8.21417 13.866C8.21742 13.5837 8.15416 13.3388 8.02441 13.1312C7.8979 12.9204 7.71786 12.7566 7.48431 12.6398C7.25399 12.523 6.98313 12.4646 6.67172 12.4646C6.3668 12.4646 6.08458 12.5197 5.82507 12.63C5.56556 12.7403 5.35633 12.8977 5.19738 13.102C5.03844 13.3031 4.95409 13.5432 4.94436 13.8222H3.20728C3.22025 13.2642 3.38082 12.7744 3.68899 12.3527C4.0004 11.9277 4.41561 11.5969 4.93463 11.3601C5.45365 11.12 6.03592 11 6.68145 11C7.34644 11 7.92385 11.1249 8.41367 11.3747C8.90674 11.6212 9.28789 11.9537 9.55713 12.3722C9.82637 12.7906 9.96099 13.2529 9.96099 13.7589C9.96424 14.3201 9.7988 14.7905 9.46468 15.17C9.13381 15.5495 8.69913 15.7977 8.16065 15.9144V15.9923C8.86133 16.0896 9.39818 16.3491 9.77123 16.7708C10.1475 17.1893 10.334 17.7099 10.3308 18.3327C10.3308 18.8907 10.1718 19.3902 9.85395 19.8314C9.53929 20.2693 9.10462 20.6132 8.54991 20.863C7.99846 21.1127 7.36591 21.2376 6.65226 21.2376Z" fill="white"/>
</svg>
